%TF.GenerationSoftware,KiCad,Pcbnew,7.0.10-7.0.10~ubuntu22.04.1*%
%TF.CreationDate,2024-02-02T11:32:49-05:00*%
%TF.ProjectId,sys11c-power-supply,73797331-3163-42d7-906f-7765722d7375,1.0*%
%TF.SameCoordinates,Original*%
%TF.FileFunction,Drillmap*%
%TF.FilePolarity,Positive*%
%FSLAX45Y45*%
G04 Gerber Fmt 4.5, Leading zero omitted, Abs format (unit mm)*
G04 Created by KiCad (PCBNEW 7.0.10-7.0.10~ubuntu22.04.1) date 2024-02-02 11:32:49*
%MOMM*%
%LPD*%
G01*
G04 APERTURE LIST*
%ADD10C,0.100000*%
%ADD11C,0.200000*%
%ADD12C,0.110000*%
%ADD13C,0.120000*%
%ADD14C,0.160000*%
%ADD15C,0.170000*%
%ADD16C,0.254000*%
%ADD17C,0.530000*%
G04 APERTURE END LIST*
D10*
X7134860Y-3294380D02*
X27434860Y-3294380D01*
X27434860Y-22394380D01*
X7134860Y-22394380D01*
X7134860Y-3294380D01*
D11*
D10*
X15238500Y-19457000D02*
X15313500Y-19532000D01*
X15313500Y-19457000D02*
X15238500Y-19532000D01*
X15238500Y-19584000D02*
X15313500Y-19659000D01*
X15313500Y-19584000D02*
X15238500Y-19659000D01*
X15238500Y-19711000D02*
X15313500Y-19786000D01*
X15313500Y-19711000D02*
X15238500Y-19786000D01*
X15302000Y-16917000D02*
X15377000Y-16992000D01*
X15377000Y-16917000D02*
X15302000Y-16992000D01*
X15302000Y-17044000D02*
X15377000Y-17119000D01*
X15377000Y-17044000D02*
X15302000Y-17119000D01*
X15302000Y-17171000D02*
X15377000Y-17246000D01*
X15377000Y-17171000D02*
X15302000Y-17246000D01*
X14200500Y-16895000D02*
G75*
G03*
X14120500Y-16895000I-40000J0D01*
G01*
X14120500Y-16895000D02*
G75*
G03*
X14200500Y-16895000I40000J0D01*
G01*
X14200500Y-17395000D02*
G75*
G03*
X14120500Y-17395000I-40000J0D01*
G01*
X14120500Y-17395000D02*
G75*
G03*
X14200500Y-17395000I40000J0D01*
G01*
X14200500Y-19435000D02*
G75*
G03*
X14120500Y-19435000I-40000J0D01*
G01*
X14120500Y-19435000D02*
G75*
G03*
X14200500Y-19435000I40000J0D01*
G01*
X14200500Y-19935000D02*
G75*
G03*
X14120500Y-19935000I-40000J0D01*
G01*
X14120500Y-19935000D02*
G75*
G03*
X14200500Y-19935000I40000J0D01*
G01*
X14391000Y-6667500D02*
G75*
G03*
X14311000Y-6667500I-40000J0D01*
G01*
X14311000Y-6667500D02*
G75*
G03*
X14391000Y-6667500I40000J0D01*
G01*
X14708500Y-16637000D02*
G75*
G03*
X14628500Y-16637000I-40000J0D01*
G01*
X14628500Y-16637000D02*
G75*
G03*
X14708500Y-16637000I40000J0D01*
G01*
X14708500Y-17653000D02*
G75*
G03*
X14628500Y-17653000I-40000J0D01*
G01*
X14628500Y-17653000D02*
G75*
G03*
X14708500Y-17653000I40000J0D01*
G01*
X14708500Y-19177000D02*
G75*
G03*
X14628500Y-19177000I-40000J0D01*
G01*
X14628500Y-19177000D02*
G75*
G03*
X14708500Y-19177000I40000J0D01*
G01*
X14708500Y-20193000D02*
G75*
G03*
X14628500Y-20193000I-40000J0D01*
G01*
X14628500Y-20193000D02*
G75*
G03*
X14708500Y-20193000I40000J0D01*
G01*
X15407000Y-6667500D02*
G75*
G03*
X15327000Y-6667500I-40000J0D01*
G01*
X15327000Y-6667500D02*
G75*
G03*
X15407000Y-6667500I40000J0D01*
G01*
X16042000Y-16637000D02*
G75*
G03*
X15962000Y-16637000I-40000J0D01*
G01*
X15962000Y-16637000D02*
G75*
G03*
X16042000Y-16637000I40000J0D01*
G01*
X16042000Y-17653000D02*
G75*
G03*
X15962000Y-17653000I-40000J0D01*
G01*
X15962000Y-17653000D02*
G75*
G03*
X16042000Y-17653000I40000J0D01*
G01*
X16042000Y-19177000D02*
G75*
G03*
X15962000Y-19177000I-40000J0D01*
G01*
X15962000Y-19177000D02*
G75*
G03*
X16042000Y-19177000I40000J0D01*
G01*
X16042000Y-20193000D02*
G75*
G03*
X15962000Y-20193000I-40000J0D01*
G01*
X15962000Y-20193000D02*
G75*
G03*
X16042000Y-20193000I40000J0D01*
G01*
X17185000Y-16637000D02*
G75*
G03*
X17105000Y-16637000I-40000J0D01*
G01*
X17105000Y-16637000D02*
G75*
G03*
X17185000Y-16637000I40000J0D01*
G01*
X17185000Y-17653000D02*
G75*
G03*
X17105000Y-17653000I-40000J0D01*
G01*
X17105000Y-17653000D02*
G75*
G03*
X17185000Y-17653000I40000J0D01*
G01*
X17185000Y-19177000D02*
G75*
G03*
X17105000Y-19177000I-40000J0D01*
G01*
X17105000Y-19177000D02*
G75*
G03*
X17185000Y-19177000I40000J0D01*
G01*
X17185000Y-20193000D02*
G75*
G03*
X17105000Y-20193000I-40000J0D01*
G01*
X17105000Y-20193000D02*
G75*
G03*
X17185000Y-20193000I40000J0D01*
G01*
X17248500Y-6862000D02*
G75*
G03*
X17168500Y-6862000I-40000J0D01*
G01*
X17168500Y-6862000D02*
G75*
G03*
X17248500Y-6862000I40000J0D01*
G01*
X17248500Y-7362000D02*
G75*
G03*
X17168500Y-7362000I-40000J0D01*
G01*
X17168500Y-7362000D02*
G75*
G03*
X17248500Y-7362000I40000J0D01*
G01*
X17693000Y-16637000D02*
G75*
G03*
X17613000Y-16637000I-40000J0D01*
G01*
X17613000Y-16637000D02*
G75*
G03*
X17693000Y-16637000I40000J0D01*
G01*
X17693000Y-17653000D02*
G75*
G03*
X17613000Y-17653000I-40000J0D01*
G01*
X17613000Y-17653000D02*
G75*
G03*
X17693000Y-17653000I40000J0D01*
G01*
X17693000Y-19177000D02*
G75*
G03*
X17613000Y-19177000I-40000J0D01*
G01*
X17613000Y-19177000D02*
G75*
G03*
X17693000Y-19177000I40000J0D01*
G01*
X17693000Y-20193000D02*
G75*
G03*
X17613000Y-20193000I-40000J0D01*
G01*
X17613000Y-20193000D02*
G75*
G03*
X17693000Y-20193000I40000J0D01*
G01*
X11239000Y-15507500D02*
X11239000Y-15607500D01*
X11189000Y-15557500D02*
X11289000Y-15557500D01*
X11493000Y-15507500D02*
X11493000Y-15607500D01*
X11443000Y-15557500D02*
X11543000Y-15557500D01*
X12446000Y-7895500D02*
X12446000Y-7995500D01*
X12396000Y-7945500D02*
X12496000Y-7945500D01*
X12446000Y-8395500D02*
X12446000Y-8495500D01*
X12396000Y-8445500D02*
X12496000Y-8445500D01*
D12*
X13598391Y-16929891D02*
X13598391Y-16852109D01*
X13520609Y-16852109D01*
X13520609Y-16929891D01*
X13598391Y-16929891D01*
X13598391Y-17183891D02*
X13598391Y-17106109D01*
X13520609Y-17106109D01*
X13520609Y-17183891D01*
X13598391Y-17183891D01*
X13598391Y-17437891D02*
X13598391Y-17360109D01*
X13520609Y-17360109D01*
X13520609Y-17437891D01*
X13598391Y-17437891D01*
X13633951Y-19406391D02*
X13633951Y-19328609D01*
X13556169Y-19328609D01*
X13556169Y-19406391D01*
X13633951Y-19406391D01*
X13633951Y-19660391D02*
X13633951Y-19582609D01*
X13556169Y-19582609D01*
X13556169Y-19660391D01*
X13633951Y-19660391D01*
X13633951Y-19914391D02*
X13633951Y-19836609D01*
X13556169Y-19836609D01*
X13556169Y-19914391D01*
X13633951Y-19914391D01*
X16389391Y-6747391D02*
X16389391Y-6669609D01*
X16311609Y-6669609D01*
X16311609Y-6747391D01*
X16389391Y-6747391D01*
X16389391Y-6917391D02*
X16389391Y-6839609D01*
X16311609Y-6839609D01*
X16311609Y-6917391D01*
X16389391Y-6917391D01*
X16389391Y-7087391D02*
X16389391Y-7009609D01*
X16311609Y-7009609D01*
X16311609Y-7087391D01*
X16389391Y-7087391D01*
X16389391Y-7257391D02*
X16389391Y-7179609D01*
X16311609Y-7179609D01*
X16311609Y-7257391D01*
X16389391Y-7257391D01*
X16389391Y-7427391D02*
X16389391Y-7349609D01*
X16311609Y-7349609D01*
X16311609Y-7427391D01*
X16389391Y-7427391D01*
X16612391Y-16675891D02*
X16612391Y-16598109D01*
X16534609Y-16598109D01*
X16534609Y-16675891D01*
X16612391Y-16675891D01*
X16612391Y-17691891D02*
X16612391Y-17614109D01*
X16534609Y-17614109D01*
X16534609Y-17691891D01*
X16612391Y-17691891D01*
X16612391Y-19215891D02*
X16612391Y-19138109D01*
X16534609Y-19138109D01*
X16534609Y-19215891D01*
X16612391Y-19215891D01*
X16612391Y-20231891D02*
X16612391Y-20154109D01*
X16534609Y-20154109D01*
X16534609Y-20231891D01*
X16612391Y-20231891D01*
X20676391Y-16675891D02*
X20676391Y-16598109D01*
X20598609Y-16598109D01*
X20598609Y-16675891D01*
X20676391Y-16675891D01*
X20676391Y-17691891D02*
X20676391Y-17614109D01*
X20598609Y-17614109D01*
X20598609Y-17691891D01*
X20676391Y-17691891D01*
X20676391Y-19215891D02*
X20676391Y-19138109D01*
X20598609Y-19138109D01*
X20598609Y-19215891D01*
X20676391Y-19215891D01*
X20676391Y-20231891D02*
X20676391Y-20154109D01*
X20598609Y-20154109D01*
X20598609Y-20231891D01*
X20676391Y-20231891D01*
D13*
X12446000Y-5352104D02*
X12506000Y-5292104D01*
X12446000Y-5232104D01*
X12386000Y-5292104D01*
X12446000Y-5352104D01*
X12446000Y-5852104D02*
X12506000Y-5792104D01*
X12446000Y-5732104D01*
X12386000Y-5792104D01*
X12446000Y-5852104D01*
X19177000Y-16836000D02*
X19237000Y-16776000D01*
X19177000Y-16716000D01*
X19117000Y-16776000D01*
X19177000Y-16836000D01*
X19177000Y-17586000D02*
X19237000Y-17526000D01*
X19177000Y-17466000D01*
X19117000Y-17526000D01*
X19177000Y-17586000D01*
X19177000Y-19393725D02*
X19237000Y-19333725D01*
X19177000Y-19273725D01*
X19117000Y-19333725D01*
X19177000Y-19393725D01*
X19177000Y-20143725D02*
X19237000Y-20083725D01*
X19177000Y-20023725D01*
X19117000Y-20083725D01*
X19177000Y-20143725D01*
D14*
X20954500Y-9699000D02*
X21114500Y-9859000D01*
X21114500Y-9699000D02*
X20954500Y-9859000D01*
X21114500Y-9779000D02*
G75*
G03*
X20954500Y-9779000I-80000J0D01*
G01*
X20954500Y-9779000D02*
G75*
G03*
X21114500Y-9779000I80000J0D01*
G01*
X20954500Y-12112000D02*
X21114500Y-12272000D01*
X21114500Y-12112000D02*
X20954500Y-12272000D01*
X21114500Y-12192000D02*
G75*
G03*
X20954500Y-12192000I-80000J0D01*
G01*
X20954500Y-12192000D02*
G75*
G03*
X21114500Y-12192000I80000J0D01*
G01*
X21949420Y-14969500D02*
X22109420Y-15129500D01*
X22109420Y-14969500D02*
X21949420Y-15129500D01*
X22109420Y-15049500D02*
G75*
G03*
X21949420Y-15049500I-80000J0D01*
G01*
X21949420Y-15049500D02*
G75*
G03*
X22109420Y-15049500I80000J0D01*
G01*
X22457420Y-14969500D02*
X22617420Y-15129500D01*
X22617420Y-14969500D02*
X22457420Y-15129500D01*
X22617420Y-15049500D02*
G75*
G03*
X22457420Y-15049500I-80000J0D01*
G01*
X22457420Y-15049500D02*
G75*
G03*
X22617420Y-15049500I80000J0D01*
G01*
X22954500Y-9699000D02*
X23114500Y-9859000D01*
X23114500Y-9699000D02*
X22954500Y-9859000D01*
X23114500Y-9779000D02*
G75*
G03*
X22954500Y-9779000I-80000J0D01*
G01*
X22954500Y-9779000D02*
G75*
G03*
X23114500Y-9779000I80000J0D01*
G01*
X22954500Y-12112000D02*
X23114500Y-12272000D01*
X23114500Y-12112000D02*
X22954500Y-12272000D01*
X23114500Y-12192000D02*
G75*
G03*
X22954500Y-12192000I-80000J0D01*
G01*
X22954500Y-12192000D02*
G75*
G03*
X23114500Y-12192000I80000J0D01*
G01*
X22965420Y-14969500D02*
X23125420Y-15129500D01*
X23125420Y-14969500D02*
X22965420Y-15129500D01*
X23125420Y-15049500D02*
G75*
G03*
X22965420Y-15049500I-80000J0D01*
G01*
X22965420Y-15049500D02*
G75*
G03*
X23125420Y-15049500I80000J0D01*
G01*
X22986500Y-10905500D02*
X23146500Y-11065500D01*
X23146500Y-10905500D02*
X22986500Y-11065500D01*
X23146500Y-10985500D02*
G75*
G03*
X22986500Y-10985500I-80000J0D01*
G01*
X22986500Y-10985500D02*
G75*
G03*
X23146500Y-10985500I80000J0D01*
G01*
X22986500Y-13318500D02*
X23146500Y-13478500D01*
X23146500Y-13318500D02*
X22986500Y-13478500D01*
X23146500Y-13398500D02*
G75*
G03*
X22986500Y-13398500I-80000J0D01*
G01*
X22986500Y-13398500D02*
G75*
G03*
X23146500Y-13398500I80000J0D01*
G01*
X23473420Y-14969500D02*
X23633420Y-15129500D01*
X23633420Y-14969500D02*
X23473420Y-15129500D01*
X23633420Y-15049500D02*
G75*
G03*
X23473420Y-15049500I-80000J0D01*
G01*
X23473420Y-15049500D02*
G75*
G03*
X23633420Y-15049500I80000J0D01*
G01*
X24986500Y-10905500D02*
X25146500Y-11065500D01*
X25146500Y-10905500D02*
X24986500Y-11065500D01*
X25146500Y-10985500D02*
G75*
G03*
X24986500Y-10985500I-80000J0D01*
G01*
X24986500Y-10985500D02*
G75*
G03*
X25146500Y-10985500I80000J0D01*
G01*
X24986500Y-13318500D02*
X25146500Y-13478500D01*
X25146500Y-13318500D02*
X24986500Y-13478500D01*
X25146500Y-13398500D02*
G75*
G03*
X24986500Y-13398500I-80000J0D01*
G01*
X24986500Y-13398500D02*
G75*
G03*
X25146500Y-13398500I80000J0D01*
G01*
D15*
X8344820Y-5310120D02*
X8514820Y-5480120D01*
X8514820Y-5310120D02*
X8344820Y-5480120D01*
X8429820Y-5310120D02*
X8429820Y-5480120D01*
X8344820Y-5395120D02*
X8514820Y-5395120D01*
X8344820Y-5706120D02*
X8514820Y-5876120D01*
X8514820Y-5706120D02*
X8344820Y-5876120D01*
X8429820Y-5706120D02*
X8429820Y-5876120D01*
X8344820Y-5791120D02*
X8514820Y-5791120D01*
X8344820Y-6102120D02*
X8514820Y-6272120D01*
X8514820Y-6102120D02*
X8344820Y-6272120D01*
X8429820Y-6102120D02*
X8429820Y-6272120D01*
X8344820Y-6187120D02*
X8514820Y-6187120D01*
X8344820Y-6498120D02*
X8514820Y-6668120D01*
X8514820Y-6498120D02*
X8344820Y-6668120D01*
X8429820Y-6498120D02*
X8429820Y-6668120D01*
X8344820Y-6583120D02*
X8514820Y-6583120D01*
X8344820Y-6894120D02*
X8514820Y-7064120D01*
X8514820Y-6894120D02*
X8344820Y-7064120D01*
X8429820Y-6894120D02*
X8429820Y-7064120D01*
X8344820Y-6979120D02*
X8514820Y-6979120D01*
X8344820Y-7290120D02*
X8514820Y-7460120D01*
X8514820Y-7290120D02*
X8344820Y-7460120D01*
X8429820Y-7290120D02*
X8429820Y-7460120D01*
X8344820Y-7375120D02*
X8514820Y-7375120D01*
X8344820Y-7686120D02*
X8514820Y-7856120D01*
X8514820Y-7686120D02*
X8344820Y-7856120D01*
X8429820Y-7686120D02*
X8429820Y-7856120D01*
X8344820Y-7771120D02*
X8514820Y-7771120D01*
X8344820Y-8082120D02*
X8514820Y-8252120D01*
X8514820Y-8082120D02*
X8344820Y-8252120D01*
X8429820Y-8082120D02*
X8429820Y-8252120D01*
X8344820Y-8167120D02*
X8514820Y-8167120D01*
X8344820Y-8478120D02*
X8514820Y-8648120D01*
X8514820Y-8478120D02*
X8344820Y-8648120D01*
X8429820Y-8478120D02*
X8429820Y-8648120D01*
X8344820Y-8563120D02*
X8514820Y-8563120D01*
X8344820Y-8874120D02*
X8514820Y-9044120D01*
X8514820Y-8874120D02*
X8344820Y-9044120D01*
X8429820Y-8874120D02*
X8429820Y-9044120D01*
X8344820Y-8959120D02*
X8514820Y-8959120D01*
X8344820Y-9270120D02*
X8514820Y-9440120D01*
X8514820Y-9270120D02*
X8344820Y-9440120D01*
X8429820Y-9270120D02*
X8429820Y-9440120D01*
X8344820Y-9355120D02*
X8514820Y-9355120D01*
X8344820Y-9666120D02*
X8514820Y-9836120D01*
X8514820Y-9666120D02*
X8344820Y-9836120D01*
X8429820Y-9666120D02*
X8429820Y-9836120D01*
X8344820Y-9751120D02*
X8514820Y-9751120D01*
X8344820Y-10062120D02*
X8514820Y-10232120D01*
X8514820Y-10062120D02*
X8344820Y-10232120D01*
X8429820Y-10062120D02*
X8429820Y-10232120D01*
X8344820Y-10147120D02*
X8514820Y-10147120D01*
X8344820Y-10458120D02*
X8514820Y-10628120D01*
X8514820Y-10458120D02*
X8344820Y-10628120D01*
X8429820Y-10458120D02*
X8429820Y-10628120D01*
X8344820Y-10543120D02*
X8514820Y-10543120D01*
X8344820Y-10854120D02*
X8514820Y-11024120D01*
X8514820Y-10854120D02*
X8344820Y-11024120D01*
X8429820Y-10854120D02*
X8429820Y-11024120D01*
X8344820Y-10939120D02*
X8514820Y-10939120D01*
X8738320Y-21389240D02*
X8908320Y-21559240D01*
X8908320Y-21389240D02*
X8738320Y-21559240D01*
X8823320Y-21389240D02*
X8823320Y-21559240D01*
X8738320Y-21474240D02*
X8908320Y-21474240D01*
X9134320Y-21389240D02*
X9304320Y-21559240D01*
X9304320Y-21389240D02*
X9134320Y-21559240D01*
X9219320Y-21389240D02*
X9219320Y-21559240D01*
X9134320Y-21474240D02*
X9304320Y-21474240D01*
X9530320Y-21389240D02*
X9700320Y-21559240D01*
X9700320Y-21389240D02*
X9530320Y-21559240D01*
X9615320Y-21389240D02*
X9615320Y-21559240D01*
X9530320Y-21474240D02*
X9700320Y-21474240D01*
X9926320Y-21389240D02*
X10096320Y-21559240D01*
X10096320Y-21389240D02*
X9926320Y-21559240D01*
X10011320Y-21389240D02*
X10011320Y-21559240D01*
X9926320Y-21474240D02*
X10096320Y-21474240D01*
X10322320Y-21389240D02*
X10492320Y-21559240D01*
X10492320Y-21389240D02*
X10322320Y-21559240D01*
X10407320Y-21389240D02*
X10407320Y-21559240D01*
X10322320Y-21474240D02*
X10492320Y-21474240D01*
X10718320Y-21389240D02*
X10888320Y-21559240D01*
X10888320Y-21389240D02*
X10718320Y-21559240D01*
X10803320Y-21389240D02*
X10803320Y-21559240D01*
X10718320Y-21474240D02*
X10888320Y-21474240D01*
X21791740Y-21397660D02*
X21961740Y-21567660D01*
X21961740Y-21397660D02*
X21791740Y-21567660D01*
X21876740Y-21397660D02*
X21876740Y-21567660D01*
X21791740Y-21482660D02*
X21961740Y-21482660D01*
X22187740Y-21397660D02*
X22357740Y-21567660D01*
X22357740Y-21397660D02*
X22187740Y-21567660D01*
X22272740Y-21397660D02*
X22272740Y-21567660D01*
X22187740Y-21482660D02*
X22357740Y-21482660D01*
X22583740Y-21397660D02*
X22753740Y-21567660D01*
X22753740Y-21397660D02*
X22583740Y-21567660D01*
X22668740Y-21397660D02*
X22668740Y-21567660D01*
X22583740Y-21482660D02*
X22753740Y-21482660D01*
X22979740Y-21397660D02*
X23149740Y-21567660D01*
X23149740Y-21397660D02*
X22979740Y-21567660D01*
X23064740Y-21397660D02*
X23064740Y-21567660D01*
X22979740Y-21482660D02*
X23149740Y-21482660D01*
X23375740Y-21397660D02*
X23545740Y-21567660D01*
X23545740Y-21397660D02*
X23375740Y-21567660D01*
X23460740Y-21397660D02*
X23460740Y-21567660D01*
X23375740Y-21482660D02*
X23545740Y-21482660D01*
X23771740Y-21397660D02*
X23941740Y-21567660D01*
X23941740Y-21397660D02*
X23771740Y-21567660D01*
X23856740Y-21397660D02*
X23856740Y-21567660D01*
X23771740Y-21482660D02*
X23941740Y-21482660D01*
X24167740Y-21397660D02*
X24337740Y-21567660D01*
X24337740Y-21397660D02*
X24167740Y-21567660D01*
X24252740Y-21397660D02*
X24252740Y-21567660D01*
X24167740Y-21482660D02*
X24337740Y-21482660D01*
X24563740Y-21397660D02*
X24733740Y-21567660D01*
X24733740Y-21397660D02*
X24563740Y-21567660D01*
X24648740Y-21397660D02*
X24648740Y-21567660D01*
X24563740Y-21482660D02*
X24733740Y-21482660D01*
X24959740Y-21397660D02*
X25129740Y-21567660D01*
X25129740Y-21397660D02*
X24959740Y-21567660D01*
X25044740Y-21397660D02*
X25044740Y-21567660D01*
X24959740Y-21482660D02*
X25129740Y-21482660D01*
D11*
X13997000Y-11266500D02*
X14197000Y-11466500D01*
X14197000Y-11266500D02*
X13997000Y-11466500D01*
X14167711Y-11437211D02*
X14167711Y-11295789D01*
X14026289Y-11295789D01*
X14026289Y-11437211D01*
X14167711Y-11437211D01*
X13997000Y-12266500D02*
X14197000Y-12466500D01*
X14197000Y-12266500D02*
X13997000Y-12466500D01*
X14167711Y-12437211D02*
X14167711Y-12295789D01*
X14026289Y-12295789D01*
X14026289Y-12437211D01*
X14167711Y-12437211D01*
X17680000Y-11266500D02*
X17880000Y-11466500D01*
X17880000Y-11266500D02*
X17680000Y-11466500D01*
X17850711Y-11437211D02*
X17850711Y-11295789D01*
X17709289Y-11295789D01*
X17709289Y-11437211D01*
X17850711Y-11437211D01*
X17680000Y-12266500D02*
X17880000Y-12466500D01*
X17880000Y-12266500D02*
X17680000Y-12466500D01*
X17850711Y-12437211D02*
X17850711Y-12295789D01*
X17709289Y-12295789D01*
X17709289Y-12437211D01*
X17850711Y-12437211D01*
D16*
X8318500Y-16577500D02*
X8572500Y-16831500D01*
X8572500Y-16577500D02*
X8318500Y-16831500D01*
X8445500Y-16831500D02*
X8572500Y-16704500D01*
X8445500Y-16577500D01*
X8318500Y-16704500D01*
X8445500Y-16831500D01*
X8318500Y-17339500D02*
X8572500Y-17593500D01*
X8572500Y-17339500D02*
X8318500Y-17593500D01*
X8445500Y-17593500D02*
X8572500Y-17466500D01*
X8445500Y-17339500D01*
X8318500Y-17466500D01*
X8445500Y-17593500D01*
X8318500Y-19236500D02*
X8572500Y-19490500D01*
X8572500Y-19236500D02*
X8318500Y-19490500D01*
X8445500Y-19490500D02*
X8572500Y-19363500D01*
X8445500Y-19236500D01*
X8318500Y-19363500D01*
X8445500Y-19490500D01*
X8318500Y-19998500D02*
X8572500Y-20252500D01*
X8572500Y-19998500D02*
X8318500Y-20252500D01*
X8445500Y-20252500D02*
X8572500Y-20125500D01*
X8445500Y-19998500D01*
X8318500Y-20125500D01*
X8445500Y-20252500D01*
X9906000Y-16577500D02*
X10160000Y-16831500D01*
X10160000Y-16577500D02*
X9906000Y-16831500D01*
X10033000Y-16831500D02*
X10160000Y-16704500D01*
X10033000Y-16577500D01*
X9906000Y-16704500D01*
X10033000Y-16831500D01*
X9906000Y-17339500D02*
X10160000Y-17593500D01*
X10160000Y-17339500D02*
X9906000Y-17593500D01*
X10033000Y-17593500D02*
X10160000Y-17466500D01*
X10033000Y-17339500D01*
X9906000Y-17466500D01*
X10033000Y-17593500D01*
X9906000Y-19236500D02*
X10160000Y-19490500D01*
X10160000Y-19236500D02*
X9906000Y-19490500D01*
X10033000Y-19490500D02*
X10160000Y-19363500D01*
X10033000Y-19236500D01*
X9906000Y-19363500D01*
X10033000Y-19490500D01*
X9906000Y-19998500D02*
X10160000Y-20252500D01*
X10160000Y-19998500D02*
X9906000Y-20252500D01*
X10033000Y-20252500D02*
X10160000Y-20125500D01*
X10033000Y-19998500D01*
X9906000Y-20125500D01*
X10033000Y-20252500D01*
X21590000Y-16577500D02*
X21844000Y-16831500D01*
X21844000Y-16577500D02*
X21590000Y-16831500D01*
X21717000Y-16831500D02*
X21844000Y-16704500D01*
X21717000Y-16577500D01*
X21590000Y-16704500D01*
X21717000Y-16831500D01*
X21590000Y-17339500D02*
X21844000Y-17593500D01*
X21844000Y-17339500D02*
X21590000Y-17593500D01*
X21717000Y-17593500D02*
X21844000Y-17466500D01*
X21717000Y-17339500D01*
X21590000Y-17466500D01*
X21717000Y-17593500D01*
X21590000Y-19236500D02*
X21844000Y-19490500D01*
X21844000Y-19236500D02*
X21590000Y-19490500D01*
X21717000Y-19490500D02*
X21844000Y-19363500D01*
X21717000Y-19236500D01*
X21590000Y-19363500D01*
X21717000Y-19490500D01*
X21590000Y-19998500D02*
X21844000Y-20252500D01*
X21844000Y-19998500D02*
X21590000Y-20252500D01*
X21717000Y-20252500D02*
X21844000Y-20125500D01*
X21717000Y-19998500D01*
X21590000Y-20125500D01*
X21717000Y-20252500D01*
X23368000Y-16577500D02*
X23622000Y-16831500D01*
X23622000Y-16577500D02*
X23368000Y-16831500D01*
X23495000Y-16831500D02*
X23622000Y-16704500D01*
X23495000Y-16577500D01*
X23368000Y-16704500D01*
X23495000Y-16831500D01*
X23368000Y-17339500D02*
X23622000Y-17593500D01*
X23622000Y-17339500D02*
X23368000Y-17593500D01*
X23495000Y-17593500D02*
X23622000Y-17466500D01*
X23495000Y-17339500D01*
X23368000Y-17466500D01*
X23495000Y-17593500D01*
X23368000Y-19236500D02*
X23622000Y-19490500D01*
X23622000Y-19236500D02*
X23368000Y-19490500D01*
X23495000Y-19490500D02*
X23622000Y-19363500D01*
X23495000Y-19236500D01*
X23368000Y-19363500D01*
X23495000Y-19490500D01*
X23368000Y-19998500D02*
X23622000Y-20252500D01*
X23622000Y-19998500D02*
X23368000Y-20252500D01*
X23495000Y-20252500D02*
X23622000Y-20125500D01*
X23495000Y-19998500D01*
X23368000Y-20125500D01*
X23495000Y-20252500D01*
X25082500Y-16573500D02*
X25336500Y-16827500D01*
X25336500Y-16573500D02*
X25082500Y-16827500D01*
X25209500Y-16827500D02*
X25336500Y-16700500D01*
X25209500Y-16573500D01*
X25082500Y-16700500D01*
X25209500Y-16827500D01*
X25082500Y-17335500D02*
X25336500Y-17589500D01*
X25336500Y-17335500D02*
X25082500Y-17589500D01*
X25209500Y-17589500D02*
X25336500Y-17462500D01*
X25209500Y-17335500D01*
X25082500Y-17462500D01*
X25209500Y-17589500D01*
X25082500Y-19232500D02*
X25336500Y-19486500D01*
X25336500Y-19232500D02*
X25082500Y-19486500D01*
X25209500Y-19486500D02*
X25336500Y-19359500D01*
X25209500Y-19232500D01*
X25082500Y-19359500D01*
X25209500Y-19486500D01*
X25082500Y-19994500D02*
X25336500Y-20248500D01*
X25336500Y-19994500D02*
X25082500Y-20248500D01*
X25209500Y-20248500D02*
X25336500Y-20121500D01*
X25209500Y-19994500D01*
X25082500Y-20121500D01*
X25209500Y-20248500D01*
D17*
X7732320Y-4229380D02*
X7732320Y-4759380D01*
X7467320Y-4494380D02*
X7997320Y-4494380D01*
X7997320Y-4494380D02*
G75*
G03*
X7467320Y-4494380I-265000J0D01*
G01*
X7467320Y-4494380D02*
G75*
G03*
X7997320Y-4494380I265000J0D01*
G01*
X7742480Y-21522600D02*
X7742480Y-22052600D01*
X7477480Y-21787600D02*
X8007480Y-21787600D01*
X8007480Y-21787600D02*
G75*
G03*
X7477480Y-21787600I-265000J0D01*
G01*
X7477480Y-21787600D02*
G75*
G03*
X8007480Y-21787600I265000J0D01*
G01*
X26834520Y-21530180D02*
X26834520Y-22060180D01*
X26569520Y-21795180D02*
X27099520Y-21795180D01*
X27099520Y-21795180D02*
G75*
G03*
X26569520Y-21795180I-265000J0D01*
G01*
X26569520Y-21795180D02*
G75*
G03*
X27099520Y-21795180I265000J0D01*
G01*
X26834580Y-6226800D02*
X26834580Y-6756800D01*
X26569580Y-6491800D02*
X27099580Y-6491800D01*
X27099580Y-6491800D02*
G75*
G03*
X26569580Y-6491800I-265000J0D01*
G01*
X26569580Y-6491800D02*
G75*
G03*
X27099580Y-6491800I265000J0D01*
G01*
D11*
X7390637Y-22710864D02*
X7390637Y-22510864D01*
X7390637Y-22510864D02*
X7438256Y-22510864D01*
X7438256Y-22510864D02*
X7466827Y-22520388D01*
X7466827Y-22520388D02*
X7485875Y-22539435D01*
X7485875Y-22539435D02*
X7495399Y-22558483D01*
X7495399Y-22558483D02*
X7504922Y-22596578D01*
X7504922Y-22596578D02*
X7504922Y-22625149D01*
X7504922Y-22625149D02*
X7495399Y-22663245D01*
X7495399Y-22663245D02*
X7485875Y-22682292D01*
X7485875Y-22682292D02*
X7466827Y-22701340D01*
X7466827Y-22701340D02*
X7438256Y-22710864D01*
X7438256Y-22710864D02*
X7390637Y-22710864D01*
X7590637Y-22710864D02*
X7590637Y-22577530D01*
X7590637Y-22615626D02*
X7600161Y-22596578D01*
X7600161Y-22596578D02*
X7609684Y-22587054D01*
X7609684Y-22587054D02*
X7628732Y-22577530D01*
X7628732Y-22577530D02*
X7647780Y-22577530D01*
X7714446Y-22710864D02*
X7714446Y-22577530D01*
X7714446Y-22510864D02*
X7704922Y-22520388D01*
X7704922Y-22520388D02*
X7714446Y-22529911D01*
X7714446Y-22529911D02*
X7723970Y-22520388D01*
X7723970Y-22520388D02*
X7714446Y-22510864D01*
X7714446Y-22510864D02*
X7714446Y-22529911D01*
X7838256Y-22710864D02*
X7819208Y-22701340D01*
X7819208Y-22701340D02*
X7809684Y-22682292D01*
X7809684Y-22682292D02*
X7809684Y-22510864D01*
X7943018Y-22710864D02*
X7923970Y-22701340D01*
X7923970Y-22701340D02*
X7914446Y-22682292D01*
X7914446Y-22682292D02*
X7914446Y-22510864D01*
X8171589Y-22710864D02*
X8171589Y-22510864D01*
X8171589Y-22510864D02*
X8238256Y-22653721D01*
X8238256Y-22653721D02*
X8304922Y-22510864D01*
X8304922Y-22510864D02*
X8304922Y-22710864D01*
X8485875Y-22710864D02*
X8485875Y-22606102D01*
X8485875Y-22606102D02*
X8476351Y-22587054D01*
X8476351Y-22587054D02*
X8457304Y-22577530D01*
X8457304Y-22577530D02*
X8419208Y-22577530D01*
X8419208Y-22577530D02*
X8400161Y-22587054D01*
X8485875Y-22701340D02*
X8466827Y-22710864D01*
X8466827Y-22710864D02*
X8419208Y-22710864D01*
X8419208Y-22710864D02*
X8400161Y-22701340D01*
X8400161Y-22701340D02*
X8390637Y-22682292D01*
X8390637Y-22682292D02*
X8390637Y-22663245D01*
X8390637Y-22663245D02*
X8400161Y-22644197D01*
X8400161Y-22644197D02*
X8419208Y-22634673D01*
X8419208Y-22634673D02*
X8466827Y-22634673D01*
X8466827Y-22634673D02*
X8485875Y-22625149D01*
X8581113Y-22577530D02*
X8581113Y-22777530D01*
X8581113Y-22587054D02*
X8600161Y-22577530D01*
X8600161Y-22577530D02*
X8638256Y-22577530D01*
X8638256Y-22577530D02*
X8657304Y-22587054D01*
X8657304Y-22587054D02*
X8666827Y-22596578D01*
X8666827Y-22596578D02*
X8676351Y-22615626D01*
X8676351Y-22615626D02*
X8676351Y-22672768D01*
X8676351Y-22672768D02*
X8666827Y-22691816D01*
X8666827Y-22691816D02*
X8657304Y-22701340D01*
X8657304Y-22701340D02*
X8638256Y-22710864D01*
X8638256Y-22710864D02*
X8600161Y-22710864D01*
X8600161Y-22710864D02*
X8581113Y-22701340D01*
X8762065Y-22691816D02*
X8771589Y-22701340D01*
X8771589Y-22701340D02*
X8762065Y-22710864D01*
X8762065Y-22710864D02*
X8752542Y-22701340D01*
X8752542Y-22701340D02*
X8762065Y-22691816D01*
X8762065Y-22691816D02*
X8762065Y-22710864D01*
X8762065Y-22587054D02*
X8771589Y-22596578D01*
X8771589Y-22596578D02*
X8762065Y-22606102D01*
X8762065Y-22606102D02*
X8752542Y-22596578D01*
X8752542Y-22596578D02*
X8762065Y-22587054D01*
X8762065Y-22587054D02*
X8762065Y-22606102D01*
D10*
X7054860Y-23001880D02*
X7129860Y-23076880D01*
X7129860Y-23001880D02*
X7054860Y-23076880D01*
D11*
X7428732Y-22930864D02*
X7447780Y-22930864D01*
X7447780Y-22930864D02*
X7466827Y-22940388D01*
X7466827Y-22940388D02*
X7476351Y-22949911D01*
X7476351Y-22949911D02*
X7485875Y-22968959D01*
X7485875Y-22968959D02*
X7495399Y-23007054D01*
X7495399Y-23007054D02*
X7495399Y-23054673D01*
X7495399Y-23054673D02*
X7485875Y-23092768D01*
X7485875Y-23092768D02*
X7476351Y-23111816D01*
X7476351Y-23111816D02*
X7466827Y-23121340D01*
X7466827Y-23121340D02*
X7447780Y-23130864D01*
X7447780Y-23130864D02*
X7428732Y-23130864D01*
X7428732Y-23130864D02*
X7409684Y-23121340D01*
X7409684Y-23121340D02*
X7400161Y-23111816D01*
X7400161Y-23111816D02*
X7390637Y-23092768D01*
X7390637Y-23092768D02*
X7381113Y-23054673D01*
X7381113Y-23054673D02*
X7381113Y-23007054D01*
X7381113Y-23007054D02*
X7390637Y-22968959D01*
X7390637Y-22968959D02*
X7400161Y-22949911D01*
X7400161Y-22949911D02*
X7409684Y-22940388D01*
X7409684Y-22940388D02*
X7428732Y-22930864D01*
X7581113Y-23111816D02*
X7590637Y-23121340D01*
X7590637Y-23121340D02*
X7581113Y-23130864D01*
X7581113Y-23130864D02*
X7571589Y-23121340D01*
X7571589Y-23121340D02*
X7581113Y-23111816D01*
X7581113Y-23111816D02*
X7581113Y-23130864D01*
X7657303Y-22930864D02*
X7790637Y-22930864D01*
X7790637Y-22930864D02*
X7704922Y-23130864D01*
X7962065Y-22930864D02*
X7866827Y-22930864D01*
X7866827Y-22930864D02*
X7857303Y-23026102D01*
X7857303Y-23026102D02*
X7866827Y-23016578D01*
X7866827Y-23016578D02*
X7885875Y-23007054D01*
X7885875Y-23007054D02*
X7933494Y-23007054D01*
X7933494Y-23007054D02*
X7952542Y-23016578D01*
X7952542Y-23016578D02*
X7962065Y-23026102D01*
X7962065Y-23026102D02*
X7971589Y-23045149D01*
X7971589Y-23045149D02*
X7971589Y-23092768D01*
X7971589Y-23092768D02*
X7962065Y-23111816D01*
X7962065Y-23111816D02*
X7952542Y-23121340D01*
X7952542Y-23121340D02*
X7933494Y-23130864D01*
X7933494Y-23130864D02*
X7885875Y-23130864D01*
X7885875Y-23130864D02*
X7866827Y-23121340D01*
X7866827Y-23121340D02*
X7857303Y-23111816D01*
X8095399Y-22930864D02*
X8114446Y-22930864D01*
X8114446Y-22930864D02*
X8133494Y-22940388D01*
X8133494Y-22940388D02*
X8143018Y-22949911D01*
X8143018Y-22949911D02*
X8152542Y-22968959D01*
X8152542Y-22968959D02*
X8162065Y-23007054D01*
X8162065Y-23007054D02*
X8162065Y-23054673D01*
X8162065Y-23054673D02*
X8152542Y-23092768D01*
X8152542Y-23092768D02*
X8143018Y-23111816D01*
X8143018Y-23111816D02*
X8133494Y-23121340D01*
X8133494Y-23121340D02*
X8114446Y-23130864D01*
X8114446Y-23130864D02*
X8095399Y-23130864D01*
X8095399Y-23130864D02*
X8076351Y-23121340D01*
X8076351Y-23121340D02*
X8066827Y-23111816D01*
X8066827Y-23111816D02*
X8057303Y-23092768D01*
X8057303Y-23092768D02*
X8047780Y-23054673D01*
X8047780Y-23054673D02*
X8047780Y-23007054D01*
X8047780Y-23007054D02*
X8057303Y-22968959D01*
X8057303Y-22968959D02*
X8066827Y-22949911D01*
X8066827Y-22949911D02*
X8076351Y-22940388D01*
X8076351Y-22940388D02*
X8095399Y-22930864D01*
X8247780Y-23130864D02*
X8247780Y-22997530D01*
X8247780Y-23016578D02*
X8257303Y-23007054D01*
X8257303Y-23007054D02*
X8276351Y-22997530D01*
X8276351Y-22997530D02*
X8304923Y-22997530D01*
X8304923Y-22997530D02*
X8323970Y-23007054D01*
X8323970Y-23007054D02*
X8333494Y-23026102D01*
X8333494Y-23026102D02*
X8333494Y-23130864D01*
X8333494Y-23026102D02*
X8343018Y-23007054D01*
X8343018Y-23007054D02*
X8362065Y-22997530D01*
X8362065Y-22997530D02*
X8390637Y-22997530D01*
X8390637Y-22997530D02*
X8409685Y-23007054D01*
X8409685Y-23007054D02*
X8419208Y-23026102D01*
X8419208Y-23026102D02*
X8419208Y-23130864D01*
X8514446Y-23130864D02*
X8514446Y-22997530D01*
X8514446Y-23016578D02*
X8523970Y-23007054D01*
X8523970Y-23007054D02*
X8543018Y-22997530D01*
X8543018Y-22997530D02*
X8571589Y-22997530D01*
X8571589Y-22997530D02*
X8590637Y-23007054D01*
X8590637Y-23007054D02*
X8600161Y-23026102D01*
X8600161Y-23026102D02*
X8600161Y-23130864D01*
X8600161Y-23026102D02*
X8609685Y-23007054D01*
X8609685Y-23007054D02*
X8628732Y-22997530D01*
X8628732Y-22997530D02*
X8657304Y-22997530D01*
X8657304Y-22997530D02*
X8676351Y-23007054D01*
X8676351Y-23007054D02*
X8685875Y-23026102D01*
X8685875Y-23026102D02*
X8685875Y-23130864D01*
X9076351Y-22921340D02*
X8904923Y-23178483D01*
X9333494Y-22930864D02*
X9352542Y-22930864D01*
X9352542Y-22930864D02*
X9371589Y-22940388D01*
X9371589Y-22940388D02*
X9381113Y-22949911D01*
X9381113Y-22949911D02*
X9390637Y-22968959D01*
X9390637Y-22968959D02*
X9400161Y-23007054D01*
X9400161Y-23007054D02*
X9400161Y-23054673D01*
X9400161Y-23054673D02*
X9390637Y-23092768D01*
X9390637Y-23092768D02*
X9381113Y-23111816D01*
X9381113Y-23111816D02*
X9371589Y-23121340D01*
X9371589Y-23121340D02*
X9352542Y-23130864D01*
X9352542Y-23130864D02*
X9333494Y-23130864D01*
X9333494Y-23130864D02*
X9314447Y-23121340D01*
X9314447Y-23121340D02*
X9304923Y-23111816D01*
X9304923Y-23111816D02*
X9295399Y-23092768D01*
X9295399Y-23092768D02*
X9285875Y-23054673D01*
X9285875Y-23054673D02*
X9285875Y-23007054D01*
X9285875Y-23007054D02*
X9295399Y-22968959D01*
X9295399Y-22968959D02*
X9304923Y-22949911D01*
X9304923Y-22949911D02*
X9314447Y-22940388D01*
X9314447Y-22940388D02*
X9333494Y-22930864D01*
X9485875Y-23111816D02*
X9495399Y-23121340D01*
X9495399Y-23121340D02*
X9485875Y-23130864D01*
X9485875Y-23130864D02*
X9476351Y-23121340D01*
X9476351Y-23121340D02*
X9485875Y-23111816D01*
X9485875Y-23111816D02*
X9485875Y-23130864D01*
X9619208Y-22930864D02*
X9638256Y-22930864D01*
X9638256Y-22930864D02*
X9657304Y-22940388D01*
X9657304Y-22940388D02*
X9666828Y-22949911D01*
X9666828Y-22949911D02*
X9676351Y-22968959D01*
X9676351Y-22968959D02*
X9685875Y-23007054D01*
X9685875Y-23007054D02*
X9685875Y-23054673D01*
X9685875Y-23054673D02*
X9676351Y-23092768D01*
X9676351Y-23092768D02*
X9666828Y-23111816D01*
X9666828Y-23111816D02*
X9657304Y-23121340D01*
X9657304Y-23121340D02*
X9638256Y-23130864D01*
X9638256Y-23130864D02*
X9619208Y-23130864D01*
X9619208Y-23130864D02*
X9600161Y-23121340D01*
X9600161Y-23121340D02*
X9590637Y-23111816D01*
X9590637Y-23111816D02*
X9581113Y-23092768D01*
X9581113Y-23092768D02*
X9571589Y-23054673D01*
X9571589Y-23054673D02*
X9571589Y-23007054D01*
X9571589Y-23007054D02*
X9581113Y-22968959D01*
X9581113Y-22968959D02*
X9590637Y-22949911D01*
X9590637Y-22949911D02*
X9600161Y-22940388D01*
X9600161Y-22940388D02*
X9619208Y-22930864D01*
X9762066Y-22949911D02*
X9771589Y-22940388D01*
X9771589Y-22940388D02*
X9790637Y-22930864D01*
X9790637Y-22930864D02*
X9838256Y-22930864D01*
X9838256Y-22930864D02*
X9857304Y-22940388D01*
X9857304Y-22940388D02*
X9866828Y-22949911D01*
X9866828Y-22949911D02*
X9876351Y-22968959D01*
X9876351Y-22968959D02*
X9876351Y-22988007D01*
X9876351Y-22988007D02*
X9866828Y-23016578D01*
X9866828Y-23016578D02*
X9752542Y-23130864D01*
X9752542Y-23130864D02*
X9876351Y-23130864D01*
X9971589Y-23130864D02*
X10009685Y-23130864D01*
X10009685Y-23130864D02*
X10028732Y-23121340D01*
X10028732Y-23121340D02*
X10038256Y-23111816D01*
X10038256Y-23111816D02*
X10057304Y-23083245D01*
X10057304Y-23083245D02*
X10066828Y-23045149D01*
X10066828Y-23045149D02*
X10066828Y-22968959D01*
X10066828Y-22968959D02*
X10057304Y-22949911D01*
X10057304Y-22949911D02*
X10047780Y-22940388D01*
X10047780Y-22940388D02*
X10028732Y-22930864D01*
X10028732Y-22930864D02*
X9990637Y-22930864D01*
X9990637Y-22930864D02*
X9971589Y-22940388D01*
X9971589Y-22940388D02*
X9962066Y-22949911D01*
X9962066Y-22949911D02*
X9952542Y-22968959D01*
X9952542Y-22968959D02*
X9952542Y-23016578D01*
X9952542Y-23016578D02*
X9962066Y-23035626D01*
X9962066Y-23035626D02*
X9971589Y-23045149D01*
X9971589Y-23045149D02*
X9990637Y-23054673D01*
X9990637Y-23054673D02*
X10028732Y-23054673D01*
X10028732Y-23054673D02*
X10047780Y-23045149D01*
X10047780Y-23045149D02*
X10057304Y-23035626D01*
X10057304Y-23035626D02*
X10066828Y-23016578D01*
X10247780Y-22930864D02*
X10152542Y-22930864D01*
X10152542Y-22930864D02*
X10143018Y-23026102D01*
X10143018Y-23026102D02*
X10152542Y-23016578D01*
X10152542Y-23016578D02*
X10171589Y-23007054D01*
X10171589Y-23007054D02*
X10219209Y-23007054D01*
X10219209Y-23007054D02*
X10238256Y-23016578D01*
X10238256Y-23016578D02*
X10247780Y-23026102D01*
X10247780Y-23026102D02*
X10257304Y-23045149D01*
X10257304Y-23045149D02*
X10257304Y-23092768D01*
X10257304Y-23092768D02*
X10247780Y-23111816D01*
X10247780Y-23111816D02*
X10238256Y-23121340D01*
X10238256Y-23121340D02*
X10219209Y-23130864D01*
X10219209Y-23130864D02*
X10171589Y-23130864D01*
X10171589Y-23130864D02*
X10152542Y-23121340D01*
X10152542Y-23121340D02*
X10143018Y-23111816D01*
X10333494Y-22930864D02*
X10333494Y-22968959D01*
X10409685Y-22930864D02*
X10409685Y-22968959D01*
X10704923Y-23207054D02*
X10695399Y-23197530D01*
X10695399Y-23197530D02*
X10676351Y-23168959D01*
X10676351Y-23168959D02*
X10666828Y-23149911D01*
X10666828Y-23149911D02*
X10657304Y-23121340D01*
X10657304Y-23121340D02*
X10647780Y-23073721D01*
X10647780Y-23073721D02*
X10647780Y-23035626D01*
X10647780Y-23035626D02*
X10657304Y-22988007D01*
X10657304Y-22988007D02*
X10666828Y-22959435D01*
X10666828Y-22959435D02*
X10676351Y-22940388D01*
X10676351Y-22940388D02*
X10695399Y-22911816D01*
X10695399Y-22911816D02*
X10704923Y-22902292D01*
X10866828Y-22930864D02*
X10828732Y-22930864D01*
X10828732Y-22930864D02*
X10809685Y-22940388D01*
X10809685Y-22940388D02*
X10800161Y-22949911D01*
X10800161Y-22949911D02*
X10781113Y-22978483D01*
X10781113Y-22978483D02*
X10771590Y-23016578D01*
X10771590Y-23016578D02*
X10771590Y-23092768D01*
X10771590Y-23092768D02*
X10781113Y-23111816D01*
X10781113Y-23111816D02*
X10790637Y-23121340D01*
X10790637Y-23121340D02*
X10809685Y-23130864D01*
X10809685Y-23130864D02*
X10847780Y-23130864D01*
X10847780Y-23130864D02*
X10866828Y-23121340D01*
X10866828Y-23121340D02*
X10876351Y-23111816D01*
X10876351Y-23111816D02*
X10885875Y-23092768D01*
X10885875Y-23092768D02*
X10885875Y-23045149D01*
X10885875Y-23045149D02*
X10876351Y-23026102D01*
X10876351Y-23026102D02*
X10866828Y-23016578D01*
X10866828Y-23016578D02*
X10847780Y-23007054D01*
X10847780Y-23007054D02*
X10809685Y-23007054D01*
X10809685Y-23007054D02*
X10790637Y-23016578D01*
X10790637Y-23016578D02*
X10781113Y-23026102D01*
X10781113Y-23026102D02*
X10771590Y-23045149D01*
X11123971Y-23130864D02*
X11123971Y-22930864D01*
X11209685Y-23130864D02*
X11209685Y-23026102D01*
X11209685Y-23026102D02*
X11200161Y-23007054D01*
X11200161Y-23007054D02*
X11181113Y-22997530D01*
X11181113Y-22997530D02*
X11152542Y-22997530D01*
X11152542Y-22997530D02*
X11133494Y-23007054D01*
X11133494Y-23007054D02*
X11123971Y-23016578D01*
X11333494Y-23130864D02*
X11314447Y-23121340D01*
X11314447Y-23121340D02*
X11304923Y-23111816D01*
X11304923Y-23111816D02*
X11295399Y-23092768D01*
X11295399Y-23092768D02*
X11295399Y-23035626D01*
X11295399Y-23035626D02*
X11304923Y-23016578D01*
X11304923Y-23016578D02*
X11314447Y-23007054D01*
X11314447Y-23007054D02*
X11333494Y-22997530D01*
X11333494Y-22997530D02*
X11362066Y-22997530D01*
X11362066Y-22997530D02*
X11381113Y-23007054D01*
X11381113Y-23007054D02*
X11390637Y-23016578D01*
X11390637Y-23016578D02*
X11400161Y-23035626D01*
X11400161Y-23035626D02*
X11400161Y-23092768D01*
X11400161Y-23092768D02*
X11390637Y-23111816D01*
X11390637Y-23111816D02*
X11381113Y-23121340D01*
X11381113Y-23121340D02*
X11362066Y-23130864D01*
X11362066Y-23130864D02*
X11333494Y-23130864D01*
X11514447Y-23130864D02*
X11495399Y-23121340D01*
X11495399Y-23121340D02*
X11485875Y-23102292D01*
X11485875Y-23102292D02*
X11485875Y-22930864D01*
X11666828Y-23121340D02*
X11647780Y-23130864D01*
X11647780Y-23130864D02*
X11609685Y-23130864D01*
X11609685Y-23130864D02*
X11590637Y-23121340D01*
X11590637Y-23121340D02*
X11581113Y-23102292D01*
X11581113Y-23102292D02*
X11581113Y-23026102D01*
X11581113Y-23026102D02*
X11590637Y-23007054D01*
X11590637Y-23007054D02*
X11609685Y-22997530D01*
X11609685Y-22997530D02*
X11647780Y-22997530D01*
X11647780Y-22997530D02*
X11666828Y-23007054D01*
X11666828Y-23007054D02*
X11676351Y-23026102D01*
X11676351Y-23026102D02*
X11676351Y-23045149D01*
X11676351Y-23045149D02*
X11581113Y-23064197D01*
X11752542Y-23121340D02*
X11771590Y-23130864D01*
X11771590Y-23130864D02*
X11809685Y-23130864D01*
X11809685Y-23130864D02*
X11828732Y-23121340D01*
X11828732Y-23121340D02*
X11838256Y-23102292D01*
X11838256Y-23102292D02*
X11838256Y-23092768D01*
X11838256Y-23092768D02*
X11828732Y-23073721D01*
X11828732Y-23073721D02*
X11809685Y-23064197D01*
X11809685Y-23064197D02*
X11781113Y-23064197D01*
X11781113Y-23064197D02*
X11762066Y-23054673D01*
X11762066Y-23054673D02*
X11752542Y-23035626D01*
X11752542Y-23035626D02*
X11752542Y-23026102D01*
X11752542Y-23026102D02*
X11762066Y-23007054D01*
X11762066Y-23007054D02*
X11781113Y-22997530D01*
X11781113Y-22997530D02*
X11809685Y-22997530D01*
X11809685Y-22997530D02*
X11828732Y-23007054D01*
X11904923Y-23207054D02*
X11914447Y-23197530D01*
X11914447Y-23197530D02*
X11933494Y-23168959D01*
X11933494Y-23168959D02*
X11943018Y-23149911D01*
X11943018Y-23149911D02*
X11952542Y-23121340D01*
X11952542Y-23121340D02*
X11962066Y-23073721D01*
X11962066Y-23073721D02*
X11962066Y-23035626D01*
X11962066Y-23035626D02*
X11952542Y-22988007D01*
X11952542Y-22988007D02*
X11943018Y-22959435D01*
X11943018Y-22959435D02*
X11933494Y-22940388D01*
X11933494Y-22940388D02*
X11914447Y-22911816D01*
X11914447Y-22911816D02*
X11904923Y-22902292D01*
D10*
X7129860Y-23303380D02*
G75*
G03*
X7049860Y-23303380I-40000J0D01*
G01*
X7049860Y-23303380D02*
G75*
G03*
X7129860Y-23303380I40000J0D01*
G01*
D11*
X7428732Y-23194864D02*
X7447780Y-23194864D01*
X7447780Y-23194864D02*
X7466827Y-23204388D01*
X7466827Y-23204388D02*
X7476351Y-23213911D01*
X7476351Y-23213911D02*
X7485875Y-23232959D01*
X7485875Y-23232959D02*
X7495399Y-23271054D01*
X7495399Y-23271054D02*
X7495399Y-23318673D01*
X7495399Y-23318673D02*
X7485875Y-23356768D01*
X7485875Y-23356768D02*
X7476351Y-23375816D01*
X7476351Y-23375816D02*
X7466827Y-23385340D01*
X7466827Y-23385340D02*
X7447780Y-23394864D01*
X7447780Y-23394864D02*
X7428732Y-23394864D01*
X7428732Y-23394864D02*
X7409684Y-23385340D01*
X7409684Y-23385340D02*
X7400161Y-23375816D01*
X7400161Y-23375816D02*
X7390637Y-23356768D01*
X7390637Y-23356768D02*
X7381113Y-23318673D01*
X7381113Y-23318673D02*
X7381113Y-23271054D01*
X7381113Y-23271054D02*
X7390637Y-23232959D01*
X7390637Y-23232959D02*
X7400161Y-23213911D01*
X7400161Y-23213911D02*
X7409684Y-23204388D01*
X7409684Y-23204388D02*
X7428732Y-23194864D01*
X7581113Y-23375816D02*
X7590637Y-23385340D01*
X7590637Y-23385340D02*
X7581113Y-23394864D01*
X7581113Y-23394864D02*
X7571589Y-23385340D01*
X7571589Y-23385340D02*
X7581113Y-23375816D01*
X7581113Y-23375816D02*
X7581113Y-23394864D01*
X7704922Y-23280578D02*
X7685875Y-23271054D01*
X7685875Y-23271054D02*
X7676351Y-23261530D01*
X7676351Y-23261530D02*
X7666827Y-23242483D01*
X7666827Y-23242483D02*
X7666827Y-23232959D01*
X7666827Y-23232959D02*
X7676351Y-23213911D01*
X7676351Y-23213911D02*
X7685875Y-23204388D01*
X7685875Y-23204388D02*
X7704922Y-23194864D01*
X7704922Y-23194864D02*
X7743018Y-23194864D01*
X7743018Y-23194864D02*
X7762065Y-23204388D01*
X7762065Y-23204388D02*
X7771589Y-23213911D01*
X7771589Y-23213911D02*
X7781113Y-23232959D01*
X7781113Y-23232959D02*
X7781113Y-23242483D01*
X7781113Y-23242483D02*
X7771589Y-23261530D01*
X7771589Y-23261530D02*
X7762065Y-23271054D01*
X7762065Y-23271054D02*
X7743018Y-23280578D01*
X7743018Y-23280578D02*
X7704922Y-23280578D01*
X7704922Y-23280578D02*
X7685875Y-23290102D01*
X7685875Y-23290102D02*
X7676351Y-23299626D01*
X7676351Y-23299626D02*
X7666827Y-23318673D01*
X7666827Y-23318673D02*
X7666827Y-23356768D01*
X7666827Y-23356768D02*
X7676351Y-23375816D01*
X7676351Y-23375816D02*
X7685875Y-23385340D01*
X7685875Y-23385340D02*
X7704922Y-23394864D01*
X7704922Y-23394864D02*
X7743018Y-23394864D01*
X7743018Y-23394864D02*
X7762065Y-23385340D01*
X7762065Y-23385340D02*
X7771589Y-23375816D01*
X7771589Y-23375816D02*
X7781113Y-23356768D01*
X7781113Y-23356768D02*
X7781113Y-23318673D01*
X7781113Y-23318673D02*
X7771589Y-23299626D01*
X7771589Y-23299626D02*
X7762065Y-23290102D01*
X7762065Y-23290102D02*
X7743018Y-23280578D01*
X7904922Y-23194864D02*
X7923970Y-23194864D01*
X7923970Y-23194864D02*
X7943018Y-23204388D01*
X7943018Y-23204388D02*
X7952542Y-23213911D01*
X7952542Y-23213911D02*
X7962065Y-23232959D01*
X7962065Y-23232959D02*
X7971589Y-23271054D01*
X7971589Y-23271054D02*
X7971589Y-23318673D01*
X7971589Y-23318673D02*
X7962065Y-23356768D01*
X7962065Y-23356768D02*
X7952542Y-23375816D01*
X7952542Y-23375816D02*
X7943018Y-23385340D01*
X7943018Y-23385340D02*
X7923970Y-23394864D01*
X7923970Y-23394864D02*
X7904922Y-23394864D01*
X7904922Y-23394864D02*
X7885875Y-23385340D01*
X7885875Y-23385340D02*
X7876351Y-23375816D01*
X7876351Y-23375816D02*
X7866827Y-23356768D01*
X7866827Y-23356768D02*
X7857303Y-23318673D01*
X7857303Y-23318673D02*
X7857303Y-23271054D01*
X7857303Y-23271054D02*
X7866827Y-23232959D01*
X7866827Y-23232959D02*
X7876351Y-23213911D01*
X7876351Y-23213911D02*
X7885875Y-23204388D01*
X7885875Y-23204388D02*
X7904922Y-23194864D01*
X8095399Y-23194864D02*
X8114446Y-23194864D01*
X8114446Y-23194864D02*
X8133494Y-23204388D01*
X8133494Y-23204388D02*
X8143018Y-23213911D01*
X8143018Y-23213911D02*
X8152542Y-23232959D01*
X8152542Y-23232959D02*
X8162065Y-23271054D01*
X8162065Y-23271054D02*
X8162065Y-23318673D01*
X8162065Y-23318673D02*
X8152542Y-23356768D01*
X8152542Y-23356768D02*
X8143018Y-23375816D01*
X8143018Y-23375816D02*
X8133494Y-23385340D01*
X8133494Y-23385340D02*
X8114446Y-23394864D01*
X8114446Y-23394864D02*
X8095399Y-23394864D01*
X8095399Y-23394864D02*
X8076351Y-23385340D01*
X8076351Y-23385340D02*
X8066827Y-23375816D01*
X8066827Y-23375816D02*
X8057303Y-23356768D01*
X8057303Y-23356768D02*
X8047780Y-23318673D01*
X8047780Y-23318673D02*
X8047780Y-23271054D01*
X8047780Y-23271054D02*
X8057303Y-23232959D01*
X8057303Y-23232959D02*
X8066827Y-23213911D01*
X8066827Y-23213911D02*
X8076351Y-23204388D01*
X8076351Y-23204388D02*
X8095399Y-23194864D01*
X8247780Y-23394864D02*
X8247780Y-23261530D01*
X8247780Y-23280578D02*
X8257303Y-23271054D01*
X8257303Y-23271054D02*
X8276351Y-23261530D01*
X8276351Y-23261530D02*
X8304923Y-23261530D01*
X8304923Y-23261530D02*
X8323970Y-23271054D01*
X8323970Y-23271054D02*
X8333494Y-23290102D01*
X8333494Y-23290102D02*
X8333494Y-23394864D01*
X8333494Y-23290102D02*
X8343018Y-23271054D01*
X8343018Y-23271054D02*
X8362065Y-23261530D01*
X8362065Y-23261530D02*
X8390637Y-23261530D01*
X8390637Y-23261530D02*
X8409685Y-23271054D01*
X8409685Y-23271054D02*
X8419208Y-23290102D01*
X8419208Y-23290102D02*
X8419208Y-23394864D01*
X8514446Y-23394864D02*
X8514446Y-23261530D01*
X8514446Y-23280578D02*
X8523970Y-23271054D01*
X8523970Y-23271054D02*
X8543018Y-23261530D01*
X8543018Y-23261530D02*
X8571589Y-23261530D01*
X8571589Y-23261530D02*
X8590637Y-23271054D01*
X8590637Y-23271054D02*
X8600161Y-23290102D01*
X8600161Y-23290102D02*
X8600161Y-23394864D01*
X8600161Y-23290102D02*
X8609685Y-23271054D01*
X8609685Y-23271054D02*
X8628732Y-23261530D01*
X8628732Y-23261530D02*
X8657304Y-23261530D01*
X8657304Y-23261530D02*
X8676351Y-23271054D01*
X8676351Y-23271054D02*
X8685875Y-23290102D01*
X8685875Y-23290102D02*
X8685875Y-23394864D01*
X9076351Y-23185340D02*
X8904923Y-23442483D01*
X9333494Y-23194864D02*
X9352542Y-23194864D01*
X9352542Y-23194864D02*
X9371589Y-23204388D01*
X9371589Y-23204388D02*
X9381113Y-23213911D01*
X9381113Y-23213911D02*
X9390637Y-23232959D01*
X9390637Y-23232959D02*
X9400161Y-23271054D01*
X9400161Y-23271054D02*
X9400161Y-23318673D01*
X9400161Y-23318673D02*
X9390637Y-23356768D01*
X9390637Y-23356768D02*
X9381113Y-23375816D01*
X9381113Y-23375816D02*
X9371589Y-23385340D01*
X9371589Y-23385340D02*
X9352542Y-23394864D01*
X9352542Y-23394864D02*
X9333494Y-23394864D01*
X9333494Y-23394864D02*
X9314447Y-23385340D01*
X9314447Y-23385340D02*
X9304923Y-23375816D01*
X9304923Y-23375816D02*
X9295399Y-23356768D01*
X9295399Y-23356768D02*
X9285875Y-23318673D01*
X9285875Y-23318673D02*
X9285875Y-23271054D01*
X9285875Y-23271054D02*
X9295399Y-23232959D01*
X9295399Y-23232959D02*
X9304923Y-23213911D01*
X9304923Y-23213911D02*
X9314447Y-23204388D01*
X9314447Y-23204388D02*
X9333494Y-23194864D01*
X9485875Y-23375816D02*
X9495399Y-23385340D01*
X9495399Y-23385340D02*
X9485875Y-23394864D01*
X9485875Y-23394864D02*
X9476351Y-23385340D01*
X9476351Y-23385340D02*
X9485875Y-23375816D01*
X9485875Y-23375816D02*
X9485875Y-23394864D01*
X9619208Y-23194864D02*
X9638256Y-23194864D01*
X9638256Y-23194864D02*
X9657304Y-23204388D01*
X9657304Y-23204388D02*
X9666828Y-23213911D01*
X9666828Y-23213911D02*
X9676351Y-23232959D01*
X9676351Y-23232959D02*
X9685875Y-23271054D01*
X9685875Y-23271054D02*
X9685875Y-23318673D01*
X9685875Y-23318673D02*
X9676351Y-23356768D01*
X9676351Y-23356768D02*
X9666828Y-23375816D01*
X9666828Y-23375816D02*
X9657304Y-23385340D01*
X9657304Y-23385340D02*
X9638256Y-23394864D01*
X9638256Y-23394864D02*
X9619208Y-23394864D01*
X9619208Y-23394864D02*
X9600161Y-23385340D01*
X9600161Y-23385340D02*
X9590637Y-23375816D01*
X9590637Y-23375816D02*
X9581113Y-23356768D01*
X9581113Y-23356768D02*
X9571589Y-23318673D01*
X9571589Y-23318673D02*
X9571589Y-23271054D01*
X9571589Y-23271054D02*
X9581113Y-23232959D01*
X9581113Y-23232959D02*
X9590637Y-23213911D01*
X9590637Y-23213911D02*
X9600161Y-23204388D01*
X9600161Y-23204388D02*
X9619208Y-23194864D01*
X9752542Y-23194864D02*
X9876351Y-23194864D01*
X9876351Y-23194864D02*
X9809685Y-23271054D01*
X9809685Y-23271054D02*
X9838256Y-23271054D01*
X9838256Y-23271054D02*
X9857304Y-23280578D01*
X9857304Y-23280578D02*
X9866828Y-23290102D01*
X9866828Y-23290102D02*
X9876351Y-23309149D01*
X9876351Y-23309149D02*
X9876351Y-23356768D01*
X9876351Y-23356768D02*
X9866828Y-23375816D01*
X9866828Y-23375816D02*
X9857304Y-23385340D01*
X9857304Y-23385340D02*
X9838256Y-23394864D01*
X9838256Y-23394864D02*
X9781113Y-23394864D01*
X9781113Y-23394864D02*
X9762066Y-23385340D01*
X9762066Y-23385340D02*
X9752542Y-23375816D01*
X10066828Y-23394864D02*
X9952542Y-23394864D01*
X10009685Y-23394864D02*
X10009685Y-23194864D01*
X10009685Y-23194864D02*
X9990637Y-23223435D01*
X9990637Y-23223435D02*
X9971589Y-23242483D01*
X9971589Y-23242483D02*
X9952542Y-23252007D01*
X10247780Y-23194864D02*
X10152542Y-23194864D01*
X10152542Y-23194864D02*
X10143018Y-23290102D01*
X10143018Y-23290102D02*
X10152542Y-23280578D01*
X10152542Y-23280578D02*
X10171589Y-23271054D01*
X10171589Y-23271054D02*
X10219209Y-23271054D01*
X10219209Y-23271054D02*
X10238256Y-23280578D01*
X10238256Y-23280578D02*
X10247780Y-23290102D01*
X10247780Y-23290102D02*
X10257304Y-23309149D01*
X10257304Y-23309149D02*
X10257304Y-23356768D01*
X10257304Y-23356768D02*
X10247780Y-23375816D01*
X10247780Y-23375816D02*
X10238256Y-23385340D01*
X10238256Y-23385340D02*
X10219209Y-23394864D01*
X10219209Y-23394864D02*
X10171589Y-23394864D01*
X10171589Y-23394864D02*
X10152542Y-23385340D01*
X10152542Y-23385340D02*
X10143018Y-23375816D01*
X10333494Y-23194864D02*
X10333494Y-23232959D01*
X10409685Y-23194864D02*
X10409685Y-23232959D01*
X10704923Y-23471054D02*
X10695399Y-23461530D01*
X10695399Y-23461530D02*
X10676351Y-23432959D01*
X10676351Y-23432959D02*
X10666828Y-23413911D01*
X10666828Y-23413911D02*
X10657304Y-23385340D01*
X10657304Y-23385340D02*
X10647780Y-23337721D01*
X10647780Y-23337721D02*
X10647780Y-23299626D01*
X10647780Y-23299626D02*
X10657304Y-23252007D01*
X10657304Y-23252007D02*
X10666828Y-23223435D01*
X10666828Y-23223435D02*
X10676351Y-23204388D01*
X10676351Y-23204388D02*
X10695399Y-23175816D01*
X10695399Y-23175816D02*
X10704923Y-23166292D01*
X10771590Y-23213911D02*
X10781113Y-23204388D01*
X10781113Y-23204388D02*
X10800161Y-23194864D01*
X10800161Y-23194864D02*
X10847780Y-23194864D01*
X10847780Y-23194864D02*
X10866828Y-23204388D01*
X10866828Y-23204388D02*
X10876351Y-23213911D01*
X10876351Y-23213911D02*
X10885875Y-23232959D01*
X10885875Y-23232959D02*
X10885875Y-23252007D01*
X10885875Y-23252007D02*
X10876351Y-23280578D01*
X10876351Y-23280578D02*
X10762066Y-23394864D01*
X10762066Y-23394864D02*
X10885875Y-23394864D01*
X11057304Y-23261530D02*
X11057304Y-23394864D01*
X11009685Y-23185340D02*
X10962066Y-23328197D01*
X10962066Y-23328197D02*
X11085875Y-23328197D01*
X11314447Y-23394864D02*
X11314447Y-23194864D01*
X11400161Y-23394864D02*
X11400161Y-23290102D01*
X11400161Y-23290102D02*
X11390637Y-23271054D01*
X11390637Y-23271054D02*
X11371590Y-23261530D01*
X11371590Y-23261530D02*
X11343018Y-23261530D01*
X11343018Y-23261530D02*
X11323970Y-23271054D01*
X11323970Y-23271054D02*
X11314447Y-23280578D01*
X11523970Y-23394864D02*
X11504923Y-23385340D01*
X11504923Y-23385340D02*
X11495399Y-23375816D01*
X11495399Y-23375816D02*
X11485875Y-23356768D01*
X11485875Y-23356768D02*
X11485875Y-23299626D01*
X11485875Y-23299626D02*
X11495399Y-23280578D01*
X11495399Y-23280578D02*
X11504923Y-23271054D01*
X11504923Y-23271054D02*
X11523970Y-23261530D01*
X11523970Y-23261530D02*
X11552542Y-23261530D01*
X11552542Y-23261530D02*
X11571590Y-23271054D01*
X11571590Y-23271054D02*
X11581113Y-23280578D01*
X11581113Y-23280578D02*
X11590637Y-23299626D01*
X11590637Y-23299626D02*
X11590637Y-23356768D01*
X11590637Y-23356768D02*
X11581113Y-23375816D01*
X11581113Y-23375816D02*
X11571590Y-23385340D01*
X11571590Y-23385340D02*
X11552542Y-23394864D01*
X11552542Y-23394864D02*
X11523970Y-23394864D01*
X11704923Y-23394864D02*
X11685875Y-23385340D01*
X11685875Y-23385340D02*
X11676351Y-23366292D01*
X11676351Y-23366292D02*
X11676351Y-23194864D01*
X11857304Y-23385340D02*
X11838256Y-23394864D01*
X11838256Y-23394864D02*
X11800161Y-23394864D01*
X11800161Y-23394864D02*
X11781113Y-23385340D01*
X11781113Y-23385340D02*
X11771590Y-23366292D01*
X11771590Y-23366292D02*
X11771590Y-23290102D01*
X11771590Y-23290102D02*
X11781113Y-23271054D01*
X11781113Y-23271054D02*
X11800161Y-23261530D01*
X11800161Y-23261530D02*
X11838256Y-23261530D01*
X11838256Y-23261530D02*
X11857304Y-23271054D01*
X11857304Y-23271054D02*
X11866828Y-23290102D01*
X11866828Y-23290102D02*
X11866828Y-23309149D01*
X11866828Y-23309149D02*
X11771590Y-23328197D01*
X11943018Y-23385340D02*
X11962066Y-23394864D01*
X11962066Y-23394864D02*
X12000161Y-23394864D01*
X12000161Y-23394864D02*
X12019209Y-23385340D01*
X12019209Y-23385340D02*
X12028732Y-23366292D01*
X12028732Y-23366292D02*
X12028732Y-23356768D01*
X12028732Y-23356768D02*
X12019209Y-23337721D01*
X12019209Y-23337721D02*
X12000161Y-23328197D01*
X12000161Y-23328197D02*
X11971590Y-23328197D01*
X11971590Y-23328197D02*
X11952542Y-23318673D01*
X11952542Y-23318673D02*
X11943018Y-23299626D01*
X11943018Y-23299626D02*
X11943018Y-23290102D01*
X11943018Y-23290102D02*
X11952542Y-23271054D01*
X11952542Y-23271054D02*
X11971590Y-23261530D01*
X11971590Y-23261530D02*
X12000161Y-23261530D01*
X12000161Y-23261530D02*
X12019209Y-23271054D01*
X12095399Y-23471054D02*
X12104923Y-23461530D01*
X12104923Y-23461530D02*
X12123971Y-23432959D01*
X12123971Y-23432959D02*
X12133494Y-23413911D01*
X12133494Y-23413911D02*
X12143018Y-23385340D01*
X12143018Y-23385340D02*
X12152542Y-23337721D01*
X12152542Y-23337721D02*
X12152542Y-23299626D01*
X12152542Y-23299626D02*
X12143018Y-23252007D01*
X12143018Y-23252007D02*
X12133494Y-23223435D01*
X12133494Y-23223435D02*
X12123971Y-23204388D01*
X12123971Y-23204388D02*
X12104923Y-23175816D01*
X12104923Y-23175816D02*
X12095399Y-23166292D01*
D10*
X7079860Y-23517380D02*
X7079860Y-23617380D01*
X7029860Y-23567380D02*
X7129860Y-23567380D01*
D11*
X7495399Y-23658864D02*
X7381113Y-23658864D01*
X7438256Y-23658864D02*
X7438256Y-23458864D01*
X7438256Y-23458864D02*
X7419208Y-23487435D01*
X7419208Y-23487435D02*
X7400161Y-23506483D01*
X7400161Y-23506483D02*
X7381113Y-23516007D01*
X7581113Y-23639816D02*
X7590637Y-23649340D01*
X7590637Y-23649340D02*
X7581113Y-23658864D01*
X7581113Y-23658864D02*
X7571589Y-23649340D01*
X7571589Y-23649340D02*
X7581113Y-23639816D01*
X7581113Y-23639816D02*
X7581113Y-23658864D01*
X7714446Y-23458864D02*
X7733494Y-23458864D01*
X7733494Y-23458864D02*
X7752542Y-23468388D01*
X7752542Y-23468388D02*
X7762065Y-23477911D01*
X7762065Y-23477911D02*
X7771589Y-23496959D01*
X7771589Y-23496959D02*
X7781113Y-23535054D01*
X7781113Y-23535054D02*
X7781113Y-23582673D01*
X7781113Y-23582673D02*
X7771589Y-23620768D01*
X7771589Y-23620768D02*
X7762065Y-23639816D01*
X7762065Y-23639816D02*
X7752542Y-23649340D01*
X7752542Y-23649340D02*
X7733494Y-23658864D01*
X7733494Y-23658864D02*
X7714446Y-23658864D01*
X7714446Y-23658864D02*
X7695399Y-23649340D01*
X7695399Y-23649340D02*
X7685875Y-23639816D01*
X7685875Y-23639816D02*
X7676351Y-23620768D01*
X7676351Y-23620768D02*
X7666827Y-23582673D01*
X7666827Y-23582673D02*
X7666827Y-23535054D01*
X7666827Y-23535054D02*
X7676351Y-23496959D01*
X7676351Y-23496959D02*
X7685875Y-23477911D01*
X7685875Y-23477911D02*
X7695399Y-23468388D01*
X7695399Y-23468388D02*
X7714446Y-23458864D01*
X7904922Y-23458864D02*
X7923970Y-23458864D01*
X7923970Y-23458864D02*
X7943018Y-23468388D01*
X7943018Y-23468388D02*
X7952542Y-23477911D01*
X7952542Y-23477911D02*
X7962065Y-23496959D01*
X7962065Y-23496959D02*
X7971589Y-23535054D01*
X7971589Y-23535054D02*
X7971589Y-23582673D01*
X7971589Y-23582673D02*
X7962065Y-23620768D01*
X7962065Y-23620768D02*
X7952542Y-23639816D01*
X7952542Y-23639816D02*
X7943018Y-23649340D01*
X7943018Y-23649340D02*
X7923970Y-23658864D01*
X7923970Y-23658864D02*
X7904922Y-23658864D01*
X7904922Y-23658864D02*
X7885875Y-23649340D01*
X7885875Y-23649340D02*
X7876351Y-23639816D01*
X7876351Y-23639816D02*
X7866827Y-23620768D01*
X7866827Y-23620768D02*
X7857303Y-23582673D01*
X7857303Y-23582673D02*
X7857303Y-23535054D01*
X7857303Y-23535054D02*
X7866827Y-23496959D01*
X7866827Y-23496959D02*
X7876351Y-23477911D01*
X7876351Y-23477911D02*
X7885875Y-23468388D01*
X7885875Y-23468388D02*
X7904922Y-23458864D01*
X8095399Y-23458864D02*
X8114446Y-23458864D01*
X8114446Y-23458864D02*
X8133494Y-23468388D01*
X8133494Y-23468388D02*
X8143018Y-23477911D01*
X8143018Y-23477911D02*
X8152542Y-23496959D01*
X8152542Y-23496959D02*
X8162065Y-23535054D01*
X8162065Y-23535054D02*
X8162065Y-23582673D01*
X8162065Y-23582673D02*
X8152542Y-23620768D01*
X8152542Y-23620768D02*
X8143018Y-23639816D01*
X8143018Y-23639816D02*
X8133494Y-23649340D01*
X8133494Y-23649340D02*
X8114446Y-23658864D01*
X8114446Y-23658864D02*
X8095399Y-23658864D01*
X8095399Y-23658864D02*
X8076351Y-23649340D01*
X8076351Y-23649340D02*
X8066827Y-23639816D01*
X8066827Y-23639816D02*
X8057303Y-23620768D01*
X8057303Y-23620768D02*
X8047780Y-23582673D01*
X8047780Y-23582673D02*
X8047780Y-23535054D01*
X8047780Y-23535054D02*
X8057303Y-23496959D01*
X8057303Y-23496959D02*
X8066827Y-23477911D01*
X8066827Y-23477911D02*
X8076351Y-23468388D01*
X8076351Y-23468388D02*
X8095399Y-23458864D01*
X8247780Y-23658864D02*
X8247780Y-23525530D01*
X8247780Y-23544578D02*
X8257303Y-23535054D01*
X8257303Y-23535054D02*
X8276351Y-23525530D01*
X8276351Y-23525530D02*
X8304923Y-23525530D01*
X8304923Y-23525530D02*
X8323970Y-23535054D01*
X8323970Y-23535054D02*
X8333494Y-23554102D01*
X8333494Y-23554102D02*
X8333494Y-23658864D01*
X8333494Y-23554102D02*
X8343018Y-23535054D01*
X8343018Y-23535054D02*
X8362065Y-23525530D01*
X8362065Y-23525530D02*
X8390637Y-23525530D01*
X8390637Y-23525530D02*
X8409685Y-23535054D01*
X8409685Y-23535054D02*
X8419208Y-23554102D01*
X8419208Y-23554102D02*
X8419208Y-23658864D01*
X8514446Y-23658864D02*
X8514446Y-23525530D01*
X8514446Y-23544578D02*
X8523970Y-23535054D01*
X8523970Y-23535054D02*
X8543018Y-23525530D01*
X8543018Y-23525530D02*
X8571589Y-23525530D01*
X8571589Y-23525530D02*
X8590637Y-23535054D01*
X8590637Y-23535054D02*
X8600161Y-23554102D01*
X8600161Y-23554102D02*
X8600161Y-23658864D01*
X8600161Y-23554102D02*
X8609685Y-23535054D01*
X8609685Y-23535054D02*
X8628732Y-23525530D01*
X8628732Y-23525530D02*
X8657304Y-23525530D01*
X8657304Y-23525530D02*
X8676351Y-23535054D01*
X8676351Y-23535054D02*
X8685875Y-23554102D01*
X8685875Y-23554102D02*
X8685875Y-23658864D01*
X9076351Y-23449340D02*
X8904923Y-23706483D01*
X9333494Y-23458864D02*
X9352542Y-23458864D01*
X9352542Y-23458864D02*
X9371589Y-23468388D01*
X9371589Y-23468388D02*
X9381113Y-23477911D01*
X9381113Y-23477911D02*
X9390637Y-23496959D01*
X9390637Y-23496959D02*
X9400161Y-23535054D01*
X9400161Y-23535054D02*
X9400161Y-23582673D01*
X9400161Y-23582673D02*
X9390637Y-23620768D01*
X9390637Y-23620768D02*
X9381113Y-23639816D01*
X9381113Y-23639816D02*
X9371589Y-23649340D01*
X9371589Y-23649340D02*
X9352542Y-23658864D01*
X9352542Y-23658864D02*
X9333494Y-23658864D01*
X9333494Y-23658864D02*
X9314447Y-23649340D01*
X9314447Y-23649340D02*
X9304923Y-23639816D01*
X9304923Y-23639816D02*
X9295399Y-23620768D01*
X9295399Y-23620768D02*
X9285875Y-23582673D01*
X9285875Y-23582673D02*
X9285875Y-23535054D01*
X9285875Y-23535054D02*
X9295399Y-23496959D01*
X9295399Y-23496959D02*
X9304923Y-23477911D01*
X9304923Y-23477911D02*
X9314447Y-23468388D01*
X9314447Y-23468388D02*
X9333494Y-23458864D01*
X9485875Y-23639816D02*
X9495399Y-23649340D01*
X9495399Y-23649340D02*
X9485875Y-23658864D01*
X9485875Y-23658864D02*
X9476351Y-23649340D01*
X9476351Y-23649340D02*
X9485875Y-23639816D01*
X9485875Y-23639816D02*
X9485875Y-23658864D01*
X9619208Y-23458864D02*
X9638256Y-23458864D01*
X9638256Y-23458864D02*
X9657304Y-23468388D01*
X9657304Y-23468388D02*
X9666828Y-23477911D01*
X9666828Y-23477911D02*
X9676351Y-23496959D01*
X9676351Y-23496959D02*
X9685875Y-23535054D01*
X9685875Y-23535054D02*
X9685875Y-23582673D01*
X9685875Y-23582673D02*
X9676351Y-23620768D01*
X9676351Y-23620768D02*
X9666828Y-23639816D01*
X9666828Y-23639816D02*
X9657304Y-23649340D01*
X9657304Y-23649340D02*
X9638256Y-23658864D01*
X9638256Y-23658864D02*
X9619208Y-23658864D01*
X9619208Y-23658864D02*
X9600161Y-23649340D01*
X9600161Y-23649340D02*
X9590637Y-23639816D01*
X9590637Y-23639816D02*
X9581113Y-23620768D01*
X9581113Y-23620768D02*
X9571589Y-23582673D01*
X9571589Y-23582673D02*
X9571589Y-23535054D01*
X9571589Y-23535054D02*
X9581113Y-23496959D01*
X9581113Y-23496959D02*
X9590637Y-23477911D01*
X9590637Y-23477911D02*
X9600161Y-23468388D01*
X9600161Y-23468388D02*
X9619208Y-23458864D01*
X9752542Y-23458864D02*
X9876351Y-23458864D01*
X9876351Y-23458864D02*
X9809685Y-23535054D01*
X9809685Y-23535054D02*
X9838256Y-23535054D01*
X9838256Y-23535054D02*
X9857304Y-23544578D01*
X9857304Y-23544578D02*
X9866828Y-23554102D01*
X9866828Y-23554102D02*
X9876351Y-23573149D01*
X9876351Y-23573149D02*
X9876351Y-23620768D01*
X9876351Y-23620768D02*
X9866828Y-23639816D01*
X9866828Y-23639816D02*
X9857304Y-23649340D01*
X9857304Y-23649340D02*
X9838256Y-23658864D01*
X9838256Y-23658864D02*
X9781113Y-23658864D01*
X9781113Y-23658864D02*
X9762066Y-23649340D01*
X9762066Y-23649340D02*
X9752542Y-23639816D01*
X9971589Y-23658864D02*
X10009685Y-23658864D01*
X10009685Y-23658864D02*
X10028732Y-23649340D01*
X10028732Y-23649340D02*
X10038256Y-23639816D01*
X10038256Y-23639816D02*
X10057304Y-23611245D01*
X10057304Y-23611245D02*
X10066828Y-23573149D01*
X10066828Y-23573149D02*
X10066828Y-23496959D01*
X10066828Y-23496959D02*
X10057304Y-23477911D01*
X10057304Y-23477911D02*
X10047780Y-23468388D01*
X10047780Y-23468388D02*
X10028732Y-23458864D01*
X10028732Y-23458864D02*
X9990637Y-23458864D01*
X9990637Y-23458864D02*
X9971589Y-23468388D01*
X9971589Y-23468388D02*
X9962066Y-23477911D01*
X9962066Y-23477911D02*
X9952542Y-23496959D01*
X9952542Y-23496959D02*
X9952542Y-23544578D01*
X9952542Y-23544578D02*
X9962066Y-23563626D01*
X9962066Y-23563626D02*
X9971589Y-23573149D01*
X9971589Y-23573149D02*
X9990637Y-23582673D01*
X9990637Y-23582673D02*
X10028732Y-23582673D01*
X10028732Y-23582673D02*
X10047780Y-23573149D01*
X10047780Y-23573149D02*
X10057304Y-23563626D01*
X10057304Y-23563626D02*
X10066828Y-23544578D01*
X10238256Y-23525530D02*
X10238256Y-23658864D01*
X10190637Y-23449340D02*
X10143018Y-23592197D01*
X10143018Y-23592197D02*
X10266828Y-23592197D01*
X10333494Y-23458864D02*
X10333494Y-23496959D01*
X10409685Y-23458864D02*
X10409685Y-23496959D01*
X10704923Y-23735054D02*
X10695399Y-23725530D01*
X10695399Y-23725530D02*
X10676351Y-23696959D01*
X10676351Y-23696959D02*
X10666828Y-23677911D01*
X10666828Y-23677911D02*
X10657304Y-23649340D01*
X10657304Y-23649340D02*
X10647780Y-23601721D01*
X10647780Y-23601721D02*
X10647780Y-23563626D01*
X10647780Y-23563626D02*
X10657304Y-23516007D01*
X10657304Y-23516007D02*
X10666828Y-23487435D01*
X10666828Y-23487435D02*
X10676351Y-23468388D01*
X10676351Y-23468388D02*
X10695399Y-23439816D01*
X10695399Y-23439816D02*
X10704923Y-23430292D01*
X10866828Y-23525530D02*
X10866828Y-23658864D01*
X10819209Y-23449340D02*
X10771590Y-23592197D01*
X10771590Y-23592197D02*
X10895399Y-23592197D01*
X11123971Y-23658864D02*
X11123971Y-23458864D01*
X11209685Y-23658864D02*
X11209685Y-23554102D01*
X11209685Y-23554102D02*
X11200161Y-23535054D01*
X11200161Y-23535054D02*
X11181113Y-23525530D01*
X11181113Y-23525530D02*
X11152542Y-23525530D01*
X11152542Y-23525530D02*
X11133494Y-23535054D01*
X11133494Y-23535054D02*
X11123971Y-23544578D01*
X11333494Y-23658864D02*
X11314447Y-23649340D01*
X11314447Y-23649340D02*
X11304923Y-23639816D01*
X11304923Y-23639816D02*
X11295399Y-23620768D01*
X11295399Y-23620768D02*
X11295399Y-23563626D01*
X11295399Y-23563626D02*
X11304923Y-23544578D01*
X11304923Y-23544578D02*
X11314447Y-23535054D01*
X11314447Y-23535054D02*
X11333494Y-23525530D01*
X11333494Y-23525530D02*
X11362066Y-23525530D01*
X11362066Y-23525530D02*
X11381113Y-23535054D01*
X11381113Y-23535054D02*
X11390637Y-23544578D01*
X11390637Y-23544578D02*
X11400161Y-23563626D01*
X11400161Y-23563626D02*
X11400161Y-23620768D01*
X11400161Y-23620768D02*
X11390637Y-23639816D01*
X11390637Y-23639816D02*
X11381113Y-23649340D01*
X11381113Y-23649340D02*
X11362066Y-23658864D01*
X11362066Y-23658864D02*
X11333494Y-23658864D01*
X11514447Y-23658864D02*
X11495399Y-23649340D01*
X11495399Y-23649340D02*
X11485875Y-23630292D01*
X11485875Y-23630292D02*
X11485875Y-23458864D01*
X11666828Y-23649340D02*
X11647780Y-23658864D01*
X11647780Y-23658864D02*
X11609685Y-23658864D01*
X11609685Y-23658864D02*
X11590637Y-23649340D01*
X11590637Y-23649340D02*
X11581113Y-23630292D01*
X11581113Y-23630292D02*
X11581113Y-23554102D01*
X11581113Y-23554102D02*
X11590637Y-23535054D01*
X11590637Y-23535054D02*
X11609685Y-23525530D01*
X11609685Y-23525530D02*
X11647780Y-23525530D01*
X11647780Y-23525530D02*
X11666828Y-23535054D01*
X11666828Y-23535054D02*
X11676351Y-23554102D01*
X11676351Y-23554102D02*
X11676351Y-23573149D01*
X11676351Y-23573149D02*
X11581113Y-23592197D01*
X11752542Y-23649340D02*
X11771590Y-23658864D01*
X11771590Y-23658864D02*
X11809685Y-23658864D01*
X11809685Y-23658864D02*
X11828732Y-23649340D01*
X11828732Y-23649340D02*
X11838256Y-23630292D01*
X11838256Y-23630292D02*
X11838256Y-23620768D01*
X11838256Y-23620768D02*
X11828732Y-23601721D01*
X11828732Y-23601721D02*
X11809685Y-23592197D01*
X11809685Y-23592197D02*
X11781113Y-23592197D01*
X11781113Y-23592197D02*
X11762066Y-23582673D01*
X11762066Y-23582673D02*
X11752542Y-23563626D01*
X11752542Y-23563626D02*
X11752542Y-23554102D01*
X11752542Y-23554102D02*
X11762066Y-23535054D01*
X11762066Y-23535054D02*
X11781113Y-23525530D01*
X11781113Y-23525530D02*
X11809685Y-23525530D01*
X11809685Y-23525530D02*
X11828732Y-23535054D01*
X11904923Y-23735054D02*
X11914447Y-23725530D01*
X11914447Y-23725530D02*
X11933494Y-23696959D01*
X11933494Y-23696959D02*
X11943018Y-23677911D01*
X11943018Y-23677911D02*
X11952542Y-23649340D01*
X11952542Y-23649340D02*
X11962066Y-23601721D01*
X11962066Y-23601721D02*
X11962066Y-23563626D01*
X11962066Y-23563626D02*
X11952542Y-23516007D01*
X11952542Y-23516007D02*
X11943018Y-23487435D01*
X11943018Y-23487435D02*
X11933494Y-23468388D01*
X11933494Y-23468388D02*
X11914447Y-23439816D01*
X11914447Y-23439816D02*
X11904923Y-23430292D01*
D12*
X7113751Y-23870271D02*
X7113751Y-23792489D01*
X7035969Y-23792489D01*
X7035969Y-23870271D01*
X7113751Y-23870271D01*
D11*
X7495399Y-23922864D02*
X7381113Y-23922864D01*
X7438256Y-23922864D02*
X7438256Y-23722864D01*
X7438256Y-23722864D02*
X7419208Y-23751435D01*
X7419208Y-23751435D02*
X7400161Y-23770483D01*
X7400161Y-23770483D02*
X7381113Y-23780007D01*
X7581113Y-23903816D02*
X7590637Y-23913340D01*
X7590637Y-23913340D02*
X7581113Y-23922864D01*
X7581113Y-23922864D02*
X7571589Y-23913340D01*
X7571589Y-23913340D02*
X7581113Y-23903816D01*
X7581113Y-23903816D02*
X7581113Y-23922864D01*
X7781113Y-23922864D02*
X7666827Y-23922864D01*
X7723970Y-23922864D02*
X7723970Y-23722864D01*
X7723970Y-23722864D02*
X7704922Y-23751435D01*
X7704922Y-23751435D02*
X7685875Y-23770483D01*
X7685875Y-23770483D02*
X7666827Y-23780007D01*
X7904922Y-23722864D02*
X7923970Y-23722864D01*
X7923970Y-23722864D02*
X7943018Y-23732388D01*
X7943018Y-23732388D02*
X7952542Y-23741911D01*
X7952542Y-23741911D02*
X7962065Y-23760959D01*
X7962065Y-23760959D02*
X7971589Y-23799054D01*
X7971589Y-23799054D02*
X7971589Y-23846673D01*
X7971589Y-23846673D02*
X7962065Y-23884768D01*
X7962065Y-23884768D02*
X7952542Y-23903816D01*
X7952542Y-23903816D02*
X7943018Y-23913340D01*
X7943018Y-23913340D02*
X7923970Y-23922864D01*
X7923970Y-23922864D02*
X7904922Y-23922864D01*
X7904922Y-23922864D02*
X7885875Y-23913340D01*
X7885875Y-23913340D02*
X7876351Y-23903816D01*
X7876351Y-23903816D02*
X7866827Y-23884768D01*
X7866827Y-23884768D02*
X7857303Y-23846673D01*
X7857303Y-23846673D02*
X7857303Y-23799054D01*
X7857303Y-23799054D02*
X7866827Y-23760959D01*
X7866827Y-23760959D02*
X7876351Y-23741911D01*
X7876351Y-23741911D02*
X7885875Y-23732388D01*
X7885875Y-23732388D02*
X7904922Y-23722864D01*
X8095399Y-23722864D02*
X8114446Y-23722864D01*
X8114446Y-23722864D02*
X8133494Y-23732388D01*
X8133494Y-23732388D02*
X8143018Y-23741911D01*
X8143018Y-23741911D02*
X8152542Y-23760959D01*
X8152542Y-23760959D02*
X8162065Y-23799054D01*
X8162065Y-23799054D02*
X8162065Y-23846673D01*
X8162065Y-23846673D02*
X8152542Y-23884768D01*
X8152542Y-23884768D02*
X8143018Y-23903816D01*
X8143018Y-23903816D02*
X8133494Y-23913340D01*
X8133494Y-23913340D02*
X8114446Y-23922864D01*
X8114446Y-23922864D02*
X8095399Y-23922864D01*
X8095399Y-23922864D02*
X8076351Y-23913340D01*
X8076351Y-23913340D02*
X8066827Y-23903816D01*
X8066827Y-23903816D02*
X8057303Y-23884768D01*
X8057303Y-23884768D02*
X8047780Y-23846673D01*
X8047780Y-23846673D02*
X8047780Y-23799054D01*
X8047780Y-23799054D02*
X8057303Y-23760959D01*
X8057303Y-23760959D02*
X8066827Y-23741911D01*
X8066827Y-23741911D02*
X8076351Y-23732388D01*
X8076351Y-23732388D02*
X8095399Y-23722864D01*
X8247780Y-23922864D02*
X8247780Y-23789530D01*
X8247780Y-23808578D02*
X8257303Y-23799054D01*
X8257303Y-23799054D02*
X8276351Y-23789530D01*
X8276351Y-23789530D02*
X8304923Y-23789530D01*
X8304923Y-23789530D02*
X8323970Y-23799054D01*
X8323970Y-23799054D02*
X8333494Y-23818102D01*
X8333494Y-23818102D02*
X8333494Y-23922864D01*
X8333494Y-23818102D02*
X8343018Y-23799054D01*
X8343018Y-23799054D02*
X8362065Y-23789530D01*
X8362065Y-23789530D02*
X8390637Y-23789530D01*
X8390637Y-23789530D02*
X8409685Y-23799054D01*
X8409685Y-23799054D02*
X8419208Y-23818102D01*
X8419208Y-23818102D02*
X8419208Y-23922864D01*
X8514446Y-23922864D02*
X8514446Y-23789530D01*
X8514446Y-23808578D02*
X8523970Y-23799054D01*
X8523970Y-23799054D02*
X8543018Y-23789530D01*
X8543018Y-23789530D02*
X8571589Y-23789530D01*
X8571589Y-23789530D02*
X8590637Y-23799054D01*
X8590637Y-23799054D02*
X8600161Y-23818102D01*
X8600161Y-23818102D02*
X8600161Y-23922864D01*
X8600161Y-23818102D02*
X8609685Y-23799054D01*
X8609685Y-23799054D02*
X8628732Y-23789530D01*
X8628732Y-23789530D02*
X8657304Y-23789530D01*
X8657304Y-23789530D02*
X8676351Y-23799054D01*
X8676351Y-23799054D02*
X8685875Y-23818102D01*
X8685875Y-23818102D02*
X8685875Y-23922864D01*
X9076351Y-23713340D02*
X8904923Y-23970483D01*
X9333494Y-23722864D02*
X9352542Y-23722864D01*
X9352542Y-23722864D02*
X9371589Y-23732388D01*
X9371589Y-23732388D02*
X9381113Y-23741911D01*
X9381113Y-23741911D02*
X9390637Y-23760959D01*
X9390637Y-23760959D02*
X9400161Y-23799054D01*
X9400161Y-23799054D02*
X9400161Y-23846673D01*
X9400161Y-23846673D02*
X9390637Y-23884768D01*
X9390637Y-23884768D02*
X9381113Y-23903816D01*
X9381113Y-23903816D02*
X9371589Y-23913340D01*
X9371589Y-23913340D02*
X9352542Y-23922864D01*
X9352542Y-23922864D02*
X9333494Y-23922864D01*
X9333494Y-23922864D02*
X9314447Y-23913340D01*
X9314447Y-23913340D02*
X9304923Y-23903816D01*
X9304923Y-23903816D02*
X9295399Y-23884768D01*
X9295399Y-23884768D02*
X9285875Y-23846673D01*
X9285875Y-23846673D02*
X9285875Y-23799054D01*
X9285875Y-23799054D02*
X9295399Y-23760959D01*
X9295399Y-23760959D02*
X9304923Y-23741911D01*
X9304923Y-23741911D02*
X9314447Y-23732388D01*
X9314447Y-23732388D02*
X9333494Y-23722864D01*
X9485875Y-23903816D02*
X9495399Y-23913340D01*
X9495399Y-23913340D02*
X9485875Y-23922864D01*
X9485875Y-23922864D02*
X9476351Y-23913340D01*
X9476351Y-23913340D02*
X9485875Y-23903816D01*
X9485875Y-23903816D02*
X9485875Y-23922864D01*
X9619208Y-23722864D02*
X9638256Y-23722864D01*
X9638256Y-23722864D02*
X9657304Y-23732388D01*
X9657304Y-23732388D02*
X9666828Y-23741911D01*
X9666828Y-23741911D02*
X9676351Y-23760959D01*
X9676351Y-23760959D02*
X9685875Y-23799054D01*
X9685875Y-23799054D02*
X9685875Y-23846673D01*
X9685875Y-23846673D02*
X9676351Y-23884768D01*
X9676351Y-23884768D02*
X9666828Y-23903816D01*
X9666828Y-23903816D02*
X9657304Y-23913340D01*
X9657304Y-23913340D02*
X9638256Y-23922864D01*
X9638256Y-23922864D02*
X9619208Y-23922864D01*
X9619208Y-23922864D02*
X9600161Y-23913340D01*
X9600161Y-23913340D02*
X9590637Y-23903816D01*
X9590637Y-23903816D02*
X9581113Y-23884768D01*
X9581113Y-23884768D02*
X9571589Y-23846673D01*
X9571589Y-23846673D02*
X9571589Y-23799054D01*
X9571589Y-23799054D02*
X9581113Y-23760959D01*
X9581113Y-23760959D02*
X9590637Y-23741911D01*
X9590637Y-23741911D02*
X9600161Y-23732388D01*
X9600161Y-23732388D02*
X9619208Y-23722864D01*
X9857304Y-23789530D02*
X9857304Y-23922864D01*
X9809685Y-23713340D02*
X9762066Y-23856197D01*
X9762066Y-23856197D02*
X9885875Y-23856197D01*
X9943018Y-23722864D02*
X10066828Y-23722864D01*
X10066828Y-23722864D02*
X10000161Y-23799054D01*
X10000161Y-23799054D02*
X10028732Y-23799054D01*
X10028732Y-23799054D02*
X10047780Y-23808578D01*
X10047780Y-23808578D02*
X10057304Y-23818102D01*
X10057304Y-23818102D02*
X10066828Y-23837149D01*
X10066828Y-23837149D02*
X10066828Y-23884768D01*
X10066828Y-23884768D02*
X10057304Y-23903816D01*
X10057304Y-23903816D02*
X10047780Y-23913340D01*
X10047780Y-23913340D02*
X10028732Y-23922864D01*
X10028732Y-23922864D02*
X9971589Y-23922864D01*
X9971589Y-23922864D02*
X9952542Y-23913340D01*
X9952542Y-23913340D02*
X9943018Y-23903816D01*
X10133494Y-23722864D02*
X10257304Y-23722864D01*
X10257304Y-23722864D02*
X10190637Y-23799054D01*
X10190637Y-23799054D02*
X10219209Y-23799054D01*
X10219209Y-23799054D02*
X10238256Y-23808578D01*
X10238256Y-23808578D02*
X10247780Y-23818102D01*
X10247780Y-23818102D02*
X10257304Y-23837149D01*
X10257304Y-23837149D02*
X10257304Y-23884768D01*
X10257304Y-23884768D02*
X10247780Y-23903816D01*
X10247780Y-23903816D02*
X10238256Y-23913340D01*
X10238256Y-23913340D02*
X10219209Y-23922864D01*
X10219209Y-23922864D02*
X10162066Y-23922864D01*
X10162066Y-23922864D02*
X10143018Y-23913340D01*
X10143018Y-23913340D02*
X10133494Y-23903816D01*
X10333494Y-23722864D02*
X10333494Y-23760959D01*
X10409685Y-23722864D02*
X10409685Y-23760959D01*
X10704923Y-23999054D02*
X10695399Y-23989530D01*
X10695399Y-23989530D02*
X10676351Y-23960959D01*
X10676351Y-23960959D02*
X10666828Y-23941911D01*
X10666828Y-23941911D02*
X10657304Y-23913340D01*
X10657304Y-23913340D02*
X10647780Y-23865721D01*
X10647780Y-23865721D02*
X10647780Y-23827626D01*
X10647780Y-23827626D02*
X10657304Y-23780007D01*
X10657304Y-23780007D02*
X10666828Y-23751435D01*
X10666828Y-23751435D02*
X10676351Y-23732388D01*
X10676351Y-23732388D02*
X10695399Y-23703816D01*
X10695399Y-23703816D02*
X10704923Y-23694292D01*
X10885875Y-23922864D02*
X10771590Y-23922864D01*
X10828732Y-23922864D02*
X10828732Y-23722864D01*
X10828732Y-23722864D02*
X10809685Y-23751435D01*
X10809685Y-23751435D02*
X10790637Y-23770483D01*
X10790637Y-23770483D02*
X10771590Y-23780007D01*
X10981113Y-23922864D02*
X11019209Y-23922864D01*
X11019209Y-23922864D02*
X11038256Y-23913340D01*
X11038256Y-23913340D02*
X11047780Y-23903816D01*
X11047780Y-23903816D02*
X11066828Y-23875245D01*
X11066828Y-23875245D02*
X11076351Y-23837149D01*
X11076351Y-23837149D02*
X11076351Y-23760959D01*
X11076351Y-23760959D02*
X11066828Y-23741911D01*
X11066828Y-23741911D02*
X11057304Y-23732388D01*
X11057304Y-23732388D02*
X11038256Y-23722864D01*
X11038256Y-23722864D02*
X11000161Y-23722864D01*
X11000161Y-23722864D02*
X10981113Y-23732388D01*
X10981113Y-23732388D02*
X10971590Y-23741911D01*
X10971590Y-23741911D02*
X10962066Y-23760959D01*
X10962066Y-23760959D02*
X10962066Y-23808578D01*
X10962066Y-23808578D02*
X10971590Y-23827626D01*
X10971590Y-23827626D02*
X10981113Y-23837149D01*
X10981113Y-23837149D02*
X11000161Y-23846673D01*
X11000161Y-23846673D02*
X11038256Y-23846673D01*
X11038256Y-23846673D02*
X11057304Y-23837149D01*
X11057304Y-23837149D02*
X11066828Y-23827626D01*
X11066828Y-23827626D02*
X11076351Y-23808578D01*
X11314447Y-23922864D02*
X11314447Y-23722864D01*
X11400161Y-23922864D02*
X11400161Y-23818102D01*
X11400161Y-23818102D02*
X11390637Y-23799054D01*
X11390637Y-23799054D02*
X11371590Y-23789530D01*
X11371590Y-23789530D02*
X11343018Y-23789530D01*
X11343018Y-23789530D02*
X11323970Y-23799054D01*
X11323970Y-23799054D02*
X11314447Y-23808578D01*
X11523970Y-23922864D02*
X11504923Y-23913340D01*
X11504923Y-23913340D02*
X11495399Y-23903816D01*
X11495399Y-23903816D02*
X11485875Y-23884768D01*
X11485875Y-23884768D02*
X11485875Y-23827626D01*
X11485875Y-23827626D02*
X11495399Y-23808578D01*
X11495399Y-23808578D02*
X11504923Y-23799054D01*
X11504923Y-23799054D02*
X11523970Y-23789530D01*
X11523970Y-23789530D02*
X11552542Y-23789530D01*
X11552542Y-23789530D02*
X11571590Y-23799054D01*
X11571590Y-23799054D02*
X11581113Y-23808578D01*
X11581113Y-23808578D02*
X11590637Y-23827626D01*
X11590637Y-23827626D02*
X11590637Y-23884768D01*
X11590637Y-23884768D02*
X11581113Y-23903816D01*
X11581113Y-23903816D02*
X11571590Y-23913340D01*
X11571590Y-23913340D02*
X11552542Y-23922864D01*
X11552542Y-23922864D02*
X11523970Y-23922864D01*
X11704923Y-23922864D02*
X11685875Y-23913340D01*
X11685875Y-23913340D02*
X11676351Y-23894292D01*
X11676351Y-23894292D02*
X11676351Y-23722864D01*
X11857304Y-23913340D02*
X11838256Y-23922864D01*
X11838256Y-23922864D02*
X11800161Y-23922864D01*
X11800161Y-23922864D02*
X11781113Y-23913340D01*
X11781113Y-23913340D02*
X11771590Y-23894292D01*
X11771590Y-23894292D02*
X11771590Y-23818102D01*
X11771590Y-23818102D02*
X11781113Y-23799054D01*
X11781113Y-23799054D02*
X11800161Y-23789530D01*
X11800161Y-23789530D02*
X11838256Y-23789530D01*
X11838256Y-23789530D02*
X11857304Y-23799054D01*
X11857304Y-23799054D02*
X11866828Y-23818102D01*
X11866828Y-23818102D02*
X11866828Y-23837149D01*
X11866828Y-23837149D02*
X11771590Y-23856197D01*
X11943018Y-23913340D02*
X11962066Y-23922864D01*
X11962066Y-23922864D02*
X12000161Y-23922864D01*
X12000161Y-23922864D02*
X12019209Y-23913340D01*
X12019209Y-23913340D02*
X12028732Y-23894292D01*
X12028732Y-23894292D02*
X12028732Y-23884768D01*
X12028732Y-23884768D02*
X12019209Y-23865721D01*
X12019209Y-23865721D02*
X12000161Y-23856197D01*
X12000161Y-23856197D02*
X11971590Y-23856197D01*
X11971590Y-23856197D02*
X11952542Y-23846673D01*
X11952542Y-23846673D02*
X11943018Y-23827626D01*
X11943018Y-23827626D02*
X11943018Y-23818102D01*
X11943018Y-23818102D02*
X11952542Y-23799054D01*
X11952542Y-23799054D02*
X11971590Y-23789530D01*
X11971590Y-23789530D02*
X12000161Y-23789530D01*
X12000161Y-23789530D02*
X12019209Y-23799054D01*
X12095399Y-23999054D02*
X12104923Y-23989530D01*
X12104923Y-23989530D02*
X12123971Y-23960959D01*
X12123971Y-23960959D02*
X12133494Y-23941911D01*
X12133494Y-23941911D02*
X12143018Y-23913340D01*
X12143018Y-23913340D02*
X12152542Y-23865721D01*
X12152542Y-23865721D02*
X12152542Y-23827626D01*
X12152542Y-23827626D02*
X12143018Y-23780007D01*
X12143018Y-23780007D02*
X12133494Y-23751435D01*
X12133494Y-23751435D02*
X12123971Y-23732388D01*
X12123971Y-23732388D02*
X12104923Y-23703816D01*
X12104923Y-23703816D02*
X12095399Y-23694292D01*
D13*
X7069860Y-24155380D02*
X7129860Y-24095380D01*
X7069860Y-24035380D01*
X7009860Y-24095380D01*
X7069860Y-24155380D01*
D11*
X7495399Y-24186864D02*
X7381113Y-24186864D01*
X7438256Y-24186864D02*
X7438256Y-23986864D01*
X7438256Y-23986864D02*
X7419208Y-24015435D01*
X7419208Y-24015435D02*
X7400161Y-24034483D01*
X7400161Y-24034483D02*
X7381113Y-24044007D01*
X7581113Y-24167816D02*
X7590637Y-24177340D01*
X7590637Y-24177340D02*
X7581113Y-24186864D01*
X7581113Y-24186864D02*
X7571589Y-24177340D01*
X7571589Y-24177340D02*
X7581113Y-24167816D01*
X7581113Y-24167816D02*
X7581113Y-24186864D01*
X7666827Y-24005911D02*
X7676351Y-23996388D01*
X7676351Y-23996388D02*
X7695399Y-23986864D01*
X7695399Y-23986864D02*
X7743018Y-23986864D01*
X7743018Y-23986864D02*
X7762065Y-23996388D01*
X7762065Y-23996388D02*
X7771589Y-24005911D01*
X7771589Y-24005911D02*
X7781113Y-24024959D01*
X7781113Y-24024959D02*
X7781113Y-24044007D01*
X7781113Y-24044007D02*
X7771589Y-24072578D01*
X7771589Y-24072578D02*
X7657303Y-24186864D01*
X7657303Y-24186864D02*
X7781113Y-24186864D01*
X7904922Y-23986864D02*
X7923970Y-23986864D01*
X7923970Y-23986864D02*
X7943018Y-23996388D01*
X7943018Y-23996388D02*
X7952542Y-24005911D01*
X7952542Y-24005911D02*
X7962065Y-24024959D01*
X7962065Y-24024959D02*
X7971589Y-24063054D01*
X7971589Y-24063054D02*
X7971589Y-24110673D01*
X7971589Y-24110673D02*
X7962065Y-24148768D01*
X7962065Y-24148768D02*
X7952542Y-24167816D01*
X7952542Y-24167816D02*
X7943018Y-24177340D01*
X7943018Y-24177340D02*
X7923970Y-24186864D01*
X7923970Y-24186864D02*
X7904922Y-24186864D01*
X7904922Y-24186864D02*
X7885875Y-24177340D01*
X7885875Y-24177340D02*
X7876351Y-24167816D01*
X7876351Y-24167816D02*
X7866827Y-24148768D01*
X7866827Y-24148768D02*
X7857303Y-24110673D01*
X7857303Y-24110673D02*
X7857303Y-24063054D01*
X7857303Y-24063054D02*
X7866827Y-24024959D01*
X7866827Y-24024959D02*
X7876351Y-24005911D01*
X7876351Y-24005911D02*
X7885875Y-23996388D01*
X7885875Y-23996388D02*
X7904922Y-23986864D01*
X8095399Y-23986864D02*
X8114446Y-23986864D01*
X8114446Y-23986864D02*
X8133494Y-23996388D01*
X8133494Y-23996388D02*
X8143018Y-24005911D01*
X8143018Y-24005911D02*
X8152542Y-24024959D01*
X8152542Y-24024959D02*
X8162065Y-24063054D01*
X8162065Y-24063054D02*
X8162065Y-24110673D01*
X8162065Y-24110673D02*
X8152542Y-24148768D01*
X8152542Y-24148768D02*
X8143018Y-24167816D01*
X8143018Y-24167816D02*
X8133494Y-24177340D01*
X8133494Y-24177340D02*
X8114446Y-24186864D01*
X8114446Y-24186864D02*
X8095399Y-24186864D01*
X8095399Y-24186864D02*
X8076351Y-24177340D01*
X8076351Y-24177340D02*
X8066827Y-24167816D01*
X8066827Y-24167816D02*
X8057303Y-24148768D01*
X8057303Y-24148768D02*
X8047780Y-24110673D01*
X8047780Y-24110673D02*
X8047780Y-24063054D01*
X8047780Y-24063054D02*
X8057303Y-24024959D01*
X8057303Y-24024959D02*
X8066827Y-24005911D01*
X8066827Y-24005911D02*
X8076351Y-23996388D01*
X8076351Y-23996388D02*
X8095399Y-23986864D01*
X8247780Y-24186864D02*
X8247780Y-24053530D01*
X8247780Y-24072578D02*
X8257303Y-24063054D01*
X8257303Y-24063054D02*
X8276351Y-24053530D01*
X8276351Y-24053530D02*
X8304923Y-24053530D01*
X8304923Y-24053530D02*
X8323970Y-24063054D01*
X8323970Y-24063054D02*
X8333494Y-24082102D01*
X8333494Y-24082102D02*
X8333494Y-24186864D01*
X8333494Y-24082102D02*
X8343018Y-24063054D01*
X8343018Y-24063054D02*
X8362065Y-24053530D01*
X8362065Y-24053530D02*
X8390637Y-24053530D01*
X8390637Y-24053530D02*
X8409685Y-24063054D01*
X8409685Y-24063054D02*
X8419208Y-24082102D01*
X8419208Y-24082102D02*
X8419208Y-24186864D01*
X8514446Y-24186864D02*
X8514446Y-24053530D01*
X8514446Y-24072578D02*
X8523970Y-24063054D01*
X8523970Y-24063054D02*
X8543018Y-24053530D01*
X8543018Y-24053530D02*
X8571589Y-24053530D01*
X8571589Y-24053530D02*
X8590637Y-24063054D01*
X8590637Y-24063054D02*
X8600161Y-24082102D01*
X8600161Y-24082102D02*
X8600161Y-24186864D01*
X8600161Y-24082102D02*
X8609685Y-24063054D01*
X8609685Y-24063054D02*
X8628732Y-24053530D01*
X8628732Y-24053530D02*
X8657304Y-24053530D01*
X8657304Y-24053530D02*
X8676351Y-24063054D01*
X8676351Y-24063054D02*
X8685875Y-24082102D01*
X8685875Y-24082102D02*
X8685875Y-24186864D01*
X9076351Y-23977340D02*
X8904923Y-24234483D01*
X9333494Y-23986864D02*
X9352542Y-23986864D01*
X9352542Y-23986864D02*
X9371589Y-23996388D01*
X9371589Y-23996388D02*
X9381113Y-24005911D01*
X9381113Y-24005911D02*
X9390637Y-24024959D01*
X9390637Y-24024959D02*
X9400161Y-24063054D01*
X9400161Y-24063054D02*
X9400161Y-24110673D01*
X9400161Y-24110673D02*
X9390637Y-24148768D01*
X9390637Y-24148768D02*
X9381113Y-24167816D01*
X9381113Y-24167816D02*
X9371589Y-24177340D01*
X9371589Y-24177340D02*
X9352542Y-24186864D01*
X9352542Y-24186864D02*
X9333494Y-24186864D01*
X9333494Y-24186864D02*
X9314447Y-24177340D01*
X9314447Y-24177340D02*
X9304923Y-24167816D01*
X9304923Y-24167816D02*
X9295399Y-24148768D01*
X9295399Y-24148768D02*
X9285875Y-24110673D01*
X9285875Y-24110673D02*
X9285875Y-24063054D01*
X9285875Y-24063054D02*
X9295399Y-24024959D01*
X9295399Y-24024959D02*
X9304923Y-24005911D01*
X9304923Y-24005911D02*
X9314447Y-23996388D01*
X9314447Y-23996388D02*
X9333494Y-23986864D01*
X9485875Y-24167816D02*
X9495399Y-24177340D01*
X9495399Y-24177340D02*
X9485875Y-24186864D01*
X9485875Y-24186864D02*
X9476351Y-24177340D01*
X9476351Y-24177340D02*
X9485875Y-24167816D01*
X9485875Y-24167816D02*
X9485875Y-24186864D01*
X9619208Y-23986864D02*
X9638256Y-23986864D01*
X9638256Y-23986864D02*
X9657304Y-23996388D01*
X9657304Y-23996388D02*
X9666828Y-24005911D01*
X9666828Y-24005911D02*
X9676351Y-24024959D01*
X9676351Y-24024959D02*
X9685875Y-24063054D01*
X9685875Y-24063054D02*
X9685875Y-24110673D01*
X9685875Y-24110673D02*
X9676351Y-24148768D01*
X9676351Y-24148768D02*
X9666828Y-24167816D01*
X9666828Y-24167816D02*
X9657304Y-24177340D01*
X9657304Y-24177340D02*
X9638256Y-24186864D01*
X9638256Y-24186864D02*
X9619208Y-24186864D01*
X9619208Y-24186864D02*
X9600161Y-24177340D01*
X9600161Y-24177340D02*
X9590637Y-24167816D01*
X9590637Y-24167816D02*
X9581113Y-24148768D01*
X9581113Y-24148768D02*
X9571589Y-24110673D01*
X9571589Y-24110673D02*
X9571589Y-24063054D01*
X9571589Y-24063054D02*
X9581113Y-24024959D01*
X9581113Y-24024959D02*
X9590637Y-24005911D01*
X9590637Y-24005911D02*
X9600161Y-23996388D01*
X9600161Y-23996388D02*
X9619208Y-23986864D01*
X9857304Y-24053530D02*
X9857304Y-24186864D01*
X9809685Y-23977340D02*
X9762066Y-24120197D01*
X9762066Y-24120197D02*
X9885875Y-24120197D01*
X9943018Y-23986864D02*
X10076351Y-23986864D01*
X10076351Y-23986864D02*
X9990637Y-24186864D01*
X10143018Y-24005911D02*
X10152542Y-23996388D01*
X10152542Y-23996388D02*
X10171589Y-23986864D01*
X10171589Y-23986864D02*
X10219209Y-23986864D01*
X10219209Y-23986864D02*
X10238256Y-23996388D01*
X10238256Y-23996388D02*
X10247780Y-24005911D01*
X10247780Y-24005911D02*
X10257304Y-24024959D01*
X10257304Y-24024959D02*
X10257304Y-24044007D01*
X10257304Y-24044007D02*
X10247780Y-24072578D01*
X10247780Y-24072578D02*
X10133494Y-24186864D01*
X10133494Y-24186864D02*
X10257304Y-24186864D01*
X10333494Y-23986864D02*
X10333494Y-24024959D01*
X10409685Y-23986864D02*
X10409685Y-24024959D01*
X10704923Y-24263054D02*
X10695399Y-24253530D01*
X10695399Y-24253530D02*
X10676351Y-24224959D01*
X10676351Y-24224959D02*
X10666828Y-24205911D01*
X10666828Y-24205911D02*
X10657304Y-24177340D01*
X10657304Y-24177340D02*
X10647780Y-24129721D01*
X10647780Y-24129721D02*
X10647780Y-24091626D01*
X10647780Y-24091626D02*
X10657304Y-24044007D01*
X10657304Y-24044007D02*
X10666828Y-24015435D01*
X10666828Y-24015435D02*
X10676351Y-23996388D01*
X10676351Y-23996388D02*
X10695399Y-23967816D01*
X10695399Y-23967816D02*
X10704923Y-23958292D01*
X10866828Y-23986864D02*
X10828732Y-23986864D01*
X10828732Y-23986864D02*
X10809685Y-23996388D01*
X10809685Y-23996388D02*
X10800161Y-24005911D01*
X10800161Y-24005911D02*
X10781113Y-24034483D01*
X10781113Y-24034483D02*
X10771590Y-24072578D01*
X10771590Y-24072578D02*
X10771590Y-24148768D01*
X10771590Y-24148768D02*
X10781113Y-24167816D01*
X10781113Y-24167816D02*
X10790637Y-24177340D01*
X10790637Y-24177340D02*
X10809685Y-24186864D01*
X10809685Y-24186864D02*
X10847780Y-24186864D01*
X10847780Y-24186864D02*
X10866828Y-24177340D01*
X10866828Y-24177340D02*
X10876351Y-24167816D01*
X10876351Y-24167816D02*
X10885875Y-24148768D01*
X10885875Y-24148768D02*
X10885875Y-24101149D01*
X10885875Y-24101149D02*
X10876351Y-24082102D01*
X10876351Y-24082102D02*
X10866828Y-24072578D01*
X10866828Y-24072578D02*
X10847780Y-24063054D01*
X10847780Y-24063054D02*
X10809685Y-24063054D01*
X10809685Y-24063054D02*
X10790637Y-24072578D01*
X10790637Y-24072578D02*
X10781113Y-24082102D01*
X10781113Y-24082102D02*
X10771590Y-24101149D01*
X11123971Y-24186864D02*
X11123971Y-23986864D01*
X11209685Y-24186864D02*
X11209685Y-24082102D01*
X11209685Y-24082102D02*
X11200161Y-24063054D01*
X11200161Y-24063054D02*
X11181113Y-24053530D01*
X11181113Y-24053530D02*
X11152542Y-24053530D01*
X11152542Y-24053530D02*
X11133494Y-24063054D01*
X11133494Y-24063054D02*
X11123971Y-24072578D01*
X11333494Y-24186864D02*
X11314447Y-24177340D01*
X11314447Y-24177340D02*
X11304923Y-24167816D01*
X11304923Y-24167816D02*
X11295399Y-24148768D01*
X11295399Y-24148768D02*
X11295399Y-24091626D01*
X11295399Y-24091626D02*
X11304923Y-24072578D01*
X11304923Y-24072578D02*
X11314447Y-24063054D01*
X11314447Y-24063054D02*
X11333494Y-24053530D01*
X11333494Y-24053530D02*
X11362066Y-24053530D01*
X11362066Y-24053530D02*
X11381113Y-24063054D01*
X11381113Y-24063054D02*
X11390637Y-24072578D01*
X11390637Y-24072578D02*
X11400161Y-24091626D01*
X11400161Y-24091626D02*
X11400161Y-24148768D01*
X11400161Y-24148768D02*
X11390637Y-24167816D01*
X11390637Y-24167816D02*
X11381113Y-24177340D01*
X11381113Y-24177340D02*
X11362066Y-24186864D01*
X11362066Y-24186864D02*
X11333494Y-24186864D01*
X11514447Y-24186864D02*
X11495399Y-24177340D01*
X11495399Y-24177340D02*
X11485875Y-24158292D01*
X11485875Y-24158292D02*
X11485875Y-23986864D01*
X11666828Y-24177340D02*
X11647780Y-24186864D01*
X11647780Y-24186864D02*
X11609685Y-24186864D01*
X11609685Y-24186864D02*
X11590637Y-24177340D01*
X11590637Y-24177340D02*
X11581113Y-24158292D01*
X11581113Y-24158292D02*
X11581113Y-24082102D01*
X11581113Y-24082102D02*
X11590637Y-24063054D01*
X11590637Y-24063054D02*
X11609685Y-24053530D01*
X11609685Y-24053530D02*
X11647780Y-24053530D01*
X11647780Y-24053530D02*
X11666828Y-24063054D01*
X11666828Y-24063054D02*
X11676351Y-24082102D01*
X11676351Y-24082102D02*
X11676351Y-24101149D01*
X11676351Y-24101149D02*
X11581113Y-24120197D01*
X11752542Y-24177340D02*
X11771590Y-24186864D01*
X11771590Y-24186864D02*
X11809685Y-24186864D01*
X11809685Y-24186864D02*
X11828732Y-24177340D01*
X11828732Y-24177340D02*
X11838256Y-24158292D01*
X11838256Y-24158292D02*
X11838256Y-24148768D01*
X11838256Y-24148768D02*
X11828732Y-24129721D01*
X11828732Y-24129721D02*
X11809685Y-24120197D01*
X11809685Y-24120197D02*
X11781113Y-24120197D01*
X11781113Y-24120197D02*
X11762066Y-24110673D01*
X11762066Y-24110673D02*
X11752542Y-24091626D01*
X11752542Y-24091626D02*
X11752542Y-24082102D01*
X11752542Y-24082102D02*
X11762066Y-24063054D01*
X11762066Y-24063054D02*
X11781113Y-24053530D01*
X11781113Y-24053530D02*
X11809685Y-24053530D01*
X11809685Y-24053530D02*
X11828732Y-24063054D01*
X11904923Y-24263054D02*
X11914447Y-24253530D01*
X11914447Y-24253530D02*
X11933494Y-24224959D01*
X11933494Y-24224959D02*
X11943018Y-24205911D01*
X11943018Y-24205911D02*
X11952542Y-24177340D01*
X11952542Y-24177340D02*
X11962066Y-24129721D01*
X11962066Y-24129721D02*
X11962066Y-24091626D01*
X11962066Y-24091626D02*
X11952542Y-24044007D01*
X11952542Y-24044007D02*
X11943018Y-24015435D01*
X11943018Y-24015435D02*
X11933494Y-23996388D01*
X11933494Y-23996388D02*
X11914447Y-23967816D01*
X11914447Y-23967816D02*
X11904923Y-23958292D01*
D14*
X6969860Y-24279380D02*
X7129860Y-24439380D01*
X7129860Y-24279380D02*
X6969860Y-24439380D01*
X7129860Y-24359380D02*
G75*
G03*
X6969860Y-24359380I-80000J0D01*
G01*
X6969860Y-24359380D02*
G75*
G03*
X7129860Y-24359380I80000J0D01*
G01*
D11*
X7495399Y-24450864D02*
X7381113Y-24450864D01*
X7438256Y-24450864D02*
X7438256Y-24250864D01*
X7438256Y-24250864D02*
X7419208Y-24279435D01*
X7419208Y-24279435D02*
X7400161Y-24298483D01*
X7400161Y-24298483D02*
X7381113Y-24308007D01*
X7581113Y-24431816D02*
X7590637Y-24441340D01*
X7590637Y-24441340D02*
X7581113Y-24450864D01*
X7581113Y-24450864D02*
X7571589Y-24441340D01*
X7571589Y-24441340D02*
X7581113Y-24431816D01*
X7581113Y-24431816D02*
X7581113Y-24450864D01*
X7762065Y-24250864D02*
X7723970Y-24250864D01*
X7723970Y-24250864D02*
X7704922Y-24260388D01*
X7704922Y-24260388D02*
X7695399Y-24269911D01*
X7695399Y-24269911D02*
X7676351Y-24298483D01*
X7676351Y-24298483D02*
X7666827Y-24336578D01*
X7666827Y-24336578D02*
X7666827Y-24412768D01*
X7666827Y-24412768D02*
X7676351Y-24431816D01*
X7676351Y-24431816D02*
X7685875Y-24441340D01*
X7685875Y-24441340D02*
X7704922Y-24450864D01*
X7704922Y-24450864D02*
X7743018Y-24450864D01*
X7743018Y-24450864D02*
X7762065Y-24441340D01*
X7762065Y-24441340D02*
X7771589Y-24431816D01*
X7771589Y-24431816D02*
X7781113Y-24412768D01*
X7781113Y-24412768D02*
X7781113Y-24365149D01*
X7781113Y-24365149D02*
X7771589Y-24346102D01*
X7771589Y-24346102D02*
X7762065Y-24336578D01*
X7762065Y-24336578D02*
X7743018Y-24327054D01*
X7743018Y-24327054D02*
X7704922Y-24327054D01*
X7704922Y-24327054D02*
X7685875Y-24336578D01*
X7685875Y-24336578D02*
X7676351Y-24346102D01*
X7676351Y-24346102D02*
X7666827Y-24365149D01*
X7904922Y-24250864D02*
X7923970Y-24250864D01*
X7923970Y-24250864D02*
X7943018Y-24260388D01*
X7943018Y-24260388D02*
X7952542Y-24269911D01*
X7952542Y-24269911D02*
X7962065Y-24288959D01*
X7962065Y-24288959D02*
X7971589Y-24327054D01*
X7971589Y-24327054D02*
X7971589Y-24374673D01*
X7971589Y-24374673D02*
X7962065Y-24412768D01*
X7962065Y-24412768D02*
X7952542Y-24431816D01*
X7952542Y-24431816D02*
X7943018Y-24441340D01*
X7943018Y-24441340D02*
X7923970Y-24450864D01*
X7923970Y-24450864D02*
X7904922Y-24450864D01*
X7904922Y-24450864D02*
X7885875Y-24441340D01*
X7885875Y-24441340D02*
X7876351Y-24431816D01*
X7876351Y-24431816D02*
X7866827Y-24412768D01*
X7866827Y-24412768D02*
X7857303Y-24374673D01*
X7857303Y-24374673D02*
X7857303Y-24327054D01*
X7857303Y-24327054D02*
X7866827Y-24288959D01*
X7866827Y-24288959D02*
X7876351Y-24269911D01*
X7876351Y-24269911D02*
X7885875Y-24260388D01*
X7885875Y-24260388D02*
X7904922Y-24250864D01*
X8095399Y-24250864D02*
X8114446Y-24250864D01*
X8114446Y-24250864D02*
X8133494Y-24260388D01*
X8133494Y-24260388D02*
X8143018Y-24269911D01*
X8143018Y-24269911D02*
X8152542Y-24288959D01*
X8152542Y-24288959D02*
X8162065Y-24327054D01*
X8162065Y-24327054D02*
X8162065Y-24374673D01*
X8162065Y-24374673D02*
X8152542Y-24412768D01*
X8152542Y-24412768D02*
X8143018Y-24431816D01*
X8143018Y-24431816D02*
X8133494Y-24441340D01*
X8133494Y-24441340D02*
X8114446Y-24450864D01*
X8114446Y-24450864D02*
X8095399Y-24450864D01*
X8095399Y-24450864D02*
X8076351Y-24441340D01*
X8076351Y-24441340D02*
X8066827Y-24431816D01*
X8066827Y-24431816D02*
X8057303Y-24412768D01*
X8057303Y-24412768D02*
X8047780Y-24374673D01*
X8047780Y-24374673D02*
X8047780Y-24327054D01*
X8047780Y-24327054D02*
X8057303Y-24288959D01*
X8057303Y-24288959D02*
X8066827Y-24269911D01*
X8066827Y-24269911D02*
X8076351Y-24260388D01*
X8076351Y-24260388D02*
X8095399Y-24250864D01*
X8247780Y-24450864D02*
X8247780Y-24317530D01*
X8247780Y-24336578D02*
X8257303Y-24327054D01*
X8257303Y-24327054D02*
X8276351Y-24317530D01*
X8276351Y-24317530D02*
X8304923Y-24317530D01*
X8304923Y-24317530D02*
X8323970Y-24327054D01*
X8323970Y-24327054D02*
X8333494Y-24346102D01*
X8333494Y-24346102D02*
X8333494Y-24450864D01*
X8333494Y-24346102D02*
X8343018Y-24327054D01*
X8343018Y-24327054D02*
X8362065Y-24317530D01*
X8362065Y-24317530D02*
X8390637Y-24317530D01*
X8390637Y-24317530D02*
X8409685Y-24327054D01*
X8409685Y-24327054D02*
X8419208Y-24346102D01*
X8419208Y-24346102D02*
X8419208Y-24450864D01*
X8514446Y-24450864D02*
X8514446Y-24317530D01*
X8514446Y-24336578D02*
X8523970Y-24327054D01*
X8523970Y-24327054D02*
X8543018Y-24317530D01*
X8543018Y-24317530D02*
X8571589Y-24317530D01*
X8571589Y-24317530D02*
X8590637Y-24327054D01*
X8590637Y-24327054D02*
X8600161Y-24346102D01*
X8600161Y-24346102D02*
X8600161Y-24450864D01*
X8600161Y-24346102D02*
X8609685Y-24327054D01*
X8609685Y-24327054D02*
X8628732Y-24317530D01*
X8628732Y-24317530D02*
X8657304Y-24317530D01*
X8657304Y-24317530D02*
X8676351Y-24327054D01*
X8676351Y-24327054D02*
X8685875Y-24346102D01*
X8685875Y-24346102D02*
X8685875Y-24450864D01*
X9076351Y-24241340D02*
X8904923Y-24498483D01*
X9333494Y-24250864D02*
X9352542Y-24250864D01*
X9352542Y-24250864D02*
X9371589Y-24260388D01*
X9371589Y-24260388D02*
X9381113Y-24269911D01*
X9381113Y-24269911D02*
X9390637Y-24288959D01*
X9390637Y-24288959D02*
X9400161Y-24327054D01*
X9400161Y-24327054D02*
X9400161Y-24374673D01*
X9400161Y-24374673D02*
X9390637Y-24412768D01*
X9390637Y-24412768D02*
X9381113Y-24431816D01*
X9381113Y-24431816D02*
X9371589Y-24441340D01*
X9371589Y-24441340D02*
X9352542Y-24450864D01*
X9352542Y-24450864D02*
X9333494Y-24450864D01*
X9333494Y-24450864D02*
X9314447Y-24441340D01*
X9314447Y-24441340D02*
X9304923Y-24431816D01*
X9304923Y-24431816D02*
X9295399Y-24412768D01*
X9295399Y-24412768D02*
X9285875Y-24374673D01*
X9285875Y-24374673D02*
X9285875Y-24327054D01*
X9285875Y-24327054D02*
X9295399Y-24288959D01*
X9295399Y-24288959D02*
X9304923Y-24269911D01*
X9304923Y-24269911D02*
X9314447Y-24260388D01*
X9314447Y-24260388D02*
X9333494Y-24250864D01*
X9485875Y-24431816D02*
X9495399Y-24441340D01*
X9495399Y-24441340D02*
X9485875Y-24450864D01*
X9485875Y-24450864D02*
X9476351Y-24441340D01*
X9476351Y-24441340D02*
X9485875Y-24431816D01*
X9485875Y-24431816D02*
X9485875Y-24450864D01*
X9619208Y-24250864D02*
X9638256Y-24250864D01*
X9638256Y-24250864D02*
X9657304Y-24260388D01*
X9657304Y-24260388D02*
X9666828Y-24269911D01*
X9666828Y-24269911D02*
X9676351Y-24288959D01*
X9676351Y-24288959D02*
X9685875Y-24327054D01*
X9685875Y-24327054D02*
X9685875Y-24374673D01*
X9685875Y-24374673D02*
X9676351Y-24412768D01*
X9676351Y-24412768D02*
X9666828Y-24431816D01*
X9666828Y-24431816D02*
X9657304Y-24441340D01*
X9657304Y-24441340D02*
X9638256Y-24450864D01*
X9638256Y-24450864D02*
X9619208Y-24450864D01*
X9619208Y-24450864D02*
X9600161Y-24441340D01*
X9600161Y-24441340D02*
X9590637Y-24431816D01*
X9590637Y-24431816D02*
X9581113Y-24412768D01*
X9581113Y-24412768D02*
X9571589Y-24374673D01*
X9571589Y-24374673D02*
X9571589Y-24327054D01*
X9571589Y-24327054D02*
X9581113Y-24288959D01*
X9581113Y-24288959D02*
X9590637Y-24269911D01*
X9590637Y-24269911D02*
X9600161Y-24260388D01*
X9600161Y-24260388D02*
X9619208Y-24250864D01*
X9857304Y-24250864D02*
X9819208Y-24250864D01*
X9819208Y-24250864D02*
X9800161Y-24260388D01*
X9800161Y-24260388D02*
X9790637Y-24269911D01*
X9790637Y-24269911D02*
X9771589Y-24298483D01*
X9771589Y-24298483D02*
X9762066Y-24336578D01*
X9762066Y-24336578D02*
X9762066Y-24412768D01*
X9762066Y-24412768D02*
X9771589Y-24431816D01*
X9771589Y-24431816D02*
X9781113Y-24441340D01*
X9781113Y-24441340D02*
X9800161Y-24450864D01*
X9800161Y-24450864D02*
X9838256Y-24450864D01*
X9838256Y-24450864D02*
X9857304Y-24441340D01*
X9857304Y-24441340D02*
X9866828Y-24431816D01*
X9866828Y-24431816D02*
X9876351Y-24412768D01*
X9876351Y-24412768D02*
X9876351Y-24365149D01*
X9876351Y-24365149D02*
X9866828Y-24346102D01*
X9866828Y-24346102D02*
X9857304Y-24336578D01*
X9857304Y-24336578D02*
X9838256Y-24327054D01*
X9838256Y-24327054D02*
X9800161Y-24327054D01*
X9800161Y-24327054D02*
X9781113Y-24336578D01*
X9781113Y-24336578D02*
X9771589Y-24346102D01*
X9771589Y-24346102D02*
X9762066Y-24365149D01*
X9943018Y-24250864D02*
X10066828Y-24250864D01*
X10066828Y-24250864D02*
X10000161Y-24327054D01*
X10000161Y-24327054D02*
X10028732Y-24327054D01*
X10028732Y-24327054D02*
X10047780Y-24336578D01*
X10047780Y-24336578D02*
X10057304Y-24346102D01*
X10057304Y-24346102D02*
X10066828Y-24365149D01*
X10066828Y-24365149D02*
X10066828Y-24412768D01*
X10066828Y-24412768D02*
X10057304Y-24431816D01*
X10057304Y-24431816D02*
X10047780Y-24441340D01*
X10047780Y-24441340D02*
X10028732Y-24450864D01*
X10028732Y-24450864D02*
X9971589Y-24450864D01*
X9971589Y-24450864D02*
X9952542Y-24441340D01*
X9952542Y-24441340D02*
X9943018Y-24431816D01*
X10190637Y-24250864D02*
X10209685Y-24250864D01*
X10209685Y-24250864D02*
X10228732Y-24260388D01*
X10228732Y-24260388D02*
X10238256Y-24269911D01*
X10238256Y-24269911D02*
X10247780Y-24288959D01*
X10247780Y-24288959D02*
X10257304Y-24327054D01*
X10257304Y-24327054D02*
X10257304Y-24374673D01*
X10257304Y-24374673D02*
X10247780Y-24412768D01*
X10247780Y-24412768D02*
X10238256Y-24431816D01*
X10238256Y-24431816D02*
X10228732Y-24441340D01*
X10228732Y-24441340D02*
X10209685Y-24450864D01*
X10209685Y-24450864D02*
X10190637Y-24450864D01*
X10190637Y-24450864D02*
X10171589Y-24441340D01*
X10171589Y-24441340D02*
X10162066Y-24431816D01*
X10162066Y-24431816D02*
X10152542Y-24412768D01*
X10152542Y-24412768D02*
X10143018Y-24374673D01*
X10143018Y-24374673D02*
X10143018Y-24327054D01*
X10143018Y-24327054D02*
X10152542Y-24288959D01*
X10152542Y-24288959D02*
X10162066Y-24269911D01*
X10162066Y-24269911D02*
X10171589Y-24260388D01*
X10171589Y-24260388D02*
X10190637Y-24250864D01*
X10333494Y-24250864D02*
X10333494Y-24288959D01*
X10409685Y-24250864D02*
X10409685Y-24288959D01*
X10704923Y-24527054D02*
X10695399Y-24517530D01*
X10695399Y-24517530D02*
X10676351Y-24488959D01*
X10676351Y-24488959D02*
X10666828Y-24469911D01*
X10666828Y-24469911D02*
X10657304Y-24441340D01*
X10657304Y-24441340D02*
X10647780Y-24393721D01*
X10647780Y-24393721D02*
X10647780Y-24355626D01*
X10647780Y-24355626D02*
X10657304Y-24308007D01*
X10657304Y-24308007D02*
X10666828Y-24279435D01*
X10666828Y-24279435D02*
X10676351Y-24260388D01*
X10676351Y-24260388D02*
X10695399Y-24231816D01*
X10695399Y-24231816D02*
X10704923Y-24222292D01*
X10885875Y-24450864D02*
X10771590Y-24450864D01*
X10828732Y-24450864D02*
X10828732Y-24250864D01*
X10828732Y-24250864D02*
X10809685Y-24279435D01*
X10809685Y-24279435D02*
X10790637Y-24298483D01*
X10790637Y-24298483D02*
X10771590Y-24308007D01*
X10962066Y-24269911D02*
X10971590Y-24260388D01*
X10971590Y-24260388D02*
X10990637Y-24250864D01*
X10990637Y-24250864D02*
X11038256Y-24250864D01*
X11038256Y-24250864D02*
X11057304Y-24260388D01*
X11057304Y-24260388D02*
X11066828Y-24269911D01*
X11066828Y-24269911D02*
X11076351Y-24288959D01*
X11076351Y-24288959D02*
X11076351Y-24308007D01*
X11076351Y-24308007D02*
X11066828Y-24336578D01*
X11066828Y-24336578D02*
X10952542Y-24450864D01*
X10952542Y-24450864D02*
X11076351Y-24450864D01*
X11314447Y-24450864D02*
X11314447Y-24250864D01*
X11400161Y-24450864D02*
X11400161Y-24346102D01*
X11400161Y-24346102D02*
X11390637Y-24327054D01*
X11390637Y-24327054D02*
X11371590Y-24317530D01*
X11371590Y-24317530D02*
X11343018Y-24317530D01*
X11343018Y-24317530D02*
X11323970Y-24327054D01*
X11323970Y-24327054D02*
X11314447Y-24336578D01*
X11523970Y-24450864D02*
X11504923Y-24441340D01*
X11504923Y-24441340D02*
X11495399Y-24431816D01*
X11495399Y-24431816D02*
X11485875Y-24412768D01*
X11485875Y-24412768D02*
X11485875Y-24355626D01*
X11485875Y-24355626D02*
X11495399Y-24336578D01*
X11495399Y-24336578D02*
X11504923Y-24327054D01*
X11504923Y-24327054D02*
X11523970Y-24317530D01*
X11523970Y-24317530D02*
X11552542Y-24317530D01*
X11552542Y-24317530D02*
X11571590Y-24327054D01*
X11571590Y-24327054D02*
X11581113Y-24336578D01*
X11581113Y-24336578D02*
X11590637Y-24355626D01*
X11590637Y-24355626D02*
X11590637Y-24412768D01*
X11590637Y-24412768D02*
X11581113Y-24431816D01*
X11581113Y-24431816D02*
X11571590Y-24441340D01*
X11571590Y-24441340D02*
X11552542Y-24450864D01*
X11552542Y-24450864D02*
X11523970Y-24450864D01*
X11704923Y-24450864D02*
X11685875Y-24441340D01*
X11685875Y-24441340D02*
X11676351Y-24422292D01*
X11676351Y-24422292D02*
X11676351Y-24250864D01*
X11857304Y-24441340D02*
X11838256Y-24450864D01*
X11838256Y-24450864D02*
X11800161Y-24450864D01*
X11800161Y-24450864D02*
X11781113Y-24441340D01*
X11781113Y-24441340D02*
X11771590Y-24422292D01*
X11771590Y-24422292D02*
X11771590Y-24346102D01*
X11771590Y-24346102D02*
X11781113Y-24327054D01*
X11781113Y-24327054D02*
X11800161Y-24317530D01*
X11800161Y-24317530D02*
X11838256Y-24317530D01*
X11838256Y-24317530D02*
X11857304Y-24327054D01*
X11857304Y-24327054D02*
X11866828Y-24346102D01*
X11866828Y-24346102D02*
X11866828Y-24365149D01*
X11866828Y-24365149D02*
X11771590Y-24384197D01*
X11943018Y-24441340D02*
X11962066Y-24450864D01*
X11962066Y-24450864D02*
X12000161Y-24450864D01*
X12000161Y-24450864D02*
X12019209Y-24441340D01*
X12019209Y-24441340D02*
X12028732Y-24422292D01*
X12028732Y-24422292D02*
X12028732Y-24412768D01*
X12028732Y-24412768D02*
X12019209Y-24393721D01*
X12019209Y-24393721D02*
X12000161Y-24384197D01*
X12000161Y-24384197D02*
X11971590Y-24384197D01*
X11971590Y-24384197D02*
X11952542Y-24374673D01*
X11952542Y-24374673D02*
X11943018Y-24355626D01*
X11943018Y-24355626D02*
X11943018Y-24346102D01*
X11943018Y-24346102D02*
X11952542Y-24327054D01*
X11952542Y-24327054D02*
X11971590Y-24317530D01*
X11971590Y-24317530D02*
X12000161Y-24317530D01*
X12000161Y-24317530D02*
X12019209Y-24327054D01*
X12095399Y-24527054D02*
X12104923Y-24517530D01*
X12104923Y-24517530D02*
X12123971Y-24488959D01*
X12123971Y-24488959D02*
X12133494Y-24469911D01*
X12133494Y-24469911D02*
X12143018Y-24441340D01*
X12143018Y-24441340D02*
X12152542Y-24393721D01*
X12152542Y-24393721D02*
X12152542Y-24355626D01*
X12152542Y-24355626D02*
X12143018Y-24308007D01*
X12143018Y-24308007D02*
X12133494Y-24279435D01*
X12133494Y-24279435D02*
X12123971Y-24260388D01*
X12123971Y-24260388D02*
X12104923Y-24231816D01*
X12104923Y-24231816D02*
X12095399Y-24222292D01*
D15*
X6959860Y-24554380D02*
X7129860Y-24724380D01*
X7129860Y-24554380D02*
X6959860Y-24724380D01*
X7044860Y-24554380D02*
X7044860Y-24724380D01*
X6959860Y-24639380D02*
X7129860Y-24639380D01*
D11*
X7495399Y-24730864D02*
X7381113Y-24730864D01*
X7438256Y-24730864D02*
X7438256Y-24530864D01*
X7438256Y-24530864D02*
X7419208Y-24559435D01*
X7419208Y-24559435D02*
X7400161Y-24578483D01*
X7400161Y-24578483D02*
X7381113Y-24588007D01*
X7581113Y-24711816D02*
X7590637Y-24721340D01*
X7590637Y-24721340D02*
X7581113Y-24730864D01*
X7581113Y-24730864D02*
X7571589Y-24721340D01*
X7571589Y-24721340D02*
X7581113Y-24711816D01*
X7581113Y-24711816D02*
X7581113Y-24730864D01*
X7657303Y-24530864D02*
X7790637Y-24530864D01*
X7790637Y-24530864D02*
X7704922Y-24730864D01*
X7904922Y-24530864D02*
X7923970Y-24530864D01*
X7923970Y-24530864D02*
X7943018Y-24540388D01*
X7943018Y-24540388D02*
X7952542Y-24549911D01*
X7952542Y-24549911D02*
X7962065Y-24568959D01*
X7962065Y-24568959D02*
X7971589Y-24607054D01*
X7971589Y-24607054D02*
X7971589Y-24654673D01*
X7971589Y-24654673D02*
X7962065Y-24692768D01*
X7962065Y-24692768D02*
X7952542Y-24711816D01*
X7952542Y-24711816D02*
X7943018Y-24721340D01*
X7943018Y-24721340D02*
X7923970Y-24730864D01*
X7923970Y-24730864D02*
X7904922Y-24730864D01*
X7904922Y-24730864D02*
X7885875Y-24721340D01*
X7885875Y-24721340D02*
X7876351Y-24711816D01*
X7876351Y-24711816D02*
X7866827Y-24692768D01*
X7866827Y-24692768D02*
X7857303Y-24654673D01*
X7857303Y-24654673D02*
X7857303Y-24607054D01*
X7857303Y-24607054D02*
X7866827Y-24568959D01*
X7866827Y-24568959D02*
X7876351Y-24549911D01*
X7876351Y-24549911D02*
X7885875Y-24540388D01*
X7885875Y-24540388D02*
X7904922Y-24530864D01*
X8095399Y-24530864D02*
X8114446Y-24530864D01*
X8114446Y-24530864D02*
X8133494Y-24540388D01*
X8133494Y-24540388D02*
X8143018Y-24549911D01*
X8143018Y-24549911D02*
X8152542Y-24568959D01*
X8152542Y-24568959D02*
X8162065Y-24607054D01*
X8162065Y-24607054D02*
X8162065Y-24654673D01*
X8162065Y-24654673D02*
X8152542Y-24692768D01*
X8152542Y-24692768D02*
X8143018Y-24711816D01*
X8143018Y-24711816D02*
X8133494Y-24721340D01*
X8133494Y-24721340D02*
X8114446Y-24730864D01*
X8114446Y-24730864D02*
X8095399Y-24730864D01*
X8095399Y-24730864D02*
X8076351Y-24721340D01*
X8076351Y-24721340D02*
X8066827Y-24711816D01*
X8066827Y-24711816D02*
X8057303Y-24692768D01*
X8057303Y-24692768D02*
X8047780Y-24654673D01*
X8047780Y-24654673D02*
X8047780Y-24607054D01*
X8047780Y-24607054D02*
X8057303Y-24568959D01*
X8057303Y-24568959D02*
X8066827Y-24549911D01*
X8066827Y-24549911D02*
X8076351Y-24540388D01*
X8076351Y-24540388D02*
X8095399Y-24530864D01*
X8247780Y-24730864D02*
X8247780Y-24597530D01*
X8247780Y-24616578D02*
X8257303Y-24607054D01*
X8257303Y-24607054D02*
X8276351Y-24597530D01*
X8276351Y-24597530D02*
X8304923Y-24597530D01*
X8304923Y-24597530D02*
X8323970Y-24607054D01*
X8323970Y-24607054D02*
X8333494Y-24626102D01*
X8333494Y-24626102D02*
X8333494Y-24730864D01*
X8333494Y-24626102D02*
X8343018Y-24607054D01*
X8343018Y-24607054D02*
X8362065Y-24597530D01*
X8362065Y-24597530D02*
X8390637Y-24597530D01*
X8390637Y-24597530D02*
X8409685Y-24607054D01*
X8409685Y-24607054D02*
X8419208Y-24626102D01*
X8419208Y-24626102D02*
X8419208Y-24730864D01*
X8514446Y-24730864D02*
X8514446Y-24597530D01*
X8514446Y-24616578D02*
X8523970Y-24607054D01*
X8523970Y-24607054D02*
X8543018Y-24597530D01*
X8543018Y-24597530D02*
X8571589Y-24597530D01*
X8571589Y-24597530D02*
X8590637Y-24607054D01*
X8590637Y-24607054D02*
X8600161Y-24626102D01*
X8600161Y-24626102D02*
X8600161Y-24730864D01*
X8600161Y-24626102D02*
X8609685Y-24607054D01*
X8609685Y-24607054D02*
X8628732Y-24597530D01*
X8628732Y-24597530D02*
X8657304Y-24597530D01*
X8657304Y-24597530D02*
X8676351Y-24607054D01*
X8676351Y-24607054D02*
X8685875Y-24626102D01*
X8685875Y-24626102D02*
X8685875Y-24730864D01*
X9076351Y-24521340D02*
X8904923Y-24778483D01*
X9333494Y-24530864D02*
X9352542Y-24530864D01*
X9352542Y-24530864D02*
X9371589Y-24540388D01*
X9371589Y-24540388D02*
X9381113Y-24549911D01*
X9381113Y-24549911D02*
X9390637Y-24568959D01*
X9390637Y-24568959D02*
X9400161Y-24607054D01*
X9400161Y-24607054D02*
X9400161Y-24654673D01*
X9400161Y-24654673D02*
X9390637Y-24692768D01*
X9390637Y-24692768D02*
X9381113Y-24711816D01*
X9381113Y-24711816D02*
X9371589Y-24721340D01*
X9371589Y-24721340D02*
X9352542Y-24730864D01*
X9352542Y-24730864D02*
X9333494Y-24730864D01*
X9333494Y-24730864D02*
X9314447Y-24721340D01*
X9314447Y-24721340D02*
X9304923Y-24711816D01*
X9304923Y-24711816D02*
X9295399Y-24692768D01*
X9295399Y-24692768D02*
X9285875Y-24654673D01*
X9285875Y-24654673D02*
X9285875Y-24607054D01*
X9285875Y-24607054D02*
X9295399Y-24568959D01*
X9295399Y-24568959D02*
X9304923Y-24549911D01*
X9304923Y-24549911D02*
X9314447Y-24540388D01*
X9314447Y-24540388D02*
X9333494Y-24530864D01*
X9485875Y-24711816D02*
X9495399Y-24721340D01*
X9495399Y-24721340D02*
X9485875Y-24730864D01*
X9485875Y-24730864D02*
X9476351Y-24721340D01*
X9476351Y-24721340D02*
X9485875Y-24711816D01*
X9485875Y-24711816D02*
X9485875Y-24730864D01*
X9619208Y-24530864D02*
X9638256Y-24530864D01*
X9638256Y-24530864D02*
X9657304Y-24540388D01*
X9657304Y-24540388D02*
X9666828Y-24549911D01*
X9666828Y-24549911D02*
X9676351Y-24568959D01*
X9676351Y-24568959D02*
X9685875Y-24607054D01*
X9685875Y-24607054D02*
X9685875Y-24654673D01*
X9685875Y-24654673D02*
X9676351Y-24692768D01*
X9676351Y-24692768D02*
X9666828Y-24711816D01*
X9666828Y-24711816D02*
X9657304Y-24721340D01*
X9657304Y-24721340D02*
X9638256Y-24730864D01*
X9638256Y-24730864D02*
X9619208Y-24730864D01*
X9619208Y-24730864D02*
X9600161Y-24721340D01*
X9600161Y-24721340D02*
X9590637Y-24711816D01*
X9590637Y-24711816D02*
X9581113Y-24692768D01*
X9581113Y-24692768D02*
X9571589Y-24654673D01*
X9571589Y-24654673D02*
X9571589Y-24607054D01*
X9571589Y-24607054D02*
X9581113Y-24568959D01*
X9581113Y-24568959D02*
X9590637Y-24549911D01*
X9590637Y-24549911D02*
X9600161Y-24540388D01*
X9600161Y-24540388D02*
X9619208Y-24530864D01*
X9857304Y-24530864D02*
X9819208Y-24530864D01*
X9819208Y-24530864D02*
X9800161Y-24540388D01*
X9800161Y-24540388D02*
X9790637Y-24549911D01*
X9790637Y-24549911D02*
X9771589Y-24578483D01*
X9771589Y-24578483D02*
X9762066Y-24616578D01*
X9762066Y-24616578D02*
X9762066Y-24692768D01*
X9762066Y-24692768D02*
X9771589Y-24711816D01*
X9771589Y-24711816D02*
X9781113Y-24721340D01*
X9781113Y-24721340D02*
X9800161Y-24730864D01*
X9800161Y-24730864D02*
X9838256Y-24730864D01*
X9838256Y-24730864D02*
X9857304Y-24721340D01*
X9857304Y-24721340D02*
X9866828Y-24711816D01*
X9866828Y-24711816D02*
X9876351Y-24692768D01*
X9876351Y-24692768D02*
X9876351Y-24645149D01*
X9876351Y-24645149D02*
X9866828Y-24626102D01*
X9866828Y-24626102D02*
X9857304Y-24616578D01*
X9857304Y-24616578D02*
X9838256Y-24607054D01*
X9838256Y-24607054D02*
X9800161Y-24607054D01*
X9800161Y-24607054D02*
X9781113Y-24616578D01*
X9781113Y-24616578D02*
X9771589Y-24626102D01*
X9771589Y-24626102D02*
X9762066Y-24645149D01*
X10047780Y-24530864D02*
X10009685Y-24530864D01*
X10009685Y-24530864D02*
X9990637Y-24540388D01*
X9990637Y-24540388D02*
X9981113Y-24549911D01*
X9981113Y-24549911D02*
X9962066Y-24578483D01*
X9962066Y-24578483D02*
X9952542Y-24616578D01*
X9952542Y-24616578D02*
X9952542Y-24692768D01*
X9952542Y-24692768D02*
X9962066Y-24711816D01*
X9962066Y-24711816D02*
X9971589Y-24721340D01*
X9971589Y-24721340D02*
X9990637Y-24730864D01*
X9990637Y-24730864D02*
X10028732Y-24730864D01*
X10028732Y-24730864D02*
X10047780Y-24721340D01*
X10047780Y-24721340D02*
X10057304Y-24711816D01*
X10057304Y-24711816D02*
X10066828Y-24692768D01*
X10066828Y-24692768D02*
X10066828Y-24645149D01*
X10066828Y-24645149D02*
X10057304Y-24626102D01*
X10057304Y-24626102D02*
X10047780Y-24616578D01*
X10047780Y-24616578D02*
X10028732Y-24607054D01*
X10028732Y-24607054D02*
X9990637Y-24607054D01*
X9990637Y-24607054D02*
X9971589Y-24616578D01*
X9971589Y-24616578D02*
X9962066Y-24626102D01*
X9962066Y-24626102D02*
X9952542Y-24645149D01*
X10162066Y-24730864D02*
X10200161Y-24730864D01*
X10200161Y-24730864D02*
X10219209Y-24721340D01*
X10219209Y-24721340D02*
X10228732Y-24711816D01*
X10228732Y-24711816D02*
X10247780Y-24683245D01*
X10247780Y-24683245D02*
X10257304Y-24645149D01*
X10257304Y-24645149D02*
X10257304Y-24568959D01*
X10257304Y-24568959D02*
X10247780Y-24549911D01*
X10247780Y-24549911D02*
X10238256Y-24540388D01*
X10238256Y-24540388D02*
X10219209Y-24530864D01*
X10219209Y-24530864D02*
X10181113Y-24530864D01*
X10181113Y-24530864D02*
X10162066Y-24540388D01*
X10162066Y-24540388D02*
X10152542Y-24549911D01*
X10152542Y-24549911D02*
X10143018Y-24568959D01*
X10143018Y-24568959D02*
X10143018Y-24616578D01*
X10143018Y-24616578D02*
X10152542Y-24635626D01*
X10152542Y-24635626D02*
X10162066Y-24645149D01*
X10162066Y-24645149D02*
X10181113Y-24654673D01*
X10181113Y-24654673D02*
X10219209Y-24654673D01*
X10219209Y-24654673D02*
X10238256Y-24645149D01*
X10238256Y-24645149D02*
X10247780Y-24635626D01*
X10247780Y-24635626D02*
X10257304Y-24616578D01*
X10333494Y-24530864D02*
X10333494Y-24568959D01*
X10409685Y-24530864D02*
X10409685Y-24568959D01*
X10704923Y-24807054D02*
X10695399Y-24797530D01*
X10695399Y-24797530D02*
X10676351Y-24768959D01*
X10676351Y-24768959D02*
X10666828Y-24749911D01*
X10666828Y-24749911D02*
X10657304Y-24721340D01*
X10657304Y-24721340D02*
X10647780Y-24673721D01*
X10647780Y-24673721D02*
X10647780Y-24635626D01*
X10647780Y-24635626D02*
X10657304Y-24588007D01*
X10657304Y-24588007D02*
X10666828Y-24559435D01*
X10666828Y-24559435D02*
X10676351Y-24540388D01*
X10676351Y-24540388D02*
X10695399Y-24511816D01*
X10695399Y-24511816D02*
X10704923Y-24502292D01*
X10762066Y-24530864D02*
X10885875Y-24530864D01*
X10885875Y-24530864D02*
X10819209Y-24607054D01*
X10819209Y-24607054D02*
X10847780Y-24607054D01*
X10847780Y-24607054D02*
X10866828Y-24616578D01*
X10866828Y-24616578D02*
X10876351Y-24626102D01*
X10876351Y-24626102D02*
X10885875Y-24645149D01*
X10885875Y-24645149D02*
X10885875Y-24692768D01*
X10885875Y-24692768D02*
X10876351Y-24711816D01*
X10876351Y-24711816D02*
X10866828Y-24721340D01*
X10866828Y-24721340D02*
X10847780Y-24730864D01*
X10847780Y-24730864D02*
X10790637Y-24730864D01*
X10790637Y-24730864D02*
X10771590Y-24721340D01*
X10771590Y-24721340D02*
X10762066Y-24711816D01*
X11009685Y-24530864D02*
X11028732Y-24530864D01*
X11028732Y-24530864D02*
X11047780Y-24540388D01*
X11047780Y-24540388D02*
X11057304Y-24549911D01*
X11057304Y-24549911D02*
X11066828Y-24568959D01*
X11066828Y-24568959D02*
X11076351Y-24607054D01*
X11076351Y-24607054D02*
X11076351Y-24654673D01*
X11076351Y-24654673D02*
X11066828Y-24692768D01*
X11066828Y-24692768D02*
X11057304Y-24711816D01*
X11057304Y-24711816D02*
X11047780Y-24721340D01*
X11047780Y-24721340D02*
X11028732Y-24730864D01*
X11028732Y-24730864D02*
X11009685Y-24730864D01*
X11009685Y-24730864D02*
X10990637Y-24721340D01*
X10990637Y-24721340D02*
X10981113Y-24711816D01*
X10981113Y-24711816D02*
X10971590Y-24692768D01*
X10971590Y-24692768D02*
X10962066Y-24654673D01*
X10962066Y-24654673D02*
X10962066Y-24607054D01*
X10962066Y-24607054D02*
X10971590Y-24568959D01*
X10971590Y-24568959D02*
X10981113Y-24549911D01*
X10981113Y-24549911D02*
X10990637Y-24540388D01*
X10990637Y-24540388D02*
X11009685Y-24530864D01*
X11314447Y-24730864D02*
X11314447Y-24530864D01*
X11400161Y-24730864D02*
X11400161Y-24626102D01*
X11400161Y-24626102D02*
X11390637Y-24607054D01*
X11390637Y-24607054D02*
X11371590Y-24597530D01*
X11371590Y-24597530D02*
X11343018Y-24597530D01*
X11343018Y-24597530D02*
X11323970Y-24607054D01*
X11323970Y-24607054D02*
X11314447Y-24616578D01*
X11523970Y-24730864D02*
X11504923Y-24721340D01*
X11504923Y-24721340D02*
X11495399Y-24711816D01*
X11495399Y-24711816D02*
X11485875Y-24692768D01*
X11485875Y-24692768D02*
X11485875Y-24635626D01*
X11485875Y-24635626D02*
X11495399Y-24616578D01*
X11495399Y-24616578D02*
X11504923Y-24607054D01*
X11504923Y-24607054D02*
X11523970Y-24597530D01*
X11523970Y-24597530D02*
X11552542Y-24597530D01*
X11552542Y-24597530D02*
X11571590Y-24607054D01*
X11571590Y-24607054D02*
X11581113Y-24616578D01*
X11581113Y-24616578D02*
X11590637Y-24635626D01*
X11590637Y-24635626D02*
X11590637Y-24692768D01*
X11590637Y-24692768D02*
X11581113Y-24711816D01*
X11581113Y-24711816D02*
X11571590Y-24721340D01*
X11571590Y-24721340D02*
X11552542Y-24730864D01*
X11552542Y-24730864D02*
X11523970Y-24730864D01*
X11704923Y-24730864D02*
X11685875Y-24721340D01*
X11685875Y-24721340D02*
X11676351Y-24702292D01*
X11676351Y-24702292D02*
X11676351Y-24530864D01*
X11857304Y-24721340D02*
X11838256Y-24730864D01*
X11838256Y-24730864D02*
X11800161Y-24730864D01*
X11800161Y-24730864D02*
X11781113Y-24721340D01*
X11781113Y-24721340D02*
X11771590Y-24702292D01*
X11771590Y-24702292D02*
X11771590Y-24626102D01*
X11771590Y-24626102D02*
X11781113Y-24607054D01*
X11781113Y-24607054D02*
X11800161Y-24597530D01*
X11800161Y-24597530D02*
X11838256Y-24597530D01*
X11838256Y-24597530D02*
X11857304Y-24607054D01*
X11857304Y-24607054D02*
X11866828Y-24626102D01*
X11866828Y-24626102D02*
X11866828Y-24645149D01*
X11866828Y-24645149D02*
X11771590Y-24664197D01*
X11943018Y-24721340D02*
X11962066Y-24730864D01*
X11962066Y-24730864D02*
X12000161Y-24730864D01*
X12000161Y-24730864D02*
X12019209Y-24721340D01*
X12019209Y-24721340D02*
X12028732Y-24702292D01*
X12028732Y-24702292D02*
X12028732Y-24692768D01*
X12028732Y-24692768D02*
X12019209Y-24673721D01*
X12019209Y-24673721D02*
X12000161Y-24664197D01*
X12000161Y-24664197D02*
X11971590Y-24664197D01*
X11971590Y-24664197D02*
X11952542Y-24654673D01*
X11952542Y-24654673D02*
X11943018Y-24635626D01*
X11943018Y-24635626D02*
X11943018Y-24626102D01*
X11943018Y-24626102D02*
X11952542Y-24607054D01*
X11952542Y-24607054D02*
X11971590Y-24597530D01*
X11971590Y-24597530D02*
X12000161Y-24597530D01*
X12000161Y-24597530D02*
X12019209Y-24607054D01*
X12095399Y-24807054D02*
X12104923Y-24797530D01*
X12104923Y-24797530D02*
X12123971Y-24768959D01*
X12123971Y-24768959D02*
X12133494Y-24749911D01*
X12133494Y-24749911D02*
X12143018Y-24721340D01*
X12143018Y-24721340D02*
X12152542Y-24673721D01*
X12152542Y-24673721D02*
X12152542Y-24635626D01*
X12152542Y-24635626D02*
X12143018Y-24588007D01*
X12143018Y-24588007D02*
X12133494Y-24559435D01*
X12133494Y-24559435D02*
X12123971Y-24540388D01*
X12123971Y-24540388D02*
X12104923Y-24511816D01*
X12104923Y-24511816D02*
X12095399Y-24502292D01*
X6929860Y-24829380D02*
X7129860Y-25029380D01*
X7129860Y-24829380D02*
X6929860Y-25029380D01*
X7100571Y-25000091D02*
X7100571Y-24858669D01*
X6959149Y-24858669D01*
X6959149Y-25000091D01*
X7100571Y-25000091D01*
X7381113Y-24839911D02*
X7390637Y-24830388D01*
X7390637Y-24830388D02*
X7409684Y-24820864D01*
X7409684Y-24820864D02*
X7457303Y-24820864D01*
X7457303Y-24820864D02*
X7476351Y-24830388D01*
X7476351Y-24830388D02*
X7485875Y-24839911D01*
X7485875Y-24839911D02*
X7495399Y-24858959D01*
X7495399Y-24858959D02*
X7495399Y-24878007D01*
X7495399Y-24878007D02*
X7485875Y-24906578D01*
X7485875Y-24906578D02*
X7371589Y-25020864D01*
X7371589Y-25020864D02*
X7495399Y-25020864D01*
X7581113Y-25001816D02*
X7590637Y-25011340D01*
X7590637Y-25011340D02*
X7581113Y-25020864D01*
X7581113Y-25020864D02*
X7571589Y-25011340D01*
X7571589Y-25011340D02*
X7581113Y-25001816D01*
X7581113Y-25001816D02*
X7581113Y-25020864D01*
X7714446Y-24820864D02*
X7733494Y-24820864D01*
X7733494Y-24820864D02*
X7752542Y-24830388D01*
X7752542Y-24830388D02*
X7762065Y-24839911D01*
X7762065Y-24839911D02*
X7771589Y-24858959D01*
X7771589Y-24858959D02*
X7781113Y-24897054D01*
X7781113Y-24897054D02*
X7781113Y-24944673D01*
X7781113Y-24944673D02*
X7771589Y-24982768D01*
X7771589Y-24982768D02*
X7762065Y-25001816D01*
X7762065Y-25001816D02*
X7752542Y-25011340D01*
X7752542Y-25011340D02*
X7733494Y-25020864D01*
X7733494Y-25020864D02*
X7714446Y-25020864D01*
X7714446Y-25020864D02*
X7695399Y-25011340D01*
X7695399Y-25011340D02*
X7685875Y-25001816D01*
X7685875Y-25001816D02*
X7676351Y-24982768D01*
X7676351Y-24982768D02*
X7666827Y-24944673D01*
X7666827Y-24944673D02*
X7666827Y-24897054D01*
X7666827Y-24897054D02*
X7676351Y-24858959D01*
X7676351Y-24858959D02*
X7685875Y-24839911D01*
X7685875Y-24839911D02*
X7695399Y-24830388D01*
X7695399Y-24830388D02*
X7714446Y-24820864D01*
X7904922Y-24820864D02*
X7923970Y-24820864D01*
X7923970Y-24820864D02*
X7943018Y-24830388D01*
X7943018Y-24830388D02*
X7952542Y-24839911D01*
X7952542Y-24839911D02*
X7962065Y-24858959D01*
X7962065Y-24858959D02*
X7971589Y-24897054D01*
X7971589Y-24897054D02*
X7971589Y-24944673D01*
X7971589Y-24944673D02*
X7962065Y-24982768D01*
X7962065Y-24982768D02*
X7952542Y-25001816D01*
X7952542Y-25001816D02*
X7943018Y-25011340D01*
X7943018Y-25011340D02*
X7923970Y-25020864D01*
X7923970Y-25020864D02*
X7904922Y-25020864D01*
X7904922Y-25020864D02*
X7885875Y-25011340D01*
X7885875Y-25011340D02*
X7876351Y-25001816D01*
X7876351Y-25001816D02*
X7866827Y-24982768D01*
X7866827Y-24982768D02*
X7857303Y-24944673D01*
X7857303Y-24944673D02*
X7857303Y-24897054D01*
X7857303Y-24897054D02*
X7866827Y-24858959D01*
X7866827Y-24858959D02*
X7876351Y-24839911D01*
X7876351Y-24839911D02*
X7885875Y-24830388D01*
X7885875Y-24830388D02*
X7904922Y-24820864D01*
X8095399Y-24820864D02*
X8114446Y-24820864D01*
X8114446Y-24820864D02*
X8133494Y-24830388D01*
X8133494Y-24830388D02*
X8143018Y-24839911D01*
X8143018Y-24839911D02*
X8152542Y-24858959D01*
X8152542Y-24858959D02*
X8162065Y-24897054D01*
X8162065Y-24897054D02*
X8162065Y-24944673D01*
X8162065Y-24944673D02*
X8152542Y-24982768D01*
X8152542Y-24982768D02*
X8143018Y-25001816D01*
X8143018Y-25001816D02*
X8133494Y-25011340D01*
X8133494Y-25011340D02*
X8114446Y-25020864D01*
X8114446Y-25020864D02*
X8095399Y-25020864D01*
X8095399Y-25020864D02*
X8076351Y-25011340D01*
X8076351Y-25011340D02*
X8066827Y-25001816D01*
X8066827Y-25001816D02*
X8057303Y-24982768D01*
X8057303Y-24982768D02*
X8047780Y-24944673D01*
X8047780Y-24944673D02*
X8047780Y-24897054D01*
X8047780Y-24897054D02*
X8057303Y-24858959D01*
X8057303Y-24858959D02*
X8066827Y-24839911D01*
X8066827Y-24839911D02*
X8076351Y-24830388D01*
X8076351Y-24830388D02*
X8095399Y-24820864D01*
X8247780Y-25020864D02*
X8247780Y-24887530D01*
X8247780Y-24906578D02*
X8257303Y-24897054D01*
X8257303Y-24897054D02*
X8276351Y-24887530D01*
X8276351Y-24887530D02*
X8304923Y-24887530D01*
X8304923Y-24887530D02*
X8323970Y-24897054D01*
X8323970Y-24897054D02*
X8333494Y-24916102D01*
X8333494Y-24916102D02*
X8333494Y-25020864D01*
X8333494Y-24916102D02*
X8343018Y-24897054D01*
X8343018Y-24897054D02*
X8362065Y-24887530D01*
X8362065Y-24887530D02*
X8390637Y-24887530D01*
X8390637Y-24887530D02*
X8409685Y-24897054D01*
X8409685Y-24897054D02*
X8419208Y-24916102D01*
X8419208Y-24916102D02*
X8419208Y-25020864D01*
X8514446Y-25020864D02*
X8514446Y-24887530D01*
X8514446Y-24906578D02*
X8523970Y-24897054D01*
X8523970Y-24897054D02*
X8543018Y-24887530D01*
X8543018Y-24887530D02*
X8571589Y-24887530D01*
X8571589Y-24887530D02*
X8590637Y-24897054D01*
X8590637Y-24897054D02*
X8600161Y-24916102D01*
X8600161Y-24916102D02*
X8600161Y-25020864D01*
X8600161Y-24916102D02*
X8609685Y-24897054D01*
X8609685Y-24897054D02*
X8628732Y-24887530D01*
X8628732Y-24887530D02*
X8657304Y-24887530D01*
X8657304Y-24887530D02*
X8676351Y-24897054D01*
X8676351Y-24897054D02*
X8685875Y-24916102D01*
X8685875Y-24916102D02*
X8685875Y-25020864D01*
X9076351Y-24811340D02*
X8904923Y-25068483D01*
X9333494Y-24820864D02*
X9352542Y-24820864D01*
X9352542Y-24820864D02*
X9371589Y-24830388D01*
X9371589Y-24830388D02*
X9381113Y-24839911D01*
X9381113Y-24839911D02*
X9390637Y-24858959D01*
X9390637Y-24858959D02*
X9400161Y-24897054D01*
X9400161Y-24897054D02*
X9400161Y-24944673D01*
X9400161Y-24944673D02*
X9390637Y-24982768D01*
X9390637Y-24982768D02*
X9381113Y-25001816D01*
X9381113Y-25001816D02*
X9371589Y-25011340D01*
X9371589Y-25011340D02*
X9352542Y-25020864D01*
X9352542Y-25020864D02*
X9333494Y-25020864D01*
X9333494Y-25020864D02*
X9314447Y-25011340D01*
X9314447Y-25011340D02*
X9304923Y-25001816D01*
X9304923Y-25001816D02*
X9295399Y-24982768D01*
X9295399Y-24982768D02*
X9285875Y-24944673D01*
X9285875Y-24944673D02*
X9285875Y-24897054D01*
X9285875Y-24897054D02*
X9295399Y-24858959D01*
X9295399Y-24858959D02*
X9304923Y-24839911D01*
X9304923Y-24839911D02*
X9314447Y-24830388D01*
X9314447Y-24830388D02*
X9333494Y-24820864D01*
X9485875Y-25001816D02*
X9495399Y-25011340D01*
X9495399Y-25011340D02*
X9485875Y-25020864D01*
X9485875Y-25020864D02*
X9476351Y-25011340D01*
X9476351Y-25011340D02*
X9485875Y-25001816D01*
X9485875Y-25001816D02*
X9485875Y-25020864D01*
X9619208Y-24820864D02*
X9638256Y-24820864D01*
X9638256Y-24820864D02*
X9657304Y-24830388D01*
X9657304Y-24830388D02*
X9666828Y-24839911D01*
X9666828Y-24839911D02*
X9676351Y-24858959D01*
X9676351Y-24858959D02*
X9685875Y-24897054D01*
X9685875Y-24897054D02*
X9685875Y-24944673D01*
X9685875Y-24944673D02*
X9676351Y-24982768D01*
X9676351Y-24982768D02*
X9666828Y-25001816D01*
X9666828Y-25001816D02*
X9657304Y-25011340D01*
X9657304Y-25011340D02*
X9638256Y-25020864D01*
X9638256Y-25020864D02*
X9619208Y-25020864D01*
X9619208Y-25020864D02*
X9600161Y-25011340D01*
X9600161Y-25011340D02*
X9590637Y-25001816D01*
X9590637Y-25001816D02*
X9581113Y-24982768D01*
X9581113Y-24982768D02*
X9571589Y-24944673D01*
X9571589Y-24944673D02*
X9571589Y-24897054D01*
X9571589Y-24897054D02*
X9581113Y-24858959D01*
X9581113Y-24858959D02*
X9590637Y-24839911D01*
X9590637Y-24839911D02*
X9600161Y-24830388D01*
X9600161Y-24830388D02*
X9619208Y-24820864D01*
X9752542Y-24820864D02*
X9885875Y-24820864D01*
X9885875Y-24820864D02*
X9800161Y-25020864D01*
X9990637Y-24906578D02*
X9971589Y-24897054D01*
X9971589Y-24897054D02*
X9962066Y-24887530D01*
X9962066Y-24887530D02*
X9952542Y-24868483D01*
X9952542Y-24868483D02*
X9952542Y-24858959D01*
X9952542Y-24858959D02*
X9962066Y-24839911D01*
X9962066Y-24839911D02*
X9971589Y-24830388D01*
X9971589Y-24830388D02*
X9990637Y-24820864D01*
X9990637Y-24820864D02*
X10028732Y-24820864D01*
X10028732Y-24820864D02*
X10047780Y-24830388D01*
X10047780Y-24830388D02*
X10057304Y-24839911D01*
X10057304Y-24839911D02*
X10066828Y-24858959D01*
X10066828Y-24858959D02*
X10066828Y-24868483D01*
X10066828Y-24868483D02*
X10057304Y-24887530D01*
X10057304Y-24887530D02*
X10047780Y-24897054D01*
X10047780Y-24897054D02*
X10028732Y-24906578D01*
X10028732Y-24906578D02*
X9990637Y-24906578D01*
X9990637Y-24906578D02*
X9971589Y-24916102D01*
X9971589Y-24916102D02*
X9962066Y-24925626D01*
X9962066Y-24925626D02*
X9952542Y-24944673D01*
X9952542Y-24944673D02*
X9952542Y-24982768D01*
X9952542Y-24982768D02*
X9962066Y-25001816D01*
X9962066Y-25001816D02*
X9971589Y-25011340D01*
X9971589Y-25011340D02*
X9990637Y-25020864D01*
X9990637Y-25020864D02*
X10028732Y-25020864D01*
X10028732Y-25020864D02*
X10047780Y-25011340D01*
X10047780Y-25011340D02*
X10057304Y-25001816D01*
X10057304Y-25001816D02*
X10066828Y-24982768D01*
X10066828Y-24982768D02*
X10066828Y-24944673D01*
X10066828Y-24944673D02*
X10057304Y-24925626D01*
X10057304Y-24925626D02*
X10047780Y-24916102D01*
X10047780Y-24916102D02*
X10028732Y-24906578D01*
X10133494Y-24820864D02*
X10266828Y-24820864D01*
X10266828Y-24820864D02*
X10181113Y-25020864D01*
X10333494Y-24820864D02*
X10333494Y-24858959D01*
X10409685Y-24820864D02*
X10409685Y-24858959D01*
X10704923Y-25097054D02*
X10695399Y-25087530D01*
X10695399Y-25087530D02*
X10676351Y-25058959D01*
X10676351Y-25058959D02*
X10666828Y-25039911D01*
X10666828Y-25039911D02*
X10657304Y-25011340D01*
X10657304Y-25011340D02*
X10647780Y-24963721D01*
X10647780Y-24963721D02*
X10647780Y-24925626D01*
X10647780Y-24925626D02*
X10657304Y-24878007D01*
X10657304Y-24878007D02*
X10666828Y-24849435D01*
X10666828Y-24849435D02*
X10676351Y-24830388D01*
X10676351Y-24830388D02*
X10695399Y-24801816D01*
X10695399Y-24801816D02*
X10704923Y-24792292D01*
X10866828Y-24887530D02*
X10866828Y-25020864D01*
X10819209Y-24811340D02*
X10771590Y-24954197D01*
X10771590Y-24954197D02*
X10895399Y-24954197D01*
X11123971Y-25020864D02*
X11123971Y-24820864D01*
X11209685Y-25020864D02*
X11209685Y-24916102D01*
X11209685Y-24916102D02*
X11200161Y-24897054D01*
X11200161Y-24897054D02*
X11181113Y-24887530D01*
X11181113Y-24887530D02*
X11152542Y-24887530D01*
X11152542Y-24887530D02*
X11133494Y-24897054D01*
X11133494Y-24897054D02*
X11123971Y-24906578D01*
X11333494Y-25020864D02*
X11314447Y-25011340D01*
X11314447Y-25011340D02*
X11304923Y-25001816D01*
X11304923Y-25001816D02*
X11295399Y-24982768D01*
X11295399Y-24982768D02*
X11295399Y-24925626D01*
X11295399Y-24925626D02*
X11304923Y-24906578D01*
X11304923Y-24906578D02*
X11314447Y-24897054D01*
X11314447Y-24897054D02*
X11333494Y-24887530D01*
X11333494Y-24887530D02*
X11362066Y-24887530D01*
X11362066Y-24887530D02*
X11381113Y-24897054D01*
X11381113Y-24897054D02*
X11390637Y-24906578D01*
X11390637Y-24906578D02*
X11400161Y-24925626D01*
X11400161Y-24925626D02*
X11400161Y-24982768D01*
X11400161Y-24982768D02*
X11390637Y-25001816D01*
X11390637Y-25001816D02*
X11381113Y-25011340D01*
X11381113Y-25011340D02*
X11362066Y-25020864D01*
X11362066Y-25020864D02*
X11333494Y-25020864D01*
X11514447Y-25020864D02*
X11495399Y-25011340D01*
X11495399Y-25011340D02*
X11485875Y-24992292D01*
X11485875Y-24992292D02*
X11485875Y-24820864D01*
X11666828Y-25011340D02*
X11647780Y-25020864D01*
X11647780Y-25020864D02*
X11609685Y-25020864D01*
X11609685Y-25020864D02*
X11590637Y-25011340D01*
X11590637Y-25011340D02*
X11581113Y-24992292D01*
X11581113Y-24992292D02*
X11581113Y-24916102D01*
X11581113Y-24916102D02*
X11590637Y-24897054D01*
X11590637Y-24897054D02*
X11609685Y-24887530D01*
X11609685Y-24887530D02*
X11647780Y-24887530D01*
X11647780Y-24887530D02*
X11666828Y-24897054D01*
X11666828Y-24897054D02*
X11676351Y-24916102D01*
X11676351Y-24916102D02*
X11676351Y-24935149D01*
X11676351Y-24935149D02*
X11581113Y-24954197D01*
X11752542Y-25011340D02*
X11771590Y-25020864D01*
X11771590Y-25020864D02*
X11809685Y-25020864D01*
X11809685Y-25020864D02*
X11828732Y-25011340D01*
X11828732Y-25011340D02*
X11838256Y-24992292D01*
X11838256Y-24992292D02*
X11838256Y-24982768D01*
X11838256Y-24982768D02*
X11828732Y-24963721D01*
X11828732Y-24963721D02*
X11809685Y-24954197D01*
X11809685Y-24954197D02*
X11781113Y-24954197D01*
X11781113Y-24954197D02*
X11762066Y-24944673D01*
X11762066Y-24944673D02*
X11752542Y-24925626D01*
X11752542Y-24925626D02*
X11752542Y-24916102D01*
X11752542Y-24916102D02*
X11762066Y-24897054D01*
X11762066Y-24897054D02*
X11781113Y-24887530D01*
X11781113Y-24887530D02*
X11809685Y-24887530D01*
X11809685Y-24887530D02*
X11828732Y-24897054D01*
X11904923Y-25097054D02*
X11914447Y-25087530D01*
X11914447Y-25087530D02*
X11933494Y-25058959D01*
X11933494Y-25058959D02*
X11943018Y-25039911D01*
X11943018Y-25039911D02*
X11952542Y-25011340D01*
X11952542Y-25011340D02*
X11962066Y-24963721D01*
X11962066Y-24963721D02*
X11962066Y-24925626D01*
X11962066Y-24925626D02*
X11952542Y-24878007D01*
X11952542Y-24878007D02*
X11943018Y-24849435D01*
X11943018Y-24849435D02*
X11933494Y-24830388D01*
X11933494Y-24830388D02*
X11914447Y-24801816D01*
X11914447Y-24801816D02*
X11904923Y-24792292D01*
X6929860Y-25149380D02*
X7129860Y-25349380D01*
X7129860Y-25149380D02*
X6929860Y-25349380D01*
X7029860Y-25349380D02*
X7129860Y-25249380D01*
X7029860Y-25149380D01*
X6929860Y-25249380D01*
X7029860Y-25349380D01*
X7381113Y-25159911D02*
X7390637Y-25150388D01*
X7390637Y-25150388D02*
X7409684Y-25140864D01*
X7409684Y-25140864D02*
X7457303Y-25140864D01*
X7457303Y-25140864D02*
X7476351Y-25150388D01*
X7476351Y-25150388D02*
X7485875Y-25159911D01*
X7485875Y-25159911D02*
X7495399Y-25178959D01*
X7495399Y-25178959D02*
X7495399Y-25198007D01*
X7495399Y-25198007D02*
X7485875Y-25226578D01*
X7485875Y-25226578D02*
X7371589Y-25340864D01*
X7371589Y-25340864D02*
X7495399Y-25340864D01*
X7581113Y-25321816D02*
X7590637Y-25331340D01*
X7590637Y-25331340D02*
X7581113Y-25340864D01*
X7581113Y-25340864D02*
X7571589Y-25331340D01*
X7571589Y-25331340D02*
X7581113Y-25321816D01*
X7581113Y-25321816D02*
X7581113Y-25340864D01*
X7771589Y-25140864D02*
X7676351Y-25140864D01*
X7676351Y-25140864D02*
X7666827Y-25236102D01*
X7666827Y-25236102D02*
X7676351Y-25226578D01*
X7676351Y-25226578D02*
X7695399Y-25217054D01*
X7695399Y-25217054D02*
X7743018Y-25217054D01*
X7743018Y-25217054D02*
X7762065Y-25226578D01*
X7762065Y-25226578D02*
X7771589Y-25236102D01*
X7771589Y-25236102D02*
X7781113Y-25255149D01*
X7781113Y-25255149D02*
X7781113Y-25302768D01*
X7781113Y-25302768D02*
X7771589Y-25321816D01*
X7771589Y-25321816D02*
X7762065Y-25331340D01*
X7762065Y-25331340D02*
X7743018Y-25340864D01*
X7743018Y-25340864D02*
X7695399Y-25340864D01*
X7695399Y-25340864D02*
X7676351Y-25331340D01*
X7676351Y-25331340D02*
X7666827Y-25321816D01*
X7952542Y-25207530D02*
X7952542Y-25340864D01*
X7904922Y-25131340D02*
X7857303Y-25274197D01*
X7857303Y-25274197D02*
X7981113Y-25274197D01*
X8095399Y-25140864D02*
X8114446Y-25140864D01*
X8114446Y-25140864D02*
X8133494Y-25150388D01*
X8133494Y-25150388D02*
X8143018Y-25159911D01*
X8143018Y-25159911D02*
X8152542Y-25178959D01*
X8152542Y-25178959D02*
X8162065Y-25217054D01*
X8162065Y-25217054D02*
X8162065Y-25264673D01*
X8162065Y-25264673D02*
X8152542Y-25302768D01*
X8152542Y-25302768D02*
X8143018Y-25321816D01*
X8143018Y-25321816D02*
X8133494Y-25331340D01*
X8133494Y-25331340D02*
X8114446Y-25340864D01*
X8114446Y-25340864D02*
X8095399Y-25340864D01*
X8095399Y-25340864D02*
X8076351Y-25331340D01*
X8076351Y-25331340D02*
X8066827Y-25321816D01*
X8066827Y-25321816D02*
X8057303Y-25302768D01*
X8057303Y-25302768D02*
X8047780Y-25264673D01*
X8047780Y-25264673D02*
X8047780Y-25217054D01*
X8047780Y-25217054D02*
X8057303Y-25178959D01*
X8057303Y-25178959D02*
X8066827Y-25159911D01*
X8066827Y-25159911D02*
X8076351Y-25150388D01*
X8076351Y-25150388D02*
X8095399Y-25140864D01*
X8247780Y-25340864D02*
X8247780Y-25207530D01*
X8247780Y-25226578D02*
X8257303Y-25217054D01*
X8257303Y-25217054D02*
X8276351Y-25207530D01*
X8276351Y-25207530D02*
X8304923Y-25207530D01*
X8304923Y-25207530D02*
X8323970Y-25217054D01*
X8323970Y-25217054D02*
X8333494Y-25236102D01*
X8333494Y-25236102D02*
X8333494Y-25340864D01*
X8333494Y-25236102D02*
X8343018Y-25217054D01*
X8343018Y-25217054D02*
X8362065Y-25207530D01*
X8362065Y-25207530D02*
X8390637Y-25207530D01*
X8390637Y-25207530D02*
X8409685Y-25217054D01*
X8409685Y-25217054D02*
X8419208Y-25236102D01*
X8419208Y-25236102D02*
X8419208Y-25340864D01*
X8514446Y-25340864D02*
X8514446Y-25207530D01*
X8514446Y-25226578D02*
X8523970Y-25217054D01*
X8523970Y-25217054D02*
X8543018Y-25207530D01*
X8543018Y-25207530D02*
X8571589Y-25207530D01*
X8571589Y-25207530D02*
X8590637Y-25217054D01*
X8590637Y-25217054D02*
X8600161Y-25236102D01*
X8600161Y-25236102D02*
X8600161Y-25340864D01*
X8600161Y-25236102D02*
X8609685Y-25217054D01*
X8609685Y-25217054D02*
X8628732Y-25207530D01*
X8628732Y-25207530D02*
X8657304Y-25207530D01*
X8657304Y-25207530D02*
X8676351Y-25217054D01*
X8676351Y-25217054D02*
X8685875Y-25236102D01*
X8685875Y-25236102D02*
X8685875Y-25340864D01*
X9076351Y-25131340D02*
X8904923Y-25388483D01*
X9333494Y-25140864D02*
X9352542Y-25140864D01*
X9352542Y-25140864D02*
X9371589Y-25150388D01*
X9371589Y-25150388D02*
X9381113Y-25159911D01*
X9381113Y-25159911D02*
X9390637Y-25178959D01*
X9390637Y-25178959D02*
X9400161Y-25217054D01*
X9400161Y-25217054D02*
X9400161Y-25264673D01*
X9400161Y-25264673D02*
X9390637Y-25302768D01*
X9390637Y-25302768D02*
X9381113Y-25321816D01*
X9381113Y-25321816D02*
X9371589Y-25331340D01*
X9371589Y-25331340D02*
X9352542Y-25340864D01*
X9352542Y-25340864D02*
X9333494Y-25340864D01*
X9333494Y-25340864D02*
X9314447Y-25331340D01*
X9314447Y-25331340D02*
X9304923Y-25321816D01*
X9304923Y-25321816D02*
X9295399Y-25302768D01*
X9295399Y-25302768D02*
X9285875Y-25264673D01*
X9285875Y-25264673D02*
X9285875Y-25217054D01*
X9285875Y-25217054D02*
X9295399Y-25178959D01*
X9295399Y-25178959D02*
X9304923Y-25159911D01*
X9304923Y-25159911D02*
X9314447Y-25150388D01*
X9314447Y-25150388D02*
X9333494Y-25140864D01*
X9485875Y-25321816D02*
X9495399Y-25331340D01*
X9495399Y-25331340D02*
X9485875Y-25340864D01*
X9485875Y-25340864D02*
X9476351Y-25331340D01*
X9476351Y-25331340D02*
X9485875Y-25321816D01*
X9485875Y-25321816D02*
X9485875Y-25340864D01*
X9685875Y-25340864D02*
X9571589Y-25340864D01*
X9628732Y-25340864D02*
X9628732Y-25140864D01*
X9628732Y-25140864D02*
X9609685Y-25169435D01*
X9609685Y-25169435D02*
X9590637Y-25188483D01*
X9590637Y-25188483D02*
X9571589Y-25198007D01*
X9809685Y-25140864D02*
X9828732Y-25140864D01*
X9828732Y-25140864D02*
X9847780Y-25150388D01*
X9847780Y-25150388D02*
X9857304Y-25159911D01*
X9857304Y-25159911D02*
X9866828Y-25178959D01*
X9866828Y-25178959D02*
X9876351Y-25217054D01*
X9876351Y-25217054D02*
X9876351Y-25264673D01*
X9876351Y-25264673D02*
X9866828Y-25302768D01*
X9866828Y-25302768D02*
X9857304Y-25321816D01*
X9857304Y-25321816D02*
X9847780Y-25331340D01*
X9847780Y-25331340D02*
X9828732Y-25340864D01*
X9828732Y-25340864D02*
X9809685Y-25340864D01*
X9809685Y-25340864D02*
X9790637Y-25331340D01*
X9790637Y-25331340D02*
X9781113Y-25321816D01*
X9781113Y-25321816D02*
X9771589Y-25302768D01*
X9771589Y-25302768D02*
X9762066Y-25264673D01*
X9762066Y-25264673D02*
X9762066Y-25217054D01*
X9762066Y-25217054D02*
X9771589Y-25178959D01*
X9771589Y-25178959D02*
X9781113Y-25159911D01*
X9781113Y-25159911D02*
X9790637Y-25150388D01*
X9790637Y-25150388D02*
X9809685Y-25140864D01*
X10000161Y-25140864D02*
X10019209Y-25140864D01*
X10019209Y-25140864D02*
X10038256Y-25150388D01*
X10038256Y-25150388D02*
X10047780Y-25159911D01*
X10047780Y-25159911D02*
X10057304Y-25178959D01*
X10057304Y-25178959D02*
X10066828Y-25217054D01*
X10066828Y-25217054D02*
X10066828Y-25264673D01*
X10066828Y-25264673D02*
X10057304Y-25302768D01*
X10057304Y-25302768D02*
X10047780Y-25321816D01*
X10047780Y-25321816D02*
X10038256Y-25331340D01*
X10038256Y-25331340D02*
X10019209Y-25340864D01*
X10019209Y-25340864D02*
X10000161Y-25340864D01*
X10000161Y-25340864D02*
X9981113Y-25331340D01*
X9981113Y-25331340D02*
X9971589Y-25321816D01*
X9971589Y-25321816D02*
X9962066Y-25302768D01*
X9962066Y-25302768D02*
X9952542Y-25264673D01*
X9952542Y-25264673D02*
X9952542Y-25217054D01*
X9952542Y-25217054D02*
X9962066Y-25178959D01*
X9962066Y-25178959D02*
X9971589Y-25159911D01*
X9971589Y-25159911D02*
X9981113Y-25150388D01*
X9981113Y-25150388D02*
X10000161Y-25140864D01*
X10190637Y-25140864D02*
X10209685Y-25140864D01*
X10209685Y-25140864D02*
X10228732Y-25150388D01*
X10228732Y-25150388D02*
X10238256Y-25159911D01*
X10238256Y-25159911D02*
X10247780Y-25178959D01*
X10247780Y-25178959D02*
X10257304Y-25217054D01*
X10257304Y-25217054D02*
X10257304Y-25264673D01*
X10257304Y-25264673D02*
X10247780Y-25302768D01*
X10247780Y-25302768D02*
X10238256Y-25321816D01*
X10238256Y-25321816D02*
X10228732Y-25331340D01*
X10228732Y-25331340D02*
X10209685Y-25340864D01*
X10209685Y-25340864D02*
X10190637Y-25340864D01*
X10190637Y-25340864D02*
X10171589Y-25331340D01*
X10171589Y-25331340D02*
X10162066Y-25321816D01*
X10162066Y-25321816D02*
X10152542Y-25302768D01*
X10152542Y-25302768D02*
X10143018Y-25264673D01*
X10143018Y-25264673D02*
X10143018Y-25217054D01*
X10143018Y-25217054D02*
X10152542Y-25178959D01*
X10152542Y-25178959D02*
X10162066Y-25159911D01*
X10162066Y-25159911D02*
X10171589Y-25150388D01*
X10171589Y-25150388D02*
X10190637Y-25140864D01*
X10333494Y-25140864D02*
X10333494Y-25178959D01*
X10409685Y-25140864D02*
X10409685Y-25178959D01*
X10704923Y-25417054D02*
X10695399Y-25407530D01*
X10695399Y-25407530D02*
X10676351Y-25378959D01*
X10676351Y-25378959D02*
X10666828Y-25359911D01*
X10666828Y-25359911D02*
X10657304Y-25331340D01*
X10657304Y-25331340D02*
X10647780Y-25283721D01*
X10647780Y-25283721D02*
X10647780Y-25245626D01*
X10647780Y-25245626D02*
X10657304Y-25198007D01*
X10657304Y-25198007D02*
X10666828Y-25169435D01*
X10666828Y-25169435D02*
X10676351Y-25150388D01*
X10676351Y-25150388D02*
X10695399Y-25121816D01*
X10695399Y-25121816D02*
X10704923Y-25112292D01*
X10771590Y-25159911D02*
X10781113Y-25150388D01*
X10781113Y-25150388D02*
X10800161Y-25140864D01*
X10800161Y-25140864D02*
X10847780Y-25140864D01*
X10847780Y-25140864D02*
X10866828Y-25150388D01*
X10866828Y-25150388D02*
X10876351Y-25159911D01*
X10876351Y-25159911D02*
X10885875Y-25178959D01*
X10885875Y-25178959D02*
X10885875Y-25198007D01*
X10885875Y-25198007D02*
X10876351Y-25226578D01*
X10876351Y-25226578D02*
X10762066Y-25340864D01*
X10762066Y-25340864D02*
X10885875Y-25340864D01*
X11009685Y-25140864D02*
X11028732Y-25140864D01*
X11028732Y-25140864D02*
X11047780Y-25150388D01*
X11047780Y-25150388D02*
X11057304Y-25159911D01*
X11057304Y-25159911D02*
X11066828Y-25178959D01*
X11066828Y-25178959D02*
X11076351Y-25217054D01*
X11076351Y-25217054D02*
X11076351Y-25264673D01*
X11076351Y-25264673D02*
X11066828Y-25302768D01*
X11066828Y-25302768D02*
X11057304Y-25321816D01*
X11057304Y-25321816D02*
X11047780Y-25331340D01*
X11047780Y-25331340D02*
X11028732Y-25340864D01*
X11028732Y-25340864D02*
X11009685Y-25340864D01*
X11009685Y-25340864D02*
X10990637Y-25331340D01*
X10990637Y-25331340D02*
X10981113Y-25321816D01*
X10981113Y-25321816D02*
X10971590Y-25302768D01*
X10971590Y-25302768D02*
X10962066Y-25264673D01*
X10962066Y-25264673D02*
X10962066Y-25217054D01*
X10962066Y-25217054D02*
X10971590Y-25178959D01*
X10971590Y-25178959D02*
X10981113Y-25159911D01*
X10981113Y-25159911D02*
X10990637Y-25150388D01*
X10990637Y-25150388D02*
X11009685Y-25140864D01*
X11314447Y-25340864D02*
X11314447Y-25140864D01*
X11400161Y-25340864D02*
X11400161Y-25236102D01*
X11400161Y-25236102D02*
X11390637Y-25217054D01*
X11390637Y-25217054D02*
X11371590Y-25207530D01*
X11371590Y-25207530D02*
X11343018Y-25207530D01*
X11343018Y-25207530D02*
X11323970Y-25217054D01*
X11323970Y-25217054D02*
X11314447Y-25226578D01*
X11523970Y-25340864D02*
X11504923Y-25331340D01*
X11504923Y-25331340D02*
X11495399Y-25321816D01*
X11495399Y-25321816D02*
X11485875Y-25302768D01*
X11485875Y-25302768D02*
X11485875Y-25245626D01*
X11485875Y-25245626D02*
X11495399Y-25226578D01*
X11495399Y-25226578D02*
X11504923Y-25217054D01*
X11504923Y-25217054D02*
X11523970Y-25207530D01*
X11523970Y-25207530D02*
X11552542Y-25207530D01*
X11552542Y-25207530D02*
X11571590Y-25217054D01*
X11571590Y-25217054D02*
X11581113Y-25226578D01*
X11581113Y-25226578D02*
X11590637Y-25245626D01*
X11590637Y-25245626D02*
X11590637Y-25302768D01*
X11590637Y-25302768D02*
X11581113Y-25321816D01*
X11581113Y-25321816D02*
X11571590Y-25331340D01*
X11571590Y-25331340D02*
X11552542Y-25340864D01*
X11552542Y-25340864D02*
X11523970Y-25340864D01*
X11704923Y-25340864D02*
X11685875Y-25331340D01*
X11685875Y-25331340D02*
X11676351Y-25312292D01*
X11676351Y-25312292D02*
X11676351Y-25140864D01*
X11857304Y-25331340D02*
X11838256Y-25340864D01*
X11838256Y-25340864D02*
X11800161Y-25340864D01*
X11800161Y-25340864D02*
X11781113Y-25331340D01*
X11781113Y-25331340D02*
X11771590Y-25312292D01*
X11771590Y-25312292D02*
X11771590Y-25236102D01*
X11771590Y-25236102D02*
X11781113Y-25217054D01*
X11781113Y-25217054D02*
X11800161Y-25207530D01*
X11800161Y-25207530D02*
X11838256Y-25207530D01*
X11838256Y-25207530D02*
X11857304Y-25217054D01*
X11857304Y-25217054D02*
X11866828Y-25236102D01*
X11866828Y-25236102D02*
X11866828Y-25255149D01*
X11866828Y-25255149D02*
X11771590Y-25274197D01*
X11943018Y-25331340D02*
X11962066Y-25340864D01*
X11962066Y-25340864D02*
X12000161Y-25340864D01*
X12000161Y-25340864D02*
X12019209Y-25331340D01*
X12019209Y-25331340D02*
X12028732Y-25312292D01*
X12028732Y-25312292D02*
X12028732Y-25302768D01*
X12028732Y-25302768D02*
X12019209Y-25283721D01*
X12019209Y-25283721D02*
X12000161Y-25274197D01*
X12000161Y-25274197D02*
X11971590Y-25274197D01*
X11971590Y-25274197D02*
X11952542Y-25264673D01*
X11952542Y-25264673D02*
X11943018Y-25245626D01*
X11943018Y-25245626D02*
X11943018Y-25236102D01*
X11943018Y-25236102D02*
X11952542Y-25217054D01*
X11952542Y-25217054D02*
X11971590Y-25207530D01*
X11971590Y-25207530D02*
X12000161Y-25207530D01*
X12000161Y-25207530D02*
X12019209Y-25217054D01*
X12095399Y-25417054D02*
X12104923Y-25407530D01*
X12104923Y-25407530D02*
X12123971Y-25378959D01*
X12123971Y-25378959D02*
X12133494Y-25359911D01*
X12133494Y-25359911D02*
X12143018Y-25331340D01*
X12143018Y-25331340D02*
X12152542Y-25283721D01*
X12152542Y-25283721D02*
X12152542Y-25245626D01*
X12152542Y-25245626D02*
X12143018Y-25198007D01*
X12143018Y-25198007D02*
X12133494Y-25169435D01*
X12133494Y-25169435D02*
X12123971Y-25150388D01*
X12123971Y-25150388D02*
X12104923Y-25121816D01*
X12104923Y-25121816D02*
X12095399Y-25112292D01*
X7029860Y-25469380D02*
X7029860Y-25669380D01*
X6929860Y-25569380D02*
X7129860Y-25569380D01*
X7129860Y-25569380D02*
G75*
G03*
X6929860Y-25569380I-100000J0D01*
G01*
X6929860Y-25569380D02*
G75*
G03*
X7129860Y-25569380I100000J0D01*
G01*
X7485875Y-25460864D02*
X7390637Y-25460864D01*
X7390637Y-25460864D02*
X7381113Y-25556102D01*
X7381113Y-25556102D02*
X7390637Y-25546578D01*
X7390637Y-25546578D02*
X7409684Y-25537054D01*
X7409684Y-25537054D02*
X7457303Y-25537054D01*
X7457303Y-25537054D02*
X7476351Y-25546578D01*
X7476351Y-25546578D02*
X7485875Y-25556102D01*
X7485875Y-25556102D02*
X7495399Y-25575149D01*
X7495399Y-25575149D02*
X7495399Y-25622768D01*
X7495399Y-25622768D02*
X7485875Y-25641816D01*
X7485875Y-25641816D02*
X7476351Y-25651340D01*
X7476351Y-25651340D02*
X7457303Y-25660864D01*
X7457303Y-25660864D02*
X7409684Y-25660864D01*
X7409684Y-25660864D02*
X7390637Y-25651340D01*
X7390637Y-25651340D02*
X7381113Y-25641816D01*
X7581113Y-25641816D02*
X7590637Y-25651340D01*
X7590637Y-25651340D02*
X7581113Y-25660864D01*
X7581113Y-25660864D02*
X7571589Y-25651340D01*
X7571589Y-25651340D02*
X7581113Y-25641816D01*
X7581113Y-25641816D02*
X7581113Y-25660864D01*
X7657303Y-25460864D02*
X7781113Y-25460864D01*
X7781113Y-25460864D02*
X7714446Y-25537054D01*
X7714446Y-25537054D02*
X7743018Y-25537054D01*
X7743018Y-25537054D02*
X7762065Y-25546578D01*
X7762065Y-25546578D02*
X7771589Y-25556102D01*
X7771589Y-25556102D02*
X7781113Y-25575149D01*
X7781113Y-25575149D02*
X7781113Y-25622768D01*
X7781113Y-25622768D02*
X7771589Y-25641816D01*
X7771589Y-25641816D02*
X7762065Y-25651340D01*
X7762065Y-25651340D02*
X7743018Y-25660864D01*
X7743018Y-25660864D02*
X7685875Y-25660864D01*
X7685875Y-25660864D02*
X7666827Y-25651340D01*
X7666827Y-25651340D02*
X7657303Y-25641816D01*
X7904922Y-25460864D02*
X7923970Y-25460864D01*
X7923970Y-25460864D02*
X7943018Y-25470388D01*
X7943018Y-25470388D02*
X7952542Y-25479911D01*
X7952542Y-25479911D02*
X7962065Y-25498959D01*
X7962065Y-25498959D02*
X7971589Y-25537054D01*
X7971589Y-25537054D02*
X7971589Y-25584673D01*
X7971589Y-25584673D02*
X7962065Y-25622768D01*
X7962065Y-25622768D02*
X7952542Y-25641816D01*
X7952542Y-25641816D02*
X7943018Y-25651340D01*
X7943018Y-25651340D02*
X7923970Y-25660864D01*
X7923970Y-25660864D02*
X7904922Y-25660864D01*
X7904922Y-25660864D02*
X7885875Y-25651340D01*
X7885875Y-25651340D02*
X7876351Y-25641816D01*
X7876351Y-25641816D02*
X7866827Y-25622768D01*
X7866827Y-25622768D02*
X7857303Y-25584673D01*
X7857303Y-25584673D02*
X7857303Y-25537054D01*
X7857303Y-25537054D02*
X7866827Y-25498959D01*
X7866827Y-25498959D02*
X7876351Y-25479911D01*
X7876351Y-25479911D02*
X7885875Y-25470388D01*
X7885875Y-25470388D02*
X7904922Y-25460864D01*
X8095399Y-25460864D02*
X8114446Y-25460864D01*
X8114446Y-25460864D02*
X8133494Y-25470388D01*
X8133494Y-25470388D02*
X8143018Y-25479911D01*
X8143018Y-25479911D02*
X8152542Y-25498959D01*
X8152542Y-25498959D02*
X8162065Y-25537054D01*
X8162065Y-25537054D02*
X8162065Y-25584673D01*
X8162065Y-25584673D02*
X8152542Y-25622768D01*
X8152542Y-25622768D02*
X8143018Y-25641816D01*
X8143018Y-25641816D02*
X8133494Y-25651340D01*
X8133494Y-25651340D02*
X8114446Y-25660864D01*
X8114446Y-25660864D02*
X8095399Y-25660864D01*
X8095399Y-25660864D02*
X8076351Y-25651340D01*
X8076351Y-25651340D02*
X8066827Y-25641816D01*
X8066827Y-25641816D02*
X8057303Y-25622768D01*
X8057303Y-25622768D02*
X8047780Y-25584673D01*
X8047780Y-25584673D02*
X8047780Y-25537054D01*
X8047780Y-25537054D02*
X8057303Y-25498959D01*
X8057303Y-25498959D02*
X8066827Y-25479911D01*
X8066827Y-25479911D02*
X8076351Y-25470388D01*
X8076351Y-25470388D02*
X8095399Y-25460864D01*
X8247780Y-25660864D02*
X8247780Y-25527530D01*
X8247780Y-25546578D02*
X8257303Y-25537054D01*
X8257303Y-25537054D02*
X8276351Y-25527530D01*
X8276351Y-25527530D02*
X8304923Y-25527530D01*
X8304923Y-25527530D02*
X8323970Y-25537054D01*
X8323970Y-25537054D02*
X8333494Y-25556102D01*
X8333494Y-25556102D02*
X8333494Y-25660864D01*
X8333494Y-25556102D02*
X8343018Y-25537054D01*
X8343018Y-25537054D02*
X8362065Y-25527530D01*
X8362065Y-25527530D02*
X8390637Y-25527530D01*
X8390637Y-25527530D02*
X8409685Y-25537054D01*
X8409685Y-25537054D02*
X8419208Y-25556102D01*
X8419208Y-25556102D02*
X8419208Y-25660864D01*
X8514446Y-25660864D02*
X8514446Y-25527530D01*
X8514446Y-25546578D02*
X8523970Y-25537054D01*
X8523970Y-25537054D02*
X8543018Y-25527530D01*
X8543018Y-25527530D02*
X8571589Y-25527530D01*
X8571589Y-25527530D02*
X8590637Y-25537054D01*
X8590637Y-25537054D02*
X8600161Y-25556102D01*
X8600161Y-25556102D02*
X8600161Y-25660864D01*
X8600161Y-25556102D02*
X8609685Y-25537054D01*
X8609685Y-25537054D02*
X8628732Y-25527530D01*
X8628732Y-25527530D02*
X8657304Y-25527530D01*
X8657304Y-25527530D02*
X8676351Y-25537054D01*
X8676351Y-25537054D02*
X8685875Y-25556102D01*
X8685875Y-25556102D02*
X8685875Y-25660864D01*
X9076351Y-25451340D02*
X8904923Y-25708483D01*
X9333494Y-25460864D02*
X9352542Y-25460864D01*
X9352542Y-25460864D02*
X9371589Y-25470388D01*
X9371589Y-25470388D02*
X9381113Y-25479911D01*
X9381113Y-25479911D02*
X9390637Y-25498959D01*
X9390637Y-25498959D02*
X9400161Y-25537054D01*
X9400161Y-25537054D02*
X9400161Y-25584673D01*
X9400161Y-25584673D02*
X9390637Y-25622768D01*
X9390637Y-25622768D02*
X9381113Y-25641816D01*
X9381113Y-25641816D02*
X9371589Y-25651340D01*
X9371589Y-25651340D02*
X9352542Y-25660864D01*
X9352542Y-25660864D02*
X9333494Y-25660864D01*
X9333494Y-25660864D02*
X9314447Y-25651340D01*
X9314447Y-25651340D02*
X9304923Y-25641816D01*
X9304923Y-25641816D02*
X9295399Y-25622768D01*
X9295399Y-25622768D02*
X9285875Y-25584673D01*
X9285875Y-25584673D02*
X9285875Y-25537054D01*
X9285875Y-25537054D02*
X9295399Y-25498959D01*
X9295399Y-25498959D02*
X9304923Y-25479911D01*
X9304923Y-25479911D02*
X9314447Y-25470388D01*
X9314447Y-25470388D02*
X9333494Y-25460864D01*
X9485875Y-25641816D02*
X9495399Y-25651340D01*
X9495399Y-25651340D02*
X9485875Y-25660864D01*
X9485875Y-25660864D02*
X9476351Y-25651340D01*
X9476351Y-25651340D02*
X9485875Y-25641816D01*
X9485875Y-25641816D02*
X9485875Y-25660864D01*
X9571589Y-25479911D02*
X9581113Y-25470388D01*
X9581113Y-25470388D02*
X9600161Y-25460864D01*
X9600161Y-25460864D02*
X9647780Y-25460864D01*
X9647780Y-25460864D02*
X9666828Y-25470388D01*
X9666828Y-25470388D02*
X9676351Y-25479911D01*
X9676351Y-25479911D02*
X9685875Y-25498959D01*
X9685875Y-25498959D02*
X9685875Y-25518007D01*
X9685875Y-25518007D02*
X9676351Y-25546578D01*
X9676351Y-25546578D02*
X9562066Y-25660864D01*
X9562066Y-25660864D02*
X9685875Y-25660864D01*
X9809685Y-25460864D02*
X9828732Y-25460864D01*
X9828732Y-25460864D02*
X9847780Y-25470388D01*
X9847780Y-25470388D02*
X9857304Y-25479911D01*
X9857304Y-25479911D02*
X9866828Y-25498959D01*
X9866828Y-25498959D02*
X9876351Y-25537054D01*
X9876351Y-25537054D02*
X9876351Y-25584673D01*
X9876351Y-25584673D02*
X9866828Y-25622768D01*
X9866828Y-25622768D02*
X9857304Y-25641816D01*
X9857304Y-25641816D02*
X9847780Y-25651340D01*
X9847780Y-25651340D02*
X9828732Y-25660864D01*
X9828732Y-25660864D02*
X9809685Y-25660864D01*
X9809685Y-25660864D02*
X9790637Y-25651340D01*
X9790637Y-25651340D02*
X9781113Y-25641816D01*
X9781113Y-25641816D02*
X9771589Y-25622768D01*
X9771589Y-25622768D02*
X9762066Y-25584673D01*
X9762066Y-25584673D02*
X9762066Y-25537054D01*
X9762066Y-25537054D02*
X9771589Y-25498959D01*
X9771589Y-25498959D02*
X9781113Y-25479911D01*
X9781113Y-25479911D02*
X9790637Y-25470388D01*
X9790637Y-25470388D02*
X9809685Y-25460864D01*
X9990637Y-25546578D02*
X9971589Y-25537054D01*
X9971589Y-25537054D02*
X9962066Y-25527530D01*
X9962066Y-25527530D02*
X9952542Y-25508483D01*
X9952542Y-25508483D02*
X9952542Y-25498959D01*
X9952542Y-25498959D02*
X9962066Y-25479911D01*
X9962066Y-25479911D02*
X9971589Y-25470388D01*
X9971589Y-25470388D02*
X9990637Y-25460864D01*
X9990637Y-25460864D02*
X10028732Y-25460864D01*
X10028732Y-25460864D02*
X10047780Y-25470388D01*
X10047780Y-25470388D02*
X10057304Y-25479911D01*
X10057304Y-25479911D02*
X10066828Y-25498959D01*
X10066828Y-25498959D02*
X10066828Y-25508483D01*
X10066828Y-25508483D02*
X10057304Y-25527530D01*
X10057304Y-25527530D02*
X10047780Y-25537054D01*
X10047780Y-25537054D02*
X10028732Y-25546578D01*
X10028732Y-25546578D02*
X9990637Y-25546578D01*
X9990637Y-25546578D02*
X9971589Y-25556102D01*
X9971589Y-25556102D02*
X9962066Y-25565626D01*
X9962066Y-25565626D02*
X9952542Y-25584673D01*
X9952542Y-25584673D02*
X9952542Y-25622768D01*
X9952542Y-25622768D02*
X9962066Y-25641816D01*
X9962066Y-25641816D02*
X9971589Y-25651340D01*
X9971589Y-25651340D02*
X9990637Y-25660864D01*
X9990637Y-25660864D02*
X10028732Y-25660864D01*
X10028732Y-25660864D02*
X10047780Y-25651340D01*
X10047780Y-25651340D02*
X10057304Y-25641816D01*
X10057304Y-25641816D02*
X10066828Y-25622768D01*
X10066828Y-25622768D02*
X10066828Y-25584673D01*
X10066828Y-25584673D02*
X10057304Y-25565626D01*
X10057304Y-25565626D02*
X10047780Y-25556102D01*
X10047780Y-25556102D02*
X10028732Y-25546578D01*
X10133494Y-25460864D02*
X10266828Y-25460864D01*
X10266828Y-25460864D02*
X10181113Y-25660864D01*
X10333494Y-25460864D02*
X10333494Y-25498959D01*
X10409685Y-25460864D02*
X10409685Y-25498959D01*
X10704923Y-25737054D02*
X10695399Y-25727530D01*
X10695399Y-25727530D02*
X10676351Y-25698959D01*
X10676351Y-25698959D02*
X10666828Y-25679911D01*
X10666828Y-25679911D02*
X10657304Y-25651340D01*
X10657304Y-25651340D02*
X10647780Y-25603721D01*
X10647780Y-25603721D02*
X10647780Y-25565626D01*
X10647780Y-25565626D02*
X10657304Y-25518007D01*
X10657304Y-25518007D02*
X10666828Y-25489435D01*
X10666828Y-25489435D02*
X10676351Y-25470388D01*
X10676351Y-25470388D02*
X10695399Y-25441816D01*
X10695399Y-25441816D02*
X10704923Y-25432292D01*
X10866828Y-25527530D02*
X10866828Y-25660864D01*
X10819209Y-25451340D02*
X10771590Y-25594197D01*
X10771590Y-25594197D02*
X10895399Y-25594197D01*
X11123971Y-25660864D02*
X11123971Y-25460864D01*
X11209685Y-25660864D02*
X11209685Y-25556102D01*
X11209685Y-25556102D02*
X11200161Y-25537054D01*
X11200161Y-25537054D02*
X11181113Y-25527530D01*
X11181113Y-25527530D02*
X11152542Y-25527530D01*
X11152542Y-25527530D02*
X11133494Y-25537054D01*
X11133494Y-25537054D02*
X11123971Y-25546578D01*
X11333494Y-25660864D02*
X11314447Y-25651340D01*
X11314447Y-25651340D02*
X11304923Y-25641816D01*
X11304923Y-25641816D02*
X11295399Y-25622768D01*
X11295399Y-25622768D02*
X11295399Y-25565626D01*
X11295399Y-25565626D02*
X11304923Y-25546578D01*
X11304923Y-25546578D02*
X11314447Y-25537054D01*
X11314447Y-25537054D02*
X11333494Y-25527530D01*
X11333494Y-25527530D02*
X11362066Y-25527530D01*
X11362066Y-25527530D02*
X11381113Y-25537054D01*
X11381113Y-25537054D02*
X11390637Y-25546578D01*
X11390637Y-25546578D02*
X11400161Y-25565626D01*
X11400161Y-25565626D02*
X11400161Y-25622768D01*
X11400161Y-25622768D02*
X11390637Y-25641816D01*
X11390637Y-25641816D02*
X11381113Y-25651340D01*
X11381113Y-25651340D02*
X11362066Y-25660864D01*
X11362066Y-25660864D02*
X11333494Y-25660864D01*
X11514447Y-25660864D02*
X11495399Y-25651340D01*
X11495399Y-25651340D02*
X11485875Y-25632292D01*
X11485875Y-25632292D02*
X11485875Y-25460864D01*
X11666828Y-25651340D02*
X11647780Y-25660864D01*
X11647780Y-25660864D02*
X11609685Y-25660864D01*
X11609685Y-25660864D02*
X11590637Y-25651340D01*
X11590637Y-25651340D02*
X11581113Y-25632292D01*
X11581113Y-25632292D02*
X11581113Y-25556102D01*
X11581113Y-25556102D02*
X11590637Y-25537054D01*
X11590637Y-25537054D02*
X11609685Y-25527530D01*
X11609685Y-25527530D02*
X11647780Y-25527530D01*
X11647780Y-25527530D02*
X11666828Y-25537054D01*
X11666828Y-25537054D02*
X11676351Y-25556102D01*
X11676351Y-25556102D02*
X11676351Y-25575149D01*
X11676351Y-25575149D02*
X11581113Y-25594197D01*
X11752542Y-25651340D02*
X11771590Y-25660864D01*
X11771590Y-25660864D02*
X11809685Y-25660864D01*
X11809685Y-25660864D02*
X11828732Y-25651340D01*
X11828732Y-25651340D02*
X11838256Y-25632292D01*
X11838256Y-25632292D02*
X11838256Y-25622768D01*
X11838256Y-25622768D02*
X11828732Y-25603721D01*
X11828732Y-25603721D02*
X11809685Y-25594197D01*
X11809685Y-25594197D02*
X11781113Y-25594197D01*
X11781113Y-25594197D02*
X11762066Y-25584673D01*
X11762066Y-25584673D02*
X11752542Y-25565626D01*
X11752542Y-25565626D02*
X11752542Y-25556102D01*
X11752542Y-25556102D02*
X11762066Y-25537054D01*
X11762066Y-25537054D02*
X11781113Y-25527530D01*
X11781113Y-25527530D02*
X11809685Y-25527530D01*
X11809685Y-25527530D02*
X11828732Y-25537054D01*
X11904923Y-25737054D02*
X11914447Y-25727530D01*
X11914447Y-25727530D02*
X11933494Y-25698959D01*
X11933494Y-25698959D02*
X11943018Y-25679911D01*
X11943018Y-25679911D02*
X11952542Y-25651340D01*
X11952542Y-25651340D02*
X11962066Y-25603721D01*
X11962066Y-25603721D02*
X11962066Y-25565626D01*
X11962066Y-25565626D02*
X11952542Y-25518007D01*
X11952542Y-25518007D02*
X11943018Y-25489435D01*
X11943018Y-25489435D02*
X11933494Y-25470388D01*
X11933494Y-25470388D02*
X11914447Y-25441816D01*
X11914447Y-25441816D02*
X11904923Y-25432292D01*
M02*
