%TF.GenerationSoftware,KiCad,Pcbnew,7.0.10-7.0.10~ubuntu22.04.1*%
%TF.CreationDate,2024-02-02T11:32:49-05:00*%
%TF.ProjectId,sys11c-power-supply,73797331-3163-42d7-906f-7765722d7375,1.0*%
%TF.SameCoordinates,Original*%
%TF.FileFunction,Drillmap*%
%TF.FilePolarity,Positive*%
%FSLAX45Y45*%
G04 Gerber Fmt 4.5, Leading zero omitted, Abs format (unit mm)*
G04 Created by KiCad (PCBNEW 7.0.10-7.0.10~ubuntu22.04.1) date 2024-02-02 11:32:49*
%MOMM*%
%LPD*%
G01*
G04 APERTURE LIST*
%ADD10C,0.100000*%
%ADD11C,0.200000*%
%ADD12C,0.350000*%
G04 APERTURE END LIST*
D10*
X7134860Y-3294380D02*
X27434860Y-3294380D01*
X27434860Y-22394380D01*
X7134860Y-22394380D01*
X7134860Y-3294380D01*
D11*
D12*
X11718500Y-16970000D02*
X12068500Y-17320000D01*
X12068500Y-16970000D02*
X11718500Y-17320000D01*
X11754060Y-19446500D02*
X12104060Y-19796500D01*
X12104060Y-19446500D02*
X11754060Y-19796500D01*
D11*
X7390637Y-22710864D02*
X7390637Y-22510864D01*
X7390637Y-22510864D02*
X7438256Y-22510864D01*
X7438256Y-22510864D02*
X7466827Y-22520388D01*
X7466827Y-22520388D02*
X7485875Y-22539435D01*
X7485875Y-22539435D02*
X7495399Y-22558483D01*
X7495399Y-22558483D02*
X7504922Y-22596578D01*
X7504922Y-22596578D02*
X7504922Y-22625149D01*
X7504922Y-22625149D02*
X7495399Y-22663245D01*
X7495399Y-22663245D02*
X7485875Y-22682292D01*
X7485875Y-22682292D02*
X7466827Y-22701340D01*
X7466827Y-22701340D02*
X7438256Y-22710864D01*
X7438256Y-22710864D02*
X7390637Y-22710864D01*
X7590637Y-22710864D02*
X7590637Y-22577530D01*
X7590637Y-22615626D02*
X7600161Y-22596578D01*
X7600161Y-22596578D02*
X7609684Y-22587054D01*
X7609684Y-22587054D02*
X7628732Y-22577530D01*
X7628732Y-22577530D02*
X7647780Y-22577530D01*
X7714446Y-22710864D02*
X7714446Y-22577530D01*
X7714446Y-22510864D02*
X7704922Y-22520388D01*
X7704922Y-22520388D02*
X7714446Y-22529911D01*
X7714446Y-22529911D02*
X7723970Y-22520388D01*
X7723970Y-22520388D02*
X7714446Y-22510864D01*
X7714446Y-22510864D02*
X7714446Y-22529911D01*
X7838256Y-22710864D02*
X7819208Y-22701340D01*
X7819208Y-22701340D02*
X7809684Y-22682292D01*
X7809684Y-22682292D02*
X7809684Y-22510864D01*
X7943018Y-22710864D02*
X7923970Y-22701340D01*
X7923970Y-22701340D02*
X7914446Y-22682292D01*
X7914446Y-22682292D02*
X7914446Y-22510864D01*
X8171589Y-22710864D02*
X8171589Y-22510864D01*
X8171589Y-22510864D02*
X8238256Y-22653721D01*
X8238256Y-22653721D02*
X8304922Y-22510864D01*
X8304922Y-22510864D02*
X8304922Y-22710864D01*
X8485875Y-22710864D02*
X8485875Y-22606102D01*
X8485875Y-22606102D02*
X8476351Y-22587054D01*
X8476351Y-22587054D02*
X8457304Y-22577530D01*
X8457304Y-22577530D02*
X8419208Y-22577530D01*
X8419208Y-22577530D02*
X8400161Y-22587054D01*
X8485875Y-22701340D02*
X8466827Y-22710864D01*
X8466827Y-22710864D02*
X8419208Y-22710864D01*
X8419208Y-22710864D02*
X8400161Y-22701340D01*
X8400161Y-22701340D02*
X8390637Y-22682292D01*
X8390637Y-22682292D02*
X8390637Y-22663245D01*
X8390637Y-22663245D02*
X8400161Y-22644197D01*
X8400161Y-22644197D02*
X8419208Y-22634673D01*
X8419208Y-22634673D02*
X8466827Y-22634673D01*
X8466827Y-22634673D02*
X8485875Y-22625149D01*
X8581113Y-22577530D02*
X8581113Y-22777530D01*
X8581113Y-22587054D02*
X8600161Y-22577530D01*
X8600161Y-22577530D02*
X8638256Y-22577530D01*
X8638256Y-22577530D02*
X8657304Y-22587054D01*
X8657304Y-22587054D02*
X8666827Y-22596578D01*
X8666827Y-22596578D02*
X8676351Y-22615626D01*
X8676351Y-22615626D02*
X8676351Y-22672768D01*
X8676351Y-22672768D02*
X8666827Y-22691816D01*
X8666827Y-22691816D02*
X8657304Y-22701340D01*
X8657304Y-22701340D02*
X8638256Y-22710864D01*
X8638256Y-22710864D02*
X8600161Y-22710864D01*
X8600161Y-22710864D02*
X8581113Y-22701340D01*
X8762065Y-22691816D02*
X8771589Y-22701340D01*
X8771589Y-22701340D02*
X8762065Y-22710864D01*
X8762065Y-22710864D02*
X8752542Y-22701340D01*
X8752542Y-22701340D02*
X8762065Y-22691816D01*
X8762065Y-22691816D02*
X8762065Y-22710864D01*
X8762065Y-22587054D02*
X8771589Y-22596578D01*
X8771589Y-22596578D02*
X8762065Y-22606102D01*
X8762065Y-22606102D02*
X8752542Y-22596578D01*
X8752542Y-22596578D02*
X8762065Y-22587054D01*
X8762065Y-22587054D02*
X8762065Y-22606102D01*
X6929860Y-22939380D02*
X7129860Y-23139380D01*
X7129860Y-22939380D02*
X6929860Y-23139380D01*
X7371589Y-22930864D02*
X7495399Y-22930864D01*
X7495399Y-22930864D02*
X7428732Y-23007054D01*
X7428732Y-23007054D02*
X7457303Y-23007054D01*
X7457303Y-23007054D02*
X7476351Y-23016578D01*
X7476351Y-23016578D02*
X7485875Y-23026102D01*
X7485875Y-23026102D02*
X7495399Y-23045149D01*
X7495399Y-23045149D02*
X7495399Y-23092768D01*
X7495399Y-23092768D02*
X7485875Y-23111816D01*
X7485875Y-23111816D02*
X7476351Y-23121340D01*
X7476351Y-23121340D02*
X7457303Y-23130864D01*
X7457303Y-23130864D02*
X7400161Y-23130864D01*
X7400161Y-23130864D02*
X7381113Y-23121340D01*
X7381113Y-23121340D02*
X7371589Y-23111816D01*
X7581113Y-23111816D02*
X7590637Y-23121340D01*
X7590637Y-23121340D02*
X7581113Y-23130864D01*
X7581113Y-23130864D02*
X7571589Y-23121340D01*
X7571589Y-23121340D02*
X7581113Y-23111816D01*
X7581113Y-23111816D02*
X7581113Y-23130864D01*
X7771589Y-22930864D02*
X7676351Y-22930864D01*
X7676351Y-22930864D02*
X7666827Y-23026102D01*
X7666827Y-23026102D02*
X7676351Y-23016578D01*
X7676351Y-23016578D02*
X7695399Y-23007054D01*
X7695399Y-23007054D02*
X7743018Y-23007054D01*
X7743018Y-23007054D02*
X7762065Y-23016578D01*
X7762065Y-23016578D02*
X7771589Y-23026102D01*
X7771589Y-23026102D02*
X7781113Y-23045149D01*
X7781113Y-23045149D02*
X7781113Y-23092768D01*
X7781113Y-23092768D02*
X7771589Y-23111816D01*
X7771589Y-23111816D02*
X7762065Y-23121340D01*
X7762065Y-23121340D02*
X7743018Y-23130864D01*
X7743018Y-23130864D02*
X7695399Y-23130864D01*
X7695399Y-23130864D02*
X7676351Y-23121340D01*
X7676351Y-23121340D02*
X7666827Y-23111816D01*
X7904922Y-22930864D02*
X7923970Y-22930864D01*
X7923970Y-22930864D02*
X7943018Y-22940388D01*
X7943018Y-22940388D02*
X7952542Y-22949911D01*
X7952542Y-22949911D02*
X7962065Y-22968959D01*
X7962065Y-22968959D02*
X7971589Y-23007054D01*
X7971589Y-23007054D02*
X7971589Y-23054673D01*
X7971589Y-23054673D02*
X7962065Y-23092768D01*
X7962065Y-23092768D02*
X7952542Y-23111816D01*
X7952542Y-23111816D02*
X7943018Y-23121340D01*
X7943018Y-23121340D02*
X7923970Y-23130864D01*
X7923970Y-23130864D02*
X7904922Y-23130864D01*
X7904922Y-23130864D02*
X7885875Y-23121340D01*
X7885875Y-23121340D02*
X7876351Y-23111816D01*
X7876351Y-23111816D02*
X7866827Y-23092768D01*
X7866827Y-23092768D02*
X7857303Y-23054673D01*
X7857303Y-23054673D02*
X7857303Y-23007054D01*
X7857303Y-23007054D02*
X7866827Y-22968959D01*
X7866827Y-22968959D02*
X7876351Y-22949911D01*
X7876351Y-22949911D02*
X7885875Y-22940388D01*
X7885875Y-22940388D02*
X7904922Y-22930864D01*
X8095399Y-22930864D02*
X8114446Y-22930864D01*
X8114446Y-22930864D02*
X8133494Y-22940388D01*
X8133494Y-22940388D02*
X8143018Y-22949911D01*
X8143018Y-22949911D02*
X8152542Y-22968959D01*
X8152542Y-22968959D02*
X8162065Y-23007054D01*
X8162065Y-23007054D02*
X8162065Y-23054673D01*
X8162065Y-23054673D02*
X8152542Y-23092768D01*
X8152542Y-23092768D02*
X8143018Y-23111816D01*
X8143018Y-23111816D02*
X8133494Y-23121340D01*
X8133494Y-23121340D02*
X8114446Y-23130864D01*
X8114446Y-23130864D02*
X8095399Y-23130864D01*
X8095399Y-23130864D02*
X8076351Y-23121340D01*
X8076351Y-23121340D02*
X8066827Y-23111816D01*
X8066827Y-23111816D02*
X8057303Y-23092768D01*
X8057303Y-23092768D02*
X8047780Y-23054673D01*
X8047780Y-23054673D02*
X8047780Y-23007054D01*
X8047780Y-23007054D02*
X8057303Y-22968959D01*
X8057303Y-22968959D02*
X8066827Y-22949911D01*
X8066827Y-22949911D02*
X8076351Y-22940388D01*
X8076351Y-22940388D02*
X8095399Y-22930864D01*
X8247780Y-23130864D02*
X8247780Y-22997530D01*
X8247780Y-23016578D02*
X8257303Y-23007054D01*
X8257303Y-23007054D02*
X8276351Y-22997530D01*
X8276351Y-22997530D02*
X8304923Y-22997530D01*
X8304923Y-22997530D02*
X8323970Y-23007054D01*
X8323970Y-23007054D02*
X8333494Y-23026102D01*
X8333494Y-23026102D02*
X8333494Y-23130864D01*
X8333494Y-23026102D02*
X8343018Y-23007054D01*
X8343018Y-23007054D02*
X8362065Y-22997530D01*
X8362065Y-22997530D02*
X8390637Y-22997530D01*
X8390637Y-22997530D02*
X8409685Y-23007054D01*
X8409685Y-23007054D02*
X8419208Y-23026102D01*
X8419208Y-23026102D02*
X8419208Y-23130864D01*
X8514446Y-23130864D02*
X8514446Y-22997530D01*
X8514446Y-23016578D02*
X8523970Y-23007054D01*
X8523970Y-23007054D02*
X8543018Y-22997530D01*
X8543018Y-22997530D02*
X8571589Y-22997530D01*
X8571589Y-22997530D02*
X8590637Y-23007054D01*
X8590637Y-23007054D02*
X8600161Y-23026102D01*
X8600161Y-23026102D02*
X8600161Y-23130864D01*
X8600161Y-23026102D02*
X8609685Y-23007054D01*
X8609685Y-23007054D02*
X8628732Y-22997530D01*
X8628732Y-22997530D02*
X8657304Y-22997530D01*
X8657304Y-22997530D02*
X8676351Y-23007054D01*
X8676351Y-23007054D02*
X8685875Y-23026102D01*
X8685875Y-23026102D02*
X8685875Y-23130864D01*
X9076351Y-22921340D02*
X8904923Y-23178483D01*
X9333494Y-22930864D02*
X9352542Y-22930864D01*
X9352542Y-22930864D02*
X9371589Y-22940388D01*
X9371589Y-22940388D02*
X9381113Y-22949911D01*
X9381113Y-22949911D02*
X9390637Y-22968959D01*
X9390637Y-22968959D02*
X9400161Y-23007054D01*
X9400161Y-23007054D02*
X9400161Y-23054673D01*
X9400161Y-23054673D02*
X9390637Y-23092768D01*
X9390637Y-23092768D02*
X9381113Y-23111816D01*
X9381113Y-23111816D02*
X9371589Y-23121340D01*
X9371589Y-23121340D02*
X9352542Y-23130864D01*
X9352542Y-23130864D02*
X9333494Y-23130864D01*
X9333494Y-23130864D02*
X9314447Y-23121340D01*
X9314447Y-23121340D02*
X9304923Y-23111816D01*
X9304923Y-23111816D02*
X9295399Y-23092768D01*
X9295399Y-23092768D02*
X9285875Y-23054673D01*
X9285875Y-23054673D02*
X9285875Y-23007054D01*
X9285875Y-23007054D02*
X9295399Y-22968959D01*
X9295399Y-22968959D02*
X9304923Y-22949911D01*
X9304923Y-22949911D02*
X9314447Y-22940388D01*
X9314447Y-22940388D02*
X9333494Y-22930864D01*
X9485875Y-23111816D02*
X9495399Y-23121340D01*
X9495399Y-23121340D02*
X9485875Y-23130864D01*
X9485875Y-23130864D02*
X9476351Y-23121340D01*
X9476351Y-23121340D02*
X9485875Y-23111816D01*
X9485875Y-23111816D02*
X9485875Y-23130864D01*
X9685875Y-23130864D02*
X9571589Y-23130864D01*
X9628732Y-23130864D02*
X9628732Y-22930864D01*
X9628732Y-22930864D02*
X9609685Y-22959435D01*
X9609685Y-22959435D02*
X9590637Y-22978483D01*
X9590637Y-22978483D02*
X9571589Y-22988007D01*
X9752542Y-22930864D02*
X9876351Y-22930864D01*
X9876351Y-22930864D02*
X9809685Y-23007054D01*
X9809685Y-23007054D02*
X9838256Y-23007054D01*
X9838256Y-23007054D02*
X9857304Y-23016578D01*
X9857304Y-23016578D02*
X9866828Y-23026102D01*
X9866828Y-23026102D02*
X9876351Y-23045149D01*
X9876351Y-23045149D02*
X9876351Y-23092768D01*
X9876351Y-23092768D02*
X9866828Y-23111816D01*
X9866828Y-23111816D02*
X9857304Y-23121340D01*
X9857304Y-23121340D02*
X9838256Y-23130864D01*
X9838256Y-23130864D02*
X9781113Y-23130864D01*
X9781113Y-23130864D02*
X9762066Y-23121340D01*
X9762066Y-23121340D02*
X9752542Y-23111816D01*
X9943018Y-22930864D02*
X10076351Y-22930864D01*
X10076351Y-22930864D02*
X9990637Y-23130864D01*
X10181113Y-23016578D02*
X10162066Y-23007054D01*
X10162066Y-23007054D02*
X10152542Y-22997530D01*
X10152542Y-22997530D02*
X10143018Y-22978483D01*
X10143018Y-22978483D02*
X10143018Y-22968959D01*
X10143018Y-22968959D02*
X10152542Y-22949911D01*
X10152542Y-22949911D02*
X10162066Y-22940388D01*
X10162066Y-22940388D02*
X10181113Y-22930864D01*
X10181113Y-22930864D02*
X10219209Y-22930864D01*
X10219209Y-22930864D02*
X10238256Y-22940388D01*
X10238256Y-22940388D02*
X10247780Y-22949911D01*
X10247780Y-22949911D02*
X10257304Y-22968959D01*
X10257304Y-22968959D02*
X10257304Y-22978483D01*
X10257304Y-22978483D02*
X10247780Y-22997530D01*
X10247780Y-22997530D02*
X10238256Y-23007054D01*
X10238256Y-23007054D02*
X10219209Y-23016578D01*
X10219209Y-23016578D02*
X10181113Y-23016578D01*
X10181113Y-23016578D02*
X10162066Y-23026102D01*
X10162066Y-23026102D02*
X10152542Y-23035626D01*
X10152542Y-23035626D02*
X10143018Y-23054673D01*
X10143018Y-23054673D02*
X10143018Y-23092768D01*
X10143018Y-23092768D02*
X10152542Y-23111816D01*
X10152542Y-23111816D02*
X10162066Y-23121340D01*
X10162066Y-23121340D02*
X10181113Y-23130864D01*
X10181113Y-23130864D02*
X10219209Y-23130864D01*
X10219209Y-23130864D02*
X10238256Y-23121340D01*
X10238256Y-23121340D02*
X10247780Y-23111816D01*
X10247780Y-23111816D02*
X10257304Y-23092768D01*
X10257304Y-23092768D02*
X10257304Y-23054673D01*
X10257304Y-23054673D02*
X10247780Y-23035626D01*
X10247780Y-23035626D02*
X10238256Y-23026102D01*
X10238256Y-23026102D02*
X10219209Y-23016578D01*
X10333494Y-22930864D02*
X10333494Y-22968959D01*
X10409685Y-22930864D02*
X10409685Y-22968959D01*
X10704923Y-23207054D02*
X10695399Y-23197530D01*
X10695399Y-23197530D02*
X10676351Y-23168959D01*
X10676351Y-23168959D02*
X10666828Y-23149911D01*
X10666828Y-23149911D02*
X10657304Y-23121340D01*
X10657304Y-23121340D02*
X10647780Y-23073721D01*
X10647780Y-23073721D02*
X10647780Y-23035626D01*
X10647780Y-23035626D02*
X10657304Y-22988007D01*
X10657304Y-22988007D02*
X10666828Y-22959435D01*
X10666828Y-22959435D02*
X10676351Y-22940388D01*
X10676351Y-22940388D02*
X10695399Y-22911816D01*
X10695399Y-22911816D02*
X10704923Y-22902292D01*
X10771590Y-22949911D02*
X10781113Y-22940388D01*
X10781113Y-22940388D02*
X10800161Y-22930864D01*
X10800161Y-22930864D02*
X10847780Y-22930864D01*
X10847780Y-22930864D02*
X10866828Y-22940388D01*
X10866828Y-22940388D02*
X10876351Y-22949911D01*
X10876351Y-22949911D02*
X10885875Y-22968959D01*
X10885875Y-22968959D02*
X10885875Y-22988007D01*
X10885875Y-22988007D02*
X10876351Y-23016578D01*
X10876351Y-23016578D02*
X10762066Y-23130864D01*
X10762066Y-23130864D02*
X10885875Y-23130864D01*
X11123971Y-23130864D02*
X11123971Y-22930864D01*
X11209685Y-23130864D02*
X11209685Y-23026102D01*
X11209685Y-23026102D02*
X11200161Y-23007054D01*
X11200161Y-23007054D02*
X11181113Y-22997530D01*
X11181113Y-22997530D02*
X11152542Y-22997530D01*
X11152542Y-22997530D02*
X11133494Y-23007054D01*
X11133494Y-23007054D02*
X11123971Y-23016578D01*
X11333494Y-23130864D02*
X11314447Y-23121340D01*
X11314447Y-23121340D02*
X11304923Y-23111816D01*
X11304923Y-23111816D02*
X11295399Y-23092768D01*
X11295399Y-23092768D02*
X11295399Y-23035626D01*
X11295399Y-23035626D02*
X11304923Y-23016578D01*
X11304923Y-23016578D02*
X11314447Y-23007054D01*
X11314447Y-23007054D02*
X11333494Y-22997530D01*
X11333494Y-22997530D02*
X11362066Y-22997530D01*
X11362066Y-22997530D02*
X11381113Y-23007054D01*
X11381113Y-23007054D02*
X11390637Y-23016578D01*
X11390637Y-23016578D02*
X11400161Y-23035626D01*
X11400161Y-23035626D02*
X11400161Y-23092768D01*
X11400161Y-23092768D02*
X11390637Y-23111816D01*
X11390637Y-23111816D02*
X11381113Y-23121340D01*
X11381113Y-23121340D02*
X11362066Y-23130864D01*
X11362066Y-23130864D02*
X11333494Y-23130864D01*
X11514447Y-23130864D02*
X11495399Y-23121340D01*
X11495399Y-23121340D02*
X11485875Y-23102292D01*
X11485875Y-23102292D02*
X11485875Y-22930864D01*
X11666828Y-23121340D02*
X11647780Y-23130864D01*
X11647780Y-23130864D02*
X11609685Y-23130864D01*
X11609685Y-23130864D02*
X11590637Y-23121340D01*
X11590637Y-23121340D02*
X11581113Y-23102292D01*
X11581113Y-23102292D02*
X11581113Y-23026102D01*
X11581113Y-23026102D02*
X11590637Y-23007054D01*
X11590637Y-23007054D02*
X11609685Y-22997530D01*
X11609685Y-22997530D02*
X11647780Y-22997530D01*
X11647780Y-22997530D02*
X11666828Y-23007054D01*
X11666828Y-23007054D02*
X11676351Y-23026102D01*
X11676351Y-23026102D02*
X11676351Y-23045149D01*
X11676351Y-23045149D02*
X11581113Y-23064197D01*
X11752542Y-23121340D02*
X11771590Y-23130864D01*
X11771590Y-23130864D02*
X11809685Y-23130864D01*
X11809685Y-23130864D02*
X11828732Y-23121340D01*
X11828732Y-23121340D02*
X11838256Y-23102292D01*
X11838256Y-23102292D02*
X11838256Y-23092768D01*
X11838256Y-23092768D02*
X11828732Y-23073721D01*
X11828732Y-23073721D02*
X11809685Y-23064197D01*
X11809685Y-23064197D02*
X11781113Y-23064197D01*
X11781113Y-23064197D02*
X11762066Y-23054673D01*
X11762066Y-23054673D02*
X11752542Y-23035626D01*
X11752542Y-23035626D02*
X11752542Y-23026102D01*
X11752542Y-23026102D02*
X11762066Y-23007054D01*
X11762066Y-23007054D02*
X11781113Y-22997530D01*
X11781113Y-22997530D02*
X11809685Y-22997530D01*
X11809685Y-22997530D02*
X11828732Y-23007054D01*
X11904923Y-23207054D02*
X11914447Y-23197530D01*
X11914447Y-23197530D02*
X11933494Y-23168959D01*
X11933494Y-23168959D02*
X11943018Y-23149911D01*
X11943018Y-23149911D02*
X11952542Y-23121340D01*
X11952542Y-23121340D02*
X11962066Y-23073721D01*
X11962066Y-23073721D02*
X11962066Y-23035626D01*
X11962066Y-23035626D02*
X11952542Y-22988007D01*
X11952542Y-22988007D02*
X11943018Y-22959435D01*
X11943018Y-22959435D02*
X11933494Y-22940388D01*
X11933494Y-22940388D02*
X11914447Y-22911816D01*
X11914447Y-22911816D02*
X11904923Y-22902292D01*
X12266828Y-23207054D02*
X12257304Y-23197530D01*
X12257304Y-23197530D02*
X12238256Y-23168959D01*
X12238256Y-23168959D02*
X12228732Y-23149911D01*
X12228732Y-23149911D02*
X12219209Y-23121340D01*
X12219209Y-23121340D02*
X12209685Y-23073721D01*
X12209685Y-23073721D02*
X12209685Y-23035626D01*
X12209685Y-23035626D02*
X12219209Y-22988007D01*
X12219209Y-22988007D02*
X12228732Y-22959435D01*
X12228732Y-22959435D02*
X12238256Y-22940388D01*
X12238256Y-22940388D02*
X12257304Y-22911816D01*
X12257304Y-22911816D02*
X12266828Y-22902292D01*
X12343018Y-22997530D02*
X12343018Y-23130864D01*
X12343018Y-23016578D02*
X12352542Y-23007054D01*
X12352542Y-23007054D02*
X12371590Y-22997530D01*
X12371590Y-22997530D02*
X12400161Y-22997530D01*
X12400161Y-22997530D02*
X12419209Y-23007054D01*
X12419209Y-23007054D02*
X12428732Y-23026102D01*
X12428732Y-23026102D02*
X12428732Y-23130864D01*
X12552542Y-23130864D02*
X12533494Y-23121340D01*
X12533494Y-23121340D02*
X12523971Y-23111816D01*
X12523971Y-23111816D02*
X12514447Y-23092768D01*
X12514447Y-23092768D02*
X12514447Y-23035626D01*
X12514447Y-23035626D02*
X12523971Y-23016578D01*
X12523971Y-23016578D02*
X12533494Y-23007054D01*
X12533494Y-23007054D02*
X12552542Y-22997530D01*
X12552542Y-22997530D02*
X12581113Y-22997530D01*
X12581113Y-22997530D02*
X12600161Y-23007054D01*
X12600161Y-23007054D02*
X12609685Y-23016578D01*
X12609685Y-23016578D02*
X12619209Y-23035626D01*
X12619209Y-23035626D02*
X12619209Y-23092768D01*
X12619209Y-23092768D02*
X12609685Y-23111816D01*
X12609685Y-23111816D02*
X12600161Y-23121340D01*
X12600161Y-23121340D02*
X12581113Y-23130864D01*
X12581113Y-23130864D02*
X12552542Y-23130864D01*
X12676352Y-22997530D02*
X12752542Y-22997530D01*
X12704923Y-22930864D02*
X12704923Y-23102292D01*
X12704923Y-23102292D02*
X12714447Y-23121340D01*
X12714447Y-23121340D02*
X12733494Y-23130864D01*
X12733494Y-23130864D02*
X12752542Y-23130864D01*
X12971590Y-22997530D02*
X12971590Y-23197530D01*
X12971590Y-23007054D02*
X12990637Y-22997530D01*
X12990637Y-22997530D02*
X13028733Y-22997530D01*
X13028733Y-22997530D02*
X13047780Y-23007054D01*
X13047780Y-23007054D02*
X13057304Y-23016578D01*
X13057304Y-23016578D02*
X13066828Y-23035626D01*
X13066828Y-23035626D02*
X13066828Y-23092768D01*
X13066828Y-23092768D02*
X13057304Y-23111816D01*
X13057304Y-23111816D02*
X13047780Y-23121340D01*
X13047780Y-23121340D02*
X13028733Y-23130864D01*
X13028733Y-23130864D02*
X12990637Y-23130864D01*
X12990637Y-23130864D02*
X12971590Y-23121340D01*
X13181113Y-23130864D02*
X13162066Y-23121340D01*
X13162066Y-23121340D02*
X13152542Y-23102292D01*
X13152542Y-23102292D02*
X13152542Y-22930864D01*
X13343018Y-23130864D02*
X13343018Y-23026102D01*
X13343018Y-23026102D02*
X13333494Y-23007054D01*
X13333494Y-23007054D02*
X13314447Y-22997530D01*
X13314447Y-22997530D02*
X13276352Y-22997530D01*
X13276352Y-22997530D02*
X13257304Y-23007054D01*
X13343018Y-23121340D02*
X13323971Y-23130864D01*
X13323971Y-23130864D02*
X13276352Y-23130864D01*
X13276352Y-23130864D02*
X13257304Y-23121340D01*
X13257304Y-23121340D02*
X13247780Y-23102292D01*
X13247780Y-23102292D02*
X13247780Y-23083245D01*
X13247780Y-23083245D02*
X13257304Y-23064197D01*
X13257304Y-23064197D02*
X13276352Y-23054673D01*
X13276352Y-23054673D02*
X13323971Y-23054673D01*
X13323971Y-23054673D02*
X13343018Y-23045149D01*
X13409685Y-22997530D02*
X13485875Y-22997530D01*
X13438256Y-22930864D02*
X13438256Y-23102292D01*
X13438256Y-23102292D02*
X13447780Y-23121340D01*
X13447780Y-23121340D02*
X13466828Y-23130864D01*
X13466828Y-23130864D02*
X13485875Y-23130864D01*
X13628733Y-23121340D02*
X13609685Y-23130864D01*
X13609685Y-23130864D02*
X13571590Y-23130864D01*
X13571590Y-23130864D02*
X13552542Y-23121340D01*
X13552542Y-23121340D02*
X13543018Y-23102292D01*
X13543018Y-23102292D02*
X13543018Y-23026102D01*
X13543018Y-23026102D02*
X13552542Y-23007054D01*
X13552542Y-23007054D02*
X13571590Y-22997530D01*
X13571590Y-22997530D02*
X13609685Y-22997530D01*
X13609685Y-22997530D02*
X13628733Y-23007054D01*
X13628733Y-23007054D02*
X13638256Y-23026102D01*
X13638256Y-23026102D02*
X13638256Y-23045149D01*
X13638256Y-23045149D02*
X13543018Y-23064197D01*
X13809685Y-23130864D02*
X13809685Y-22930864D01*
X13809685Y-23121340D02*
X13790637Y-23130864D01*
X13790637Y-23130864D02*
X13752542Y-23130864D01*
X13752542Y-23130864D02*
X13733494Y-23121340D01*
X13733494Y-23121340D02*
X13723971Y-23111816D01*
X13723971Y-23111816D02*
X13714447Y-23092768D01*
X13714447Y-23092768D02*
X13714447Y-23035626D01*
X13714447Y-23035626D02*
X13723971Y-23016578D01*
X13723971Y-23016578D02*
X13733494Y-23007054D01*
X13733494Y-23007054D02*
X13752542Y-22997530D01*
X13752542Y-22997530D02*
X13790637Y-22997530D01*
X13790637Y-22997530D02*
X13809685Y-23007054D01*
X13885875Y-23207054D02*
X13895399Y-23197530D01*
X13895399Y-23197530D02*
X13914447Y-23168959D01*
X13914447Y-23168959D02*
X13923971Y-23149911D01*
X13923971Y-23149911D02*
X13933494Y-23121340D01*
X13933494Y-23121340D02*
X13943018Y-23073721D01*
X13943018Y-23073721D02*
X13943018Y-23035626D01*
X13943018Y-23035626D02*
X13933494Y-22988007D01*
X13933494Y-22988007D02*
X13923971Y-22959435D01*
X13923971Y-22959435D02*
X13914447Y-22940388D01*
X13914447Y-22940388D02*
X13895399Y-22911816D01*
X13895399Y-22911816D02*
X13885875Y-22902292D01*
M02*
