G04 #@! TF.GenerationSoftware,KiCad,Pcbnew,7.0.10-7.0.10~ubuntu22.04.1*
G04 #@! TF.CreationDate,2024-02-02T11:31:48-05:00*
G04 #@! TF.ProjectId,sys11c-power-supply,73797331-3163-42d7-906f-7765722d7375,1.0*
G04 #@! TF.SameCoordinates,Original*
G04 #@! TF.FileFunction,Copper,L1,Top*
G04 #@! TF.FilePolarity,Positive*
%FSLAX46Y46*%
G04 Gerber Fmt 4.6, Leading zero omitted, Abs format (unit mm)*
G04 Created by KiCad (PCBNEW 7.0.10-7.0.10~ubuntu22.04.1) date 2024-02-02 11:31:48*
%MOMM*%
%LPD*%
G01*
G04 APERTURE LIST*
G04 Aperture macros list*
%AMRoundRect*
0 Rectangle with rounded corners*
0 $1 Rounding radius*
0 $2 $3 $4 $5 $6 $7 $8 $9 X,Y pos of 4 corners*
0 Add a 4 corners polygon primitive as box body*
4,1,4,$2,$3,$4,$5,$6,$7,$8,$9,$2,$3,0*
0 Add four circle primitives for the rounded corners*
1,1,$1+$1,$2,$3*
1,1,$1+$1,$4,$5*
1,1,$1+$1,$6,$7*
1,1,$1+$1,$8,$9*
0 Add four rect primitives between the rounded corners*
20,1,$1+$1,$2,$3,$4,$5,0*
20,1,$1+$1,$4,$5,$6,$7,0*
20,1,$1+$1,$6,$7,$8,$9,0*
20,1,$1+$1,$8,$9,$2,$3,0*%
G04 Aperture macros list end*
G04 #@! TA.AperFunction,SMDPad,CuDef*
%ADD10R,4.000000X4.000000*%
G04 #@! TD*
G04 #@! TA.AperFunction,ComponentPad*
%ADD11C,1.600000*%
G04 #@! TD*
G04 #@! TA.AperFunction,ComponentPad*
%ADD12R,1.800000X1.275000*%
G04 #@! TD*
G04 #@! TA.AperFunction,ComponentPad*
%ADD13O,1.800000X1.275000*%
G04 #@! TD*
G04 #@! TA.AperFunction,ComponentPad*
%ADD14O,1.600000X1.600000*%
G04 #@! TD*
G04 #@! TA.AperFunction,ComponentPad*
%ADD15RoundRect,0.875000X0.875000X-0.875000X0.875000X0.875000X-0.875000X0.875000X-0.875000X-0.875000X0*%
G04 #@! TD*
G04 #@! TA.AperFunction,ComponentPad*
%ADD16C,3.500000*%
G04 #@! TD*
G04 #@! TA.AperFunction,ComponentPad*
%ADD17R,2.400000X2.400000*%
G04 #@! TD*
G04 #@! TA.AperFunction,ComponentPad*
%ADD18C,2.400000*%
G04 #@! TD*
G04 #@! TA.AperFunction,ComponentPad*
%ADD19R,2.200000X2.200000*%
G04 #@! TD*
G04 #@! TA.AperFunction,ComponentPad*
%ADD20O,2.200000X2.200000*%
G04 #@! TD*
G04 #@! TA.AperFunction,ComponentPad*
%ADD21R,3.200000X3.200000*%
G04 #@! TD*
G04 #@! TA.AperFunction,ComponentPad*
%ADD22C,3.200000*%
G04 #@! TD*
G04 #@! TA.AperFunction,ComponentPad*
%ADD23R,2.000000X1.905000*%
G04 #@! TD*
G04 #@! TA.AperFunction,ComponentPad*
%ADD24O,2.000000X1.905000*%
G04 #@! TD*
G04 #@! TA.AperFunction,ComponentPad*
%ADD25RoundRect,0.875000X-0.875000X0.875000X-0.875000X-0.875000X0.875000X-0.875000X0.875000X0.875000X0*%
G04 #@! TD*
G04 #@! TA.AperFunction,ComponentPad*
%ADD26O,3.200000X3.200000*%
G04 #@! TD*
G04 #@! TA.AperFunction,ComponentPad*
%ADD27R,1.500000X1.050000*%
G04 #@! TD*
G04 #@! TA.AperFunction,ComponentPad*
%ADD28O,1.500000X1.050000*%
G04 #@! TD*
G04 #@! TA.AperFunction,ComponentPad*
%ADD29RoundRect,0.250000X3.750000X-1.330000X3.750000X1.330000X-3.750000X1.330000X-3.750000X-1.330000X0*%
G04 #@! TD*
G04 #@! TA.AperFunction,ComponentPad*
%ADD30O,8.000000X3.160000*%
G04 #@! TD*
G04 #@! TA.AperFunction,ComponentPad*
%ADD31R,4.000000X4.000000*%
G04 #@! TD*
G04 #@! TA.AperFunction,ComponentPad*
%ADD32C,4.000000*%
G04 #@! TD*
G04 #@! TA.AperFunction,ComponentPad*
%ADD33C,9.500000*%
G04 #@! TD*
G04 #@! TA.AperFunction,ComponentPad*
%ADD34RoundRect,0.250000X1.330000X3.750000X-1.330000X3.750000X-1.330000X-3.750000X1.330000X-3.750000X0*%
G04 #@! TD*
G04 #@! TA.AperFunction,ComponentPad*
%ADD35O,3.160000X8.000000*%
G04 #@! TD*
G04 #@! TA.AperFunction,ComponentPad*
%ADD36R,1.600000X1.600000*%
G04 #@! TD*
G04 #@! TA.AperFunction,ComponentPad*
%ADD37R,1.700000X1.700000*%
G04 #@! TD*
G04 #@! TA.AperFunction,ComponentPad*
%ADD38O,1.700000X1.700000*%
G04 #@! TD*
G04 #@! TA.AperFunction,ComponentPad*
%ADD39R,2.000000X2.000000*%
G04 #@! TD*
G04 #@! TA.AperFunction,ComponentPad*
%ADD40C,2.000000*%
G04 #@! TD*
G04 #@! TA.AperFunction,Conductor*
%ADD41C,1.000000*%
G04 #@! TD*
G04 #@! TA.AperFunction,Conductor*
%ADD42C,3.000000*%
G04 #@! TD*
G04 #@! TA.AperFunction,Conductor*
%ADD43C,2.000000*%
G04 #@! TD*
G04 APERTURE END LIST*
D10*
X97790000Y-68554600D03*
D11*
X141605000Y-194350000D03*
X141605000Y-199350000D03*
D12*
X163505000Y-73885000D03*
D13*
X163505000Y-72185000D03*
X163505000Y-70485000D03*
X163505000Y-68785000D03*
X163505000Y-67085000D03*
D11*
X160020000Y-166370000D03*
D14*
X160020000Y-176530000D03*
D15*
X217170000Y-201255000D03*
X217170000Y-193635000D03*
D16*
X217170000Y-174665000D03*
X217170000Y-167045000D03*
D17*
X191770000Y-193337246D03*
D18*
X191770000Y-200837246D03*
D11*
X160020000Y-201930000D03*
D14*
X160020000Y-191770000D03*
D19*
X206375000Y-191770000D03*
D20*
X206375000Y-201930000D03*
D21*
X220294200Y-150495000D03*
D22*
X225374200Y-150495000D03*
X230454200Y-150495000D03*
X235534200Y-150495000D03*
D23*
X135595000Y-173990000D03*
D24*
X135595000Y-171450000D03*
X135595000Y-168910000D03*
D19*
X165735000Y-191770000D03*
D20*
X165735000Y-201930000D03*
D25*
X100330000Y-167045000D03*
X100330000Y-174665000D03*
D16*
X100330000Y-193635000D03*
X100330000Y-201255000D03*
D21*
X210345000Y-97790000D03*
D26*
X230345000Y-97790000D03*
D27*
X153395000Y-172085000D03*
D28*
X153395000Y-170815000D03*
X153395000Y-169545000D03*
D10*
X97790000Y-95885000D03*
X97790000Y-55880000D03*
D29*
X84298200Y-109391200D03*
D30*
X84298200Y-105431200D03*
X84298200Y-101471200D03*
X84298200Y-97511200D03*
X84298200Y-93551200D03*
X84298200Y-89591200D03*
X84298200Y-85631200D03*
X84298200Y-81671200D03*
X84298200Y-77711200D03*
X84298200Y-73751200D03*
X84298200Y-69791200D03*
X84298200Y-65831200D03*
X84298200Y-61871200D03*
X84298200Y-57911200D03*
X84298200Y-53951200D03*
D31*
X140970000Y-113665000D03*
D32*
X140970000Y-123665000D03*
D33*
X268345200Y-217951800D03*
D11*
X172085000Y-73620000D03*
X172085000Y-68620000D03*
D25*
X84455000Y-167045000D03*
X84455000Y-174665000D03*
D16*
X84455000Y-193635000D03*
X84455000Y-201255000D03*
D33*
X77323200Y-44943800D03*
D21*
X230665000Y-109855000D03*
D26*
X250665000Y-109855000D03*
D33*
X268345800Y-64918000D03*
D11*
X146685000Y-191770000D03*
D14*
X146685000Y-201930000D03*
D25*
X234950000Y-167045000D03*
X234950000Y-174665000D03*
D16*
X234950000Y-193635000D03*
X234950000Y-201255000D03*
D23*
X135950600Y-198755000D03*
D24*
X135950600Y-196215000D03*
X135950600Y-193675000D03*
D19*
X165735000Y-176530000D03*
D20*
X165735000Y-166370000D03*
D11*
X171450000Y-166370000D03*
D14*
X171450000Y-176530000D03*
D31*
X177800000Y-113665000D03*
D32*
X177800000Y-123665000D03*
D19*
X206375000Y-166370000D03*
D20*
X206375000Y-176530000D03*
D34*
X250447400Y-214826600D03*
D35*
X246487400Y-214826600D03*
X242527400Y-214826600D03*
X238567400Y-214826600D03*
X234607400Y-214826600D03*
X230647400Y-214826600D03*
X226687400Y-214826600D03*
X222727400Y-214826600D03*
X218767400Y-214826600D03*
D27*
X152760000Y-197485000D03*
D28*
X152760000Y-196215000D03*
X152760000Y-194945000D03*
D36*
X176530000Y-166370000D03*
D14*
X176530000Y-176530000D03*
D34*
X108033200Y-214742400D03*
D35*
X104073200Y-214742400D03*
X100113200Y-214742400D03*
X96153200Y-214742400D03*
X92193200Y-214742400D03*
X88233200Y-214742400D03*
D10*
X97790000Y-81915000D03*
D37*
X112390000Y-155575000D03*
D38*
X114930000Y-155575000D03*
D21*
X230665000Y-133985000D03*
D26*
X250665000Y-133985000D03*
D33*
X77424800Y-217876000D03*
D21*
X210345000Y-121920000D03*
D26*
X230345000Y-121920000D03*
D17*
X124460000Y-52921041D03*
D18*
X124460000Y-57921041D03*
D36*
X176530000Y-191770000D03*
D14*
X176530000Y-201930000D03*
D11*
X146685000Y-166370000D03*
D14*
X146685000Y-176530000D03*
D17*
X191770000Y-167760000D03*
D18*
X191770000Y-175260000D03*
D11*
X171450000Y-201930000D03*
D14*
X171450000Y-191770000D03*
D11*
X153670000Y-66675000D03*
D14*
X143510000Y-66675000D03*
D15*
X252095000Y-201215000D03*
X252095000Y-193595000D03*
D16*
X252095000Y-174625000D03*
X252095000Y-167005000D03*
D11*
X141605000Y-168950000D03*
X141605000Y-173950000D03*
D39*
X124460000Y-79455000D03*
D40*
X124460000Y-84455000D03*
D41*
X170220000Y-70485000D02*
X172085000Y-68620000D01*
D42*
X109220000Y-84455000D02*
X97790000Y-95885000D01*
D41*
X163505000Y-70485000D02*
X170220000Y-70485000D01*
D42*
X238567400Y-214826600D02*
X242527400Y-214826600D01*
X124460000Y-84455000D02*
X109220000Y-84455000D01*
X92075000Y-91440000D02*
X86266200Y-85631200D01*
X92075000Y-205105000D02*
X92075000Y-147320000D01*
X88233200Y-214742400D02*
X88233200Y-208946800D01*
X97546200Y-81671200D02*
X97790000Y-81915000D01*
X92075000Y-147320000D02*
X92075000Y-91440000D01*
X84298200Y-81671200D02*
X97546200Y-81671200D01*
X88233200Y-208946800D02*
X92075000Y-205105000D01*
D41*
X100330000Y-155575000D02*
X92075000Y-147320000D01*
D42*
X124460000Y-79455000D02*
X100250000Y-79455000D01*
X86266200Y-85631200D02*
X84298200Y-85631200D01*
D43*
X84542000Y-81915000D02*
X84298200Y-81671200D01*
D42*
X100250000Y-79455000D02*
X97790000Y-81915000D01*
D41*
X112390000Y-155575000D02*
X100330000Y-155575000D01*
D42*
X210345000Y-140545800D02*
X220294200Y-150495000D01*
X95066600Y-65831200D02*
X97790000Y-68554600D01*
D41*
X146890000Y-72185000D02*
X140970000Y-78105000D01*
D42*
X131419600Y-68554600D02*
X140970000Y-78105000D01*
D41*
X170650000Y-72185000D02*
X172085000Y-73620000D01*
D42*
X140970000Y-113665000D02*
X177800000Y-113665000D01*
X177800000Y-113665000D02*
X202090000Y-113665000D01*
X210345000Y-97790000D02*
X210345000Y-121920000D01*
D41*
X163505000Y-72185000D02*
X170650000Y-72185000D01*
D42*
X210345000Y-121920000D02*
X210345000Y-140545800D01*
D41*
X163505000Y-72185000D02*
X146890000Y-72185000D01*
D42*
X202090000Y-113665000D02*
X210345000Y-121920000D01*
X140970000Y-78105000D02*
X140970000Y-113665000D01*
D43*
X96553400Y-69791200D02*
X97790000Y-68554600D01*
D42*
X84298200Y-65831200D02*
X95066600Y-65831200D01*
X97790000Y-68554600D02*
X131419600Y-68554600D01*
X250665000Y-90010000D02*
X250665000Y-109855000D01*
X250665000Y-109855000D02*
X250665000Y-133985000D01*
X235534200Y-150495000D02*
X235534200Y-149115800D01*
X218576041Y-57921041D02*
X250665000Y-90010000D01*
X84308041Y-57921041D02*
X84298200Y-57911200D01*
X124460000Y-57921041D02*
X218576041Y-57921041D01*
X235534200Y-149115800D02*
X250665000Y-133985000D01*
D43*
X124450159Y-57911200D02*
X124460000Y-57921041D01*
D42*
X124460000Y-57921041D02*
X84308041Y-57921041D01*
D43*
X250665000Y-135364200D02*
X250665000Y-133985000D01*
X100330000Y-201255000D02*
X100330000Y-193635000D01*
X100330000Y-201255000D02*
X108033200Y-208958200D01*
X108033200Y-208958200D02*
X108033200Y-214742400D01*
X84455000Y-193635000D02*
X84455000Y-201255000D01*
D42*
X246487400Y-214826600D02*
X250447400Y-214826600D01*
X252095000Y-201215000D02*
X252095000Y-193595000D01*
X252095000Y-201215000D02*
X252095000Y-213179000D01*
X252095000Y-213179000D02*
X250447400Y-214826600D01*
X234950000Y-214484000D02*
X234607400Y-214826600D01*
X234950000Y-201255000D02*
X234950000Y-214484000D01*
X234950000Y-193635000D02*
X234950000Y-201255000D01*
X230647400Y-214826600D02*
X234607400Y-214826600D01*
D43*
X217170000Y-213229200D02*
X218767400Y-214826600D01*
X217170000Y-193635000D02*
X217170000Y-201255000D01*
X217170000Y-201255000D02*
X217170000Y-213229200D01*
X160020000Y-166370000D02*
X162560000Y-163830000D01*
X204985000Y-167760000D02*
X206375000Y-166370000D01*
X191770000Y-167760000D02*
X204985000Y-167760000D01*
X162560000Y-163830000D02*
X173990000Y-163830000D01*
X190380000Y-166370000D02*
X191770000Y-167760000D01*
X176530000Y-166370000D02*
X190380000Y-166370000D01*
X173990000Y-163830000D02*
X176530000Y-166370000D01*
X84455000Y-167005000D02*
X83820000Y-166370000D01*
X84455000Y-167045000D02*
X84455000Y-174665000D01*
X144185000Y-166370000D02*
X141605000Y-168950000D01*
X146685000Y-166370000D02*
X144185000Y-166370000D01*
X135595000Y-168910000D02*
X141565000Y-168910000D01*
X84455000Y-167045000D02*
X84455000Y-167005000D01*
X141565000Y-168910000D02*
X141605000Y-168950000D01*
X205282246Y-200837246D02*
X206375000Y-201930000D01*
X191770000Y-200837246D02*
X205282246Y-200837246D01*
X176530000Y-201930000D02*
X190677246Y-201930000D01*
X190677246Y-201930000D02*
X191770000Y-200837246D01*
X135950600Y-193675000D02*
X140930000Y-193675000D01*
X117475000Y-182880000D02*
X128270000Y-193675000D01*
X100330000Y-167045000D02*
X100330000Y-174665000D01*
X146685000Y-191770000D02*
X144185000Y-191770000D01*
X144185000Y-191770000D02*
X141605000Y-194350000D01*
X140930000Y-193675000D02*
X141605000Y-194350000D01*
X128270000Y-193675000D02*
X135950600Y-193675000D01*
X100330000Y-179070000D02*
X104140000Y-182880000D01*
X100330000Y-174665000D02*
X100330000Y-179070000D01*
X104140000Y-182880000D02*
X117475000Y-182880000D01*
D42*
X220980000Y-137795000D02*
X220980000Y-119540000D01*
X230345000Y-109535000D02*
X230665000Y-109855000D01*
X225374200Y-150495000D02*
X225374200Y-157469200D01*
D43*
X230665000Y-98110000D02*
X230345000Y-97790000D01*
D42*
X230345000Y-97790000D02*
X230345000Y-109535000D01*
X234950000Y-167045000D02*
X234950000Y-174665000D01*
X225374200Y-150495000D02*
X225374200Y-142189200D01*
X220980000Y-119540000D02*
X230665000Y-109855000D01*
X225374200Y-157469200D02*
X234950000Y-167045000D01*
X225374200Y-142189200D02*
X220980000Y-137795000D01*
X230454200Y-134195800D02*
X230665000Y-133985000D01*
X230454200Y-150495000D02*
X230454200Y-153619200D01*
X230345000Y-121920000D02*
X230345000Y-133665000D01*
X230345000Y-133665000D02*
X230665000Y-133985000D01*
D43*
X230665000Y-122240000D02*
X230345000Y-121920000D01*
D42*
X235585000Y-158750000D02*
X238760000Y-158750000D01*
X252095000Y-174625000D02*
X252095000Y-167005000D01*
X238760000Y-158750000D02*
X247015000Y-167005000D01*
X230454200Y-150495000D02*
X230454200Y-134195800D01*
X247015000Y-167005000D02*
X252095000Y-167005000D01*
X230454200Y-153619200D02*
X235585000Y-158750000D01*
D43*
X217170000Y-167045000D02*
X217170000Y-174665000D01*
X206375000Y-176530000D02*
X206375000Y-191770000D01*
X206375000Y-176530000D02*
X215305000Y-176530000D01*
X215305000Y-176530000D02*
X217170000Y-174665000D01*
D41*
X144145000Y-171450000D02*
X139700000Y-171450000D01*
X153395000Y-169545000D02*
X146050000Y-169545000D01*
X146050000Y-169545000D02*
X144145000Y-171450000D01*
X139700000Y-171450000D02*
X137160000Y-173990000D01*
X137160000Y-173990000D02*
X135595000Y-173990000D01*
X153395000Y-172085000D02*
X155575000Y-172085000D01*
X155575000Y-172085000D02*
X160020000Y-176530000D01*
D43*
X171450000Y-171450000D02*
X176530000Y-176530000D01*
D41*
X170815000Y-170815000D02*
X171450000Y-171450000D01*
D43*
X171450000Y-166370000D02*
X171450000Y-171450000D01*
D41*
X153395000Y-170815000D02*
X170815000Y-170815000D01*
D43*
X154305000Y-205105000D02*
X140335000Y-205105000D01*
D41*
X149860000Y-201930000D02*
X153035000Y-205105000D01*
X151010000Y-194945000D02*
X149860000Y-196095000D01*
X153035000Y-205105000D02*
X154305000Y-205105000D01*
D43*
X135950600Y-200720600D02*
X135950600Y-198755000D01*
X165735000Y-201930000D02*
X162560000Y-205105000D01*
X162560000Y-205105000D02*
X154305000Y-205105000D01*
D41*
X152760000Y-194945000D02*
X151010000Y-194945000D01*
X149860000Y-196095000D02*
X149860000Y-201930000D01*
D43*
X140335000Y-205105000D02*
X135950600Y-200720600D01*
X171450000Y-196850000D02*
X176530000Y-191770000D01*
X171450000Y-201930000D02*
X171450000Y-196850000D01*
D41*
X170815000Y-196215000D02*
X171450000Y-196850000D01*
X152760000Y-196215000D02*
X170815000Y-196215000D01*
X163095000Y-66675000D02*
X163505000Y-67085000D01*
X153670000Y-66675000D02*
X163095000Y-66675000D01*
M02*
