M48
; DRILL file {KiCad 7.0.10-7.0.10~ubuntu22.04.1} date Fri 02 Feb 2024 11:32:41 AM
; FORMAT={-:-/ absolute / metric / decimal}
; #@! TF.CreationDate,2024-02-02T11:32:41-05:00
; #@! TF.GenerationSoftware,Kicad,Pcbnew,7.0.10-7.0.10~ubuntu22.04.1
; #@! TF.FileFunction,Plated,1,2,PTH
FMAT,2
METRIC
; #@! TA.AperFunction,Plated,PTH,ComponentDrill
T1C0.750
; #@! TA.AperFunction,Plated,PTH,ComponentDrill
T2C0.800
; #@! TA.AperFunction,Plated,PTH,ComponentDrill
T3C1.000
; #@! TA.AperFunction,Plated,PTH,ComponentDrill
T4C1.100
; #@! TA.AperFunction,Plated,PTH,ComponentDrill
T5C1.200
; #@! TA.AperFunction,Plated,PTH,ComponentDrill
T6C1.600
; #@! TA.AperFunction,Plated,PTH,ComponentDrill
T7C1.700
; #@! TA.AperFunction,Plated,PTH,ComponentDrill
T8C2.000
; #@! TA.AperFunction,Plated,PTH,ComponentDrill
T9C2.540
; #@! TA.AperFunction,Plated,PTH,ComponentDrill
T10C5.300
%
G90
G05
T1
X152.76Y-194.945
X152.76Y-196.215
X152.76Y-197.485
X153.395Y-169.545
X153.395Y-170.815
X153.395Y-172.085
T2
X141.605Y-168.95
X141.605Y-173.95
X141.605Y-194.35
X141.605Y-199.35
X143.51Y-66.675
X146.685Y-166.37
X146.685Y-176.53
X146.685Y-191.77
X146.685Y-201.93
X153.67Y-66.675
X160.02Y-166.37
X160.02Y-176.53
X160.02Y-191.77
X160.02Y-201.93
X171.45Y-166.37
X171.45Y-176.53
X171.45Y-191.77
X171.45Y-201.93
X172.085Y-68.62
X172.085Y-73.62
X176.53Y-166.37
X176.53Y-176.53
X176.53Y-191.77
X176.53Y-201.93
T3
X112.39Y-155.575
X114.93Y-155.575
X124.46Y-79.455
X124.46Y-84.455
T4
X135.595Y-168.91
X135.595Y-171.45
X135.595Y-173.99
X135.951Y-193.675
X135.951Y-196.215
X135.951Y-198.755
X163.505Y-67.085
X163.505Y-68.785
X163.505Y-70.485
X163.505Y-72.185
X163.505Y-73.885
X165.735Y-166.37
X165.735Y-176.53
X165.735Y-191.77
X165.735Y-201.93
X206.375Y-166.37
X206.375Y-176.53
X206.375Y-191.77
X206.375Y-201.93
T5
X124.46Y-52.921
X124.46Y-57.921
X191.77Y-167.76
X191.77Y-175.26
X191.77Y-193.337
X191.77Y-200.837
T6
X210.345Y-97.79
X210.345Y-121.92
X220.294Y-150.495
X225.374Y-150.495
X230.345Y-97.79
X230.345Y-121.92
X230.454Y-150.495
X230.665Y-109.855
X230.665Y-133.985
X235.534Y-150.495
X250.665Y-109.855
X250.665Y-133.985
T7
X84.298Y-53.951
X84.298Y-57.911
X84.298Y-61.871
X84.298Y-65.831
X84.298Y-69.791
X84.298Y-73.751
X84.298Y-77.711
X84.298Y-81.671
X84.298Y-85.631
X84.298Y-89.591
X84.298Y-93.551
X84.298Y-97.511
X84.298Y-101.471
X84.298Y-105.431
X84.298Y-109.391
X88.233Y-214.742
X92.193Y-214.742
X96.153Y-214.742
X100.113Y-214.742
X104.073Y-214.742
X108.033Y-214.742
X218.767Y-214.827
X222.727Y-214.827
X226.687Y-214.827
X230.647Y-214.827
X234.607Y-214.827
X238.567Y-214.827
X242.527Y-214.827
X246.487Y-214.827
X250.447Y-214.827
T8
X140.97Y-113.665
X140.97Y-123.665
X177.8Y-113.665
X177.8Y-123.665
T9
X84.455Y-167.045
X84.455Y-174.665
X84.455Y-193.635
X84.455Y-201.255
X100.33Y-167.045
X100.33Y-174.665
X100.33Y-193.635
X100.33Y-201.255
X217.17Y-167.045
X217.17Y-174.665
X217.17Y-193.635
X217.17Y-201.255
X234.95Y-167.045
X234.95Y-174.665
X234.95Y-193.635
X234.95Y-201.255
X252.095Y-167.005
X252.095Y-174.625
X252.095Y-193.595
X252.095Y-201.215
T10
X77.323Y-44.944
X77.425Y-217.876
X268.345Y-217.952
X268.346Y-64.918
M30
